<?xml version="1.0" encoding="UTF-8" standalone="no"?>
<!DOCTYPE svg PUBLIC "-//W3C//DTD SVG 1.1//EN"
 "http://www.w3.org/Graphics/SVG/1.1/DTD/svg11.dtd">
<!-- Generated by graphviz version 2.36.0 (20140111.2315)
 -->
<!-- Title: list_and_list_node Pages: 1 -->
<svg width="674pt" height="170pt"
 viewBox="0.00 0.00 674.00 170.00" xmlns="http://www.w3.org/2000/svg" xmlns:xlink="http://www.w3.org/1999/xlink">
<g id="graph0" class="graph" transform="scale(1 1) rotate(0) translate(4 166)">
<title>list_and_list_node</title>
<polygon fill="white" stroke="none" points="-4,4 -4,-166 670,-166 670,4 -4,4"/>
<!-- list_node_1 -->
<g id="node1" class="node"><title>list_node_1</title>
<polygon fill="#95bbe3" stroke="black" points="144.5,-61 144.5,-107 293.5,-107 293.5,-61 144.5,-61"/>
<text text-anchor="middle" x="219" y="-91.8" font-family="'/usr/share/fonts/truetype/wqy/wqy-microhei.ttc'" font-size="14.00">listNode</text>
<polyline fill="none" stroke="black" points="144.5,-84 293.5,-84 "/>
<text text-anchor="middle" x="168" y="-68.8" font-family="'/usr/share/fonts/truetype/wqy/wqy-microhei.ttc'" font-size="14.00">prev</text>
<polyline fill="none" stroke="black" points="191.5,-61 191.5,-84 "/>
<text text-anchor="middle" x="218.5" y="-68.8" font-family="'/usr/share/fonts/truetype/wqy/wqy-microhei.ttc'" font-size="14.00">value</text>
<polyline fill="none" stroke="black" points="245.5,-61 245.5,-84 "/>
<text text-anchor="middle" x="269.5" y="-68.8" font-family="'/usr/share/fonts/truetype/wqy/wqy-microhei.ttc'" font-size="14.00">next</text>
</g>
<!-- list_node_2 -->
<g id="node2" class="node"><title>list_node_2</title>
<polygon fill="#95bbe3" stroke="black" points="330.5,-61 330.5,-107 479.5,-107 479.5,-61 330.5,-61"/>
<text text-anchor="middle" x="405" y="-91.8" font-family="'/usr/share/fonts/truetype/wqy/wqy-microhei.ttc'" font-size="14.00">listNode</text>
<polyline fill="none" stroke="black" points="330.5,-84 479.5,-84 "/>
<text text-anchor="middle" x="354" y="-68.8" font-family="'/usr/share/fonts/truetype/wqy/wqy-microhei.ttc'" font-size="14.00">prev</text>
<polyline fill="none" stroke="black" points="377.5,-61 377.5,-84 "/>
<text text-anchor="middle" x="404.5" y="-68.8" font-family="'/usr/share/fonts/truetype/wqy/wqy-microhei.ttc'" font-size="14.00">value</text>
<polyline fill="none" stroke="black" points="431.5,-61 431.5,-84 "/>
<text text-anchor="middle" x="455.5" y="-68.8" font-family="'/usr/share/fonts/truetype/wqy/wqy-microhei.ttc'" font-size="14.00">next</text>
</g>
<!-- list_node_1&#45;&gt;list_node_2 -->
<g id="edge1" class="edge"><title>list_node_1:next&#45;&gt;list_node_2:head</title>
<path fill="none" stroke="black" stroke-width="2" d="M294,-72C309.173,-72 310.843,-86.9429 320.319,-93.2469"/>
<polygon fill="black" stroke="black" stroke-width="2" points="319.424,-96.631 330,-96 321.339,-89.898 319.424,-96.631"/>
</g>
<!-- list_node_2&#45;&gt;list_node_1 -->
<g id="edge3" class="edge"><title>list_node_2:prev&#45;&gt;list_node_1:head</title>
<path fill="none" stroke="black" stroke-width="2" d="M330,-72C314.827,-72 313.157,-86.9429 303.681,-93.2469"/>
<polygon fill="black" stroke="black" stroke-width="2" points="302.661,-89.898 294,-96 304.576,-96.631 302.661,-89.898"/>
</g>
<!-- list_node_3 -->
<g id="node3" class="node"><title>list_node_3</title>
<polygon fill="#95bbe3" stroke="black" points="516.5,-85 516.5,-131 665.5,-131 665.5,-85 516.5,-85"/>
<text text-anchor="middle" x="591" y="-115.8" font-family="'/usr/share/fonts/truetype/wqy/wqy-microhei.ttc'" font-size="14.00">listNode</text>
<polyline fill="none" stroke="black" points="516.5,-108 665.5,-108 "/>
<text text-anchor="middle" x="540" y="-92.8" font-family="'/usr/share/fonts/truetype/wqy/wqy-microhei.ttc'" font-size="14.00">prev</text>
<polyline fill="none" stroke="black" points="563.5,-85 563.5,-108 "/>
<text text-anchor="middle" x="590.5" y="-92.8" font-family="'/usr/share/fonts/truetype/wqy/wqy-microhei.ttc'" font-size="14.00">value</text>
<polyline fill="none" stroke="black" points="617.5,-85 617.5,-108 "/>
<text text-anchor="middle" x="641.5" y="-92.8" font-family="'/usr/share/fonts/truetype/wqy/wqy-microhei.ttc'" font-size="14.00">next</text>
</g>
<!-- list_node_2&#45;&gt;list_node_3 -->
<g id="edge2" class="edge"><title>list_node_2:next&#45;&gt;list_node_3:head</title>
<path fill="none" stroke="black" stroke-width="2" d="M480,-72C502.5,-72 493.676,-106.172 506.387,-116.851"/>
<polygon fill="black" stroke="black" stroke-width="2" points="505.407,-120.213 516,-120 507.587,-113.561 505.407,-120.213"/>
</g>
<!-- list_node_3&#45;&gt;list_node_2 -->
<g id="edge4" class="edge"><title>list_node_3:prev&#45;&gt;list_node_2:head</title>
<path fill="none" stroke="black" stroke-width="2" d="M516,-96C504,-96 498.75,-96 490.125,-96"/>
<polygon fill="black" stroke="black" stroke-width="2" points="490,-92.5001 480,-96 490,-99.5001 490,-92.5001"/>
</g>
<!-- list -->
<g id="node4" class="node"><title>list</title>
<polygon fill="#a8e270" stroke="black" points="0,-0.5 0,-161.5 108,-161.5 108,-0.5 0,-0.5"/>
<text text-anchor="middle" x="54" y="-146.3" font-family="'/usr/share/fonts/truetype/wqy/wqy-microhei.ttc'" font-size="14.00">list</text>
<polyline fill="none" stroke="black" points="0,-138.5 108,-138.5 "/>
<text text-anchor="middle" x="54" y="-123.3" font-family="'/usr/share/fonts/truetype/wqy/wqy-microhei.ttc'" font-size="14.00">head</text>
<polyline fill="none" stroke="black" points="0,-115.5 108,-115.5 "/>
<text text-anchor="middle" x="54" y="-100.3" font-family="'/usr/share/fonts/truetype/wqy/wqy-microhei.ttc'" font-size="14.00">tail</text>
<polyline fill="none" stroke="black" points="0,-92.5 108,-92.5 "/>
<text text-anchor="middle" x="54" y="-77.3" font-family="'/usr/share/fonts/truetype/wqy/wqy-microhei.ttc'" font-size="14.00">dup</text>
<polyline fill="none" stroke="black" points="0,-69.5 108,-69.5 "/>
<text text-anchor="middle" x="54" y="-54.3" font-family="'/usr/share/fonts/truetype/wqy/wqy-microhei.ttc'" font-size="14.00">free</text>
<polyline fill="none" stroke="black" points="0,-46.5 108,-46.5 "/>
<text text-anchor="middle" x="54" y="-31.3" font-family="'/usr/share/fonts/truetype/wqy/wqy-microhei.ttc'" font-size="14.00">match</text>
<polyline fill="none" stroke="black" points="0,-23.5 108,-23.5 "/>
<text text-anchor="middle" x="54" y="-8.3" font-family="'/usr/share/fonts/truetype/wqy/wqy-microhei.ttc'" font-size="14.00">len</text>
</g>
<!-- list&#45;&gt;list_node_1 -->
<g id="edge6" class="edge"><title>list:head&#45;&gt;list_node_1:head</title>
<path fill="none" stroke="black" stroke-width="2" d="M108,-127C124.991,-127 124.276,-106.927 134.35,-99.0857"/>
<polygon fill="black" stroke="black" stroke-width="2" points="135.541,-102.379 144,-96 133.409,-95.7121 135.541,-102.379"/>
</g>
<!-- list&#45;&gt;list_node_3 -->
<g id="edge5" class="edge"><title>list:tail&#45;&gt;list_node_3:head</title>
<path fill="none" stroke="black" stroke-width="2" d="M108,-104C124.865,-104 127.367,-113.209 144,-116 303.719,-142.801 348.819,-120.937 505.979,-120.029"/>
<polygon fill="black" stroke="black" stroke-width="2" points="506.01,-123.529 516,-120 505.99,-116.529 506.01,-123.529"/>
</g>
</g>
</svg>
