<svg id="Layer_1" data-name="Layer 1" xmlns="http://www.w3.org/2000/svg" width="544.94" height="360.02" viewBox="0 0 544.94 360.02"><defs><style>.cls-1{fill:#c3eefe;stroke-linejoin:bevel;stroke-width:2px;}.cls-1,.cls-2,.cls-3{stroke:#fff;}.cls-2,.cls-4{fill:none;stroke-miterlimit:10;}.cls-3{fill:#ccfbf0;}.cls-4{stroke:#0a2a66;}.cls-5{fill:#0a2a66;}</style></defs><title>IP packet</title><rect class="cls-1" x="49.62" y="21.96" width="494.82" height="188.86"/><line class="cls-2" x1="49.62" y1="178.48" x2="544.44" y2="178.48"/><line class="cls-2" x1="49.62" y1="147.01" x2="544.44" y2="147.01"/><line class="cls-2" x1="49.62" y1="116.54" x2="544.44" y2="116.54"/><line class="cls-2" x1="49.62" y1="85.07" x2="544.44" y2="85.07"/><line class="cls-2" x1="49.62" y1="53.59" x2="544.44" y2="53.59"/><line class="cls-2" x1="115.69" y1="21.96" x2="115.69" y2="53.59"/><line class="cls-2" x1="175.74" y1="21.96" x2="175.74" y2="53.59"/><line class="cls-2" x1="297.03" y1="21.96" x2="297.03" y2="115.72"/><line class="cls-2" x1="175.74" y1="85.07" x2="175.74" y2="116.54"/><line class="cls-2" x1="329.85" y1="53.59" x2="329.85" y2="85.06"/><line class="cls-2" x1="363.84" y1="53.59" x2="363.84" y2="85.06"/><line class="cls-2" x1="397.27" y1="53.59" x2="397.27" y2="85.06"/><line class="cls-2" x1="436.93" y1="178.98" x2="436.93" y2="210.82"/><path d="M69.49,33.18,65.7,42.49H64.57l-3.8-9.31h1a.46.46,0,0,1,.27.08.6.6,0,0,1,.16.22l2.62,6.57c.06.15.11.31.17.48s.1.36.14.55c0-.19.09-.38.14-.55s.1-.33.16-.48l2.62-6.57a.41.41,0,0,1,.15-.21.42.42,0,0,1,.27-.09Z"/><path d="M74.82,41.57a2.51,2.51,0,0,1-.52.45,3,3,0,0,1-.64.32,4.23,4.23,0,0,1-.7.18,4.62,4.62,0,0,1-.73.07A3.2,3.2,0,0,1,71,42.35a2.75,2.75,0,0,1-1-.67,3.24,3.24,0,0,1-.65-1.1,4.4,4.4,0,0,1-.23-1.51,3.88,3.88,0,0,1,.21-1.29,3,3,0,0,1,.6-1,2.69,2.69,0,0,1,1-.69,3.13,3.13,0,0,1,1.29-.25,3.07,3.07,0,0,1,1.1.19,2.71,2.71,0,0,1,.87.58,2.66,2.66,0,0,1,.57.92,3.49,3.49,0,0,1,.21,1.25.72.72,0,0,1-.06.36.25.25,0,0,1-.22.1h-4.4a3.82,3.82,0,0,0,.17,1.08,2.2,2.2,0,0,0,.43.77,1.65,1.65,0,0,0,.65.46,2.24,2.24,0,0,0,.84.15,2.39,2.39,0,0,0,.75-.1,4.24,4.24,0,0,0,.55-.21l.38-.22a.48.48,0,0,1,.26-.1.27.27,0,0,1,.22.11Zm-.94-3.09a2.38,2.38,0,0,0-.11-.73,1.59,1.59,0,0,0-.34-.58,1.36,1.36,0,0,0-.53-.38,1.71,1.71,0,0,0-.7-.13,1.78,1.78,0,0,0-1.32.48,2.29,2.29,0,0,0-.6,1.34Z"/><path d="M77.43,37.23a3.13,3.13,0,0,1,.77-1.06,1.7,1.7,0,0,1,1.11-.38,1.75,1.75,0,0,1,.4.05,1.16,1.16,0,0,1,.34.14l-.08.87a.19.19,0,0,1-.19.16,1,1,0,0,1-.27,0,1.64,1.64,0,0,0-.4,0,1.55,1.55,0,0,0-.55.09,1.25,1.25,0,0,0-.44.27,1.91,1.91,0,0,0-.34.44,3.32,3.32,0,0,0-.28.6v4.16H76.34V35.91H77a.37.37,0,0,1,.26.07.45.45,0,0,1,.1.25Z"/><path d="M84.86,37a.26.26,0,0,1-.24.14.55.55,0,0,1-.22-.07l-.3-.16a2.61,2.61,0,0,0-.43-.16,1.93,1.93,0,0,0-.58-.08,1.78,1.78,0,0,0-.53.08,1.25,1.25,0,0,0-.4.2,1,1,0,0,0-.25.3.82.82,0,0,0-.09.38.62.62,0,0,0,.15.42,1.2,1.2,0,0,0,.39.29,3.37,3.37,0,0,0,.54.22l.63.2q.31.1.63.24a2.08,2.08,0,0,1,.54.32,1.53,1.53,0,0,1,.39.48,1.42,1.42,0,0,1,.14.68,2.13,2.13,0,0,1-.16.84,1.88,1.88,0,0,1-.48.67,2.29,2.29,0,0,1-.78.45,3.42,3.42,0,0,1-1.06.16,3.31,3.31,0,0,1-1.25-.23,3.16,3.16,0,0,1-1-.57l.27-.44a.51.51,0,0,1,.12-.13.36.36,0,0,1,.19,0,.42.42,0,0,1,.24.09l.32.2a1.89,1.89,0,0,0,.45.2,1.83,1.83,0,0,0,.66.1,1.8,1.8,0,0,0,.6-.09,1.44,1.44,0,0,0,.42-.24,1,1,0,0,0,.25-.34,1.16,1.16,0,0,0,.08-.42.68.68,0,0,0-.15-.45,1.2,1.2,0,0,0-.38-.31,3.5,3.5,0,0,0-.55-.22l-.63-.2a5.85,5.85,0,0,1-.63-.23,2,2,0,0,1-.55-.34,1.5,1.5,0,0,1-.39-.5,1.52,1.52,0,0,1-.15-.71,1.81,1.81,0,0,1,.16-.73,1.89,1.89,0,0,1,.45-.61,2.51,2.51,0,0,1,.74-.42,3.44,3.44,0,0,1,2.16,0,2.8,2.8,0,0,1,.89.56Z"/><path d="M88.13,33.84a.83.83,0,0,1-.07.32,1.51,1.51,0,0,1-.18.26,1.27,1.27,0,0,1-.27.18.88.88,0,0,1-.64,0,1.14,1.14,0,0,1-.25-.18.87.87,0,0,1-.18-.26.83.83,0,0,1-.06-.32.87.87,0,0,1,.06-.32.8.8,0,0,1,.18-.27.85.85,0,0,1,.25-.17.77.77,0,0,1,.64,0,1,1,0,0,1,.27.17,1.27,1.27,0,0,1,.18.27A.88.88,0,0,1,88.13,33.84Zm-.25,2.07v6.58H86.72V35.91Z"/><path d="M92.55,35.81a3.35,3.35,0,0,1,1.3.24,2.66,2.66,0,0,1,1,.68,3.06,3.06,0,0,1,.63,1.07,4.37,4.37,0,0,1,.22,1.4,4.33,4.33,0,0,1-.22,1.4,3.16,3.16,0,0,1-.63,1.07,2.78,2.78,0,0,1-1,.68,3.35,3.35,0,0,1-1.3.24,3.43,3.43,0,0,1-1.31-.24,2.77,2.77,0,0,1-1.61-1.75,4.56,4.56,0,0,1,0-2.8,2.9,2.9,0,0,1,.62-1.07,2.83,2.83,0,0,1,1-.68A3.43,3.43,0,0,1,92.55,35.81Zm0,5.87A1.71,1.71,0,0,0,94,41a3,3,0,0,0,.48-1.82A3.07,3.07,0,0,0,94,37.37a1.68,1.68,0,0,0-1.46-.65,2.1,2.1,0,0,0-.86.16,1.72,1.72,0,0,0-.61.49,2.21,2.21,0,0,0-.36.79,4.1,4.1,0,0,0-.12,1.05A3,3,0,0,0,91.08,41,1.73,1.73,0,0,0,92.55,41.68Z"/><path d="M98.24,36.87a3.81,3.81,0,0,1,.46-.44,3.48,3.48,0,0,1,.51-.34,2.78,2.78,0,0,1,.57-.21,2.7,2.7,0,0,1,.65-.07,2.52,2.52,0,0,1,.95.17,1.78,1.78,0,0,1,.69.51,2.07,2.07,0,0,1,.42.79,3.31,3.31,0,0,1,.15,1v4.19h-1.17V38.3a1.76,1.76,0,0,0-.34-1.16,1.28,1.28,0,0,0-1-.41,1.85,1.85,0,0,0-1,.25,3,3,0,0,0-.83.66v4.85H97.15V35.91h.7a.28.28,0,0,1,.3.24Z"/><path d="M129.06,41.43v1.06h-5.29V33.18H125v8.25Z"/><path d="M135,41.57a2.22,2.22,0,0,1-.51.45,3,3,0,0,1-.64.32,4.23,4.23,0,0,1-.7.18,4.62,4.62,0,0,1-.73.07,3.2,3.2,0,0,1-1.25-.24,2.75,2.75,0,0,1-1-.67,3.09,3.09,0,0,1-.65-1.1,4.39,4.39,0,0,1-.24-1.51,3.88,3.88,0,0,1,.22-1.29,3,3,0,0,1,.6-1,2.69,2.69,0,0,1,1-.69,3.13,3.13,0,0,1,1.29-.25,3,3,0,0,1,1.09.19,2.51,2.51,0,0,1,.87.58,2.54,2.54,0,0,1,.58.92,3.49,3.49,0,0,1,.21,1.25.72.72,0,0,1-.06.36.25.25,0,0,1-.22.1h-4.4a3.82,3.82,0,0,0,.17,1.08,2.06,2.06,0,0,0,.43.77,1.58,1.58,0,0,0,.65.46,2.24,2.24,0,0,0,.84.15,2.39,2.39,0,0,0,.75-.1,4.24,4.24,0,0,0,.55-.21l.38-.22a.48.48,0,0,1,.26-.1.27.27,0,0,1,.22.11Zm-.93-3.09a2.38,2.38,0,0,0-.11-.73,1.59,1.59,0,0,0-.34-.58,1.36,1.36,0,0,0-.53-.38,1.71,1.71,0,0,0-.7-.13,1.78,1.78,0,0,0-1.32.48,2.29,2.29,0,0,0-.6,1.34Z"/><path d="M137.66,36.87a3.73,3.73,0,0,1,.45-.44,3.48,3.48,0,0,1,.51-.34,2.58,2.58,0,0,1,1.23-.28,2.52,2.52,0,0,1,1,.17,1.86,1.86,0,0,1,.69.51,2.38,2.38,0,0,1,.42.79,3.64,3.64,0,0,1,.14,1v4.19h-1.16V38.3a1.82,1.82,0,0,0-.34-1.16,1.3,1.3,0,0,0-1-.41,1.91,1.91,0,0,0-1,.25,3,3,0,0,0-.82.66v4.85h-1.17V35.91h.7a.29.29,0,0,1,.31.24Z"/><path d="M149.38,36.17v.43c0,.14-.1.23-.28.27l-.74.1a2.11,2.11,0,0,1,.22,1,1.92,1.92,0,0,1-.19.87,1.87,1.87,0,0,1-.51.67,2.18,2.18,0,0,1-.78.43,3.41,3.41,0,0,1-1.86,0,1.28,1.28,0,0,0-.32.28.53.53,0,0,0-.11.29.4.4,0,0,0,.2.36,1.22,1.22,0,0,0,.5.17,4.74,4.74,0,0,0,.71.07l.82,0a7.35,7.35,0,0,1,.82.1,3,3,0,0,1,.71.23,1.27,1.27,0,0,1,.7,1.19,1.74,1.74,0,0,1-.22.82,2.23,2.23,0,0,1-.6.71,3.21,3.21,0,0,1-1,.49,4.27,4.27,0,0,1-1.29.19,4.73,4.73,0,0,1-1.26-.15,2.87,2.87,0,0,1-.9-.38,1.69,1.69,0,0,1-.54-.56,1.3,1.3,0,0,1-.17-.66,1.18,1.18,0,0,1,.3-.82,2,2,0,0,1,.84-.54,1.21,1.21,0,0,1-.47-.35.94.94,0,0,1-.17-.59,1,1,0,0,1,.05-.29,1.53,1.53,0,0,1,.16-.31,1.82,1.82,0,0,1,.27-.29,1.61,1.61,0,0,1,.36-.24,2,2,0,0,1-.76-.72,2,2,0,0,1-.27-1,1.92,1.92,0,0,1,.7-1.55,2.38,2.38,0,0,1,.79-.42,3.22,3.22,0,0,1,1-.15,3.32,3.32,0,0,1,.8.09,2.94,2.94,0,0,1,.68.28Zm-1.18,6.68a.56.56,0,0,0-.14-.39.83.83,0,0,0-.36-.23,2.14,2.14,0,0,0-.54-.12,6.26,6.26,0,0,0-.65-.06l-.69,0c-.23,0-.46,0-.68-.06a1.75,1.75,0,0,0-.59.42.92.92,0,0,0-.23.6.88.88,0,0,0,.11.42.93.93,0,0,0,.35.33,2,2,0,0,0,.59.22,4,4,0,0,0,.83.08,4.13,4.13,0,0,0,.84-.08,2.3,2.3,0,0,0,.63-.24,1.27,1.27,0,0,0,.39-.37A.92.92,0,0,0,148.2,42.85Zm-2.09-3.57a1.92,1.92,0,0,0,.62-.1,1.42,1.42,0,0,0,.45-.27,1.17,1.17,0,0,0,.27-.42,1.57,1.57,0,0,0,.09-.54,1.3,1.3,0,0,0-.36-1,1.47,1.47,0,0,0-1.07-.36A1.49,1.49,0,0,0,145,37a1.3,1.3,0,0,0-.36,1,1.57,1.57,0,0,0,.09.54,1.19,1.19,0,0,0,.28.42,1.42,1.42,0,0,0,.45.27A1.85,1.85,0,0,0,146.11,39.28Z"/><path d="M152.6,42.6a1.59,1.59,0,0,1-1.2-.44,1.73,1.73,0,0,1-.42-1.25v-4h-.79a.28.28,0,0,1-.18-.06.28.28,0,0,1-.07-.2v-.46L151,36l.27-2a.26.26,0,0,1,.09-.16.24.24,0,0,1,.17-.06h.59V36H154v.84h-1.9v3.95a.87.87,0,0,0,.2.62.73.73,0,0,0,.52.2,1,1,0,0,0,.32,0,1.23,1.23,0,0,0,.23-.11l.16-.1a.19.19,0,0,1,.12,0,.2.2,0,0,1,.17.11l.33.55a2.18,2.18,0,0,1-.72.44A2.35,2.35,0,0,1,152.6,42.6Z"/><path d="M156.4,36.79a3.74,3.74,0,0,1,.94-.72,2.78,2.78,0,0,1,2.13-.09,1.78,1.78,0,0,1,.69.51,2.07,2.07,0,0,1,.42.79,3.31,3.31,0,0,1,.15,1v4.19h-1.17V38.3a1.76,1.76,0,0,0-.34-1.16,1.28,1.28,0,0,0-1-.41,1.86,1.86,0,0,0-1,.25,3,3,0,0,0-.83.66v4.85h-1.16V32.92h1.16Z"/><path d="M206.88,34.64a.44.44,0,0,1-.13.14.28.28,0,0,1-.16,0,.47.47,0,0,1-.26-.11l-.38-.24a3.44,3.44,0,0,0-.54-.25,2.39,2.39,0,0,0-.76-.11,2.19,2.19,0,0,0-.75.12,1.76,1.76,0,0,0-.54.3A1.32,1.32,0,0,0,203,35a1.38,1.38,0,0,0-.11.57,1,1,0,0,0,.19.65,1.58,1.58,0,0,0,.51.44,3.89,3.89,0,0,0,.71.31l.82.28a8.18,8.18,0,0,1,.82.32,3.06,3.06,0,0,1,.71.45,2.13,2.13,0,0,1,.51.67,2.23,2.23,0,0,1,.19,1,3.08,3.08,0,0,1-.21,1.14,2.65,2.65,0,0,1-.6.94,2.93,2.93,0,0,1-1,.62,3.58,3.58,0,0,1-1.32.23,3.93,3.93,0,0,1-2.92-1.22l.37-.6a.43.43,0,0,1,.12-.11.26.26,0,0,1,.17-.05.38.38,0,0,1,.19.06l.25.18.31.22a1.91,1.91,0,0,0,.4.23,2.35,2.35,0,0,0,.51.17,2.51,2.51,0,0,0,.64.07,2.45,2.45,0,0,0,.8-.12,1.65,1.65,0,0,0,.59-.35,1.47,1.47,0,0,0,.38-.54,1.7,1.7,0,0,0,.13-.69,1.15,1.15,0,0,0-.19-.69,1.75,1.75,0,0,0-.51-.46,3.09,3.09,0,0,0-.71-.3l-.82-.26c-.28-.09-.55-.2-.82-.31a2.48,2.48,0,0,1-.71-.46,2,2,0,0,1-.51-.7,2.7,2.7,0,0,1,0-2,2.55,2.55,0,0,1,.56-.82,2.77,2.77,0,0,1,.9-.57,3.39,3.39,0,0,1,1.24-.21,4,4,0,0,1,1.42.24,3.47,3.47,0,0,1,1.12.72Z"/><path d="M214.2,41.57a2,2,0,0,1-.52.45,3,3,0,0,1-.64.32,4,4,0,0,1-.7.18,4.39,4.39,0,0,1-.72.07,3.22,3.22,0,0,1-1.26-.24,2.71,2.71,0,0,1-1-.67,3.41,3.41,0,0,1-.65-1.1,4.65,4.65,0,0,1-.23-1.51,3.88,3.88,0,0,1,.21-1.29,2.88,2.88,0,0,1,.61-1,2.53,2.53,0,0,1,1-.69,3.11,3.11,0,0,1,1.28-.25,3,3,0,0,1,1.1.19,2.71,2.71,0,0,1,.87.58,2.66,2.66,0,0,1,.57.92,3.49,3.49,0,0,1,.21,1.25.72.72,0,0,1-.06.36.25.25,0,0,1-.22.1h-4.4a3.82,3.82,0,0,0,.17,1.08,2.38,2.38,0,0,0,.43.77,1.65,1.65,0,0,0,.65.46,2.24,2.24,0,0,0,.84.15,2.46,2.46,0,0,0,.76-.1,3.59,3.59,0,0,0,.54-.21,3.9,3.9,0,0,0,.38-.22.48.48,0,0,1,.26-.1.25.25,0,0,1,.22.11Zm-.94-3.09a2.38,2.38,0,0,0-.11-.73,1.72,1.72,0,0,0-.33-.58,1.52,1.52,0,0,0-.53-.38,2,2,0,0,0-2,.35,2.29,2.29,0,0,0-.6,1.34Z"/><path d="M216.82,37.23a3.11,3.11,0,0,1,.76-1.06,1.73,1.73,0,0,1,1.12-.38,1.83,1.83,0,0,1,.4.05,1.28,1.28,0,0,1,.34.14l-.09.87a.18.18,0,0,1-.19.16,1.16,1.16,0,0,1-.27,0,1.64,1.64,0,0,0-.4,0,1.59,1.59,0,0,0-.55.09,1.34,1.34,0,0,0-.44.27,2.23,2.23,0,0,0-.34.44,4.17,4.17,0,0,0-.28.6v4.16h-1.16V35.91h.66a.35.35,0,0,1,.26.07.45.45,0,0,1,.1.25Z"/><path d="M226.09,35.91l-2.68,6.58h-1l-2.69-6.58h.95a.35.35,0,0,1,.23.07.38.38,0,0,1,.12.17l1.67,4.24a4.19,4.19,0,0,1,.14.47c0,.15.08.3.11.45,0-.15.07-.3.11-.45s.09-.31.14-.47l1.69-4.24A.37.37,0,0,1,225,36a.34.34,0,0,1,.22-.07Z"/><path d="M228.63,33.84a.83.83,0,0,1-.07.32,1.51,1.51,0,0,1-.18.26,1.27,1.27,0,0,1-.27.18.88.88,0,0,1-.64,0,1.14,1.14,0,0,1-.25-.18.87.87,0,0,1-.18-.26.83.83,0,0,1-.06-.32.87.87,0,0,1,.06-.32.8.8,0,0,1,.18-.27.85.85,0,0,1,.25-.17.77.77,0,0,1,.64,0,1,1,0,0,1,.27.17,1.27,1.27,0,0,1,.18.27A.88.88,0,0,1,228.63,33.84Zm-.25,2.07v6.58h-1.16V35.91Z"/><path d="M234.86,37.08a.55.55,0,0,1-.1.11.24.24,0,0,1-.15,0,.43.43,0,0,1-.21-.08,2.65,2.65,0,0,0-.71-.36,2.17,2.17,0,0,0-.62-.08,2,2,0,0,0-.85.17,1.71,1.71,0,0,0-.63.5,2.22,2.22,0,0,0-.37.79,3.63,3.63,0,0,0-.13,1,3.78,3.78,0,0,0,.14,1.06,2.37,2.37,0,0,0,.38.78,1.67,1.67,0,0,0,.61.48,1.85,1.85,0,0,0,.8.17,1.94,1.94,0,0,0,.69-.1,1.89,1.89,0,0,0,.45-.23,2.94,2.94,0,0,0,.3-.22.36.36,0,0,1,.24-.1.27.27,0,0,1,.22.11l.32.42a2.32,2.32,0,0,1-.48.46,3.32,3.32,0,0,1-.59.31,2.94,2.94,0,0,1-.66.19,4,4,0,0,1-.7.06,2.91,2.91,0,0,1-1.15-.23,2.6,2.6,0,0,1-.92-.66,3.14,3.14,0,0,1-.61-1.06,4.31,4.31,0,0,1-.22-1.44,4.56,4.56,0,0,1,.2-1.36,3.24,3.24,0,0,1,.6-1.08,2.75,2.75,0,0,1,1-.7,3.21,3.21,0,0,1,1.32-.25,3.14,3.14,0,0,1,1.23.22,3.1,3.1,0,0,1,.94.63Z"/><path d="M241.71,41.57a1.84,1.84,0,0,1-.51.45,3,3,0,0,1-.64.32,4.1,4.1,0,0,1-.71.18,4.39,4.39,0,0,1-.72.07,3.29,3.29,0,0,1-1.26-.24,2.68,2.68,0,0,1-1-.67,3.09,3.09,0,0,1-.65-1.1,4.39,4.39,0,0,1-.24-1.51,3.88,3.88,0,0,1,.21-1.29,3,3,0,0,1,.61-1,2.69,2.69,0,0,1,1-.69,3.13,3.13,0,0,1,1.29-.25,3,3,0,0,1,1.09.19,2.51,2.51,0,0,1,.87.58,2.54,2.54,0,0,1,.58.92,3.49,3.49,0,0,1,.21,1.25.72.72,0,0,1-.06.36.25.25,0,0,1-.22.1h-4.4a3.82,3.82,0,0,0,.17,1.08,2.19,2.19,0,0,0,.42.77,1.72,1.72,0,0,0,.65.46,2.34,2.34,0,0,0,.85.15,2.39,2.39,0,0,0,.75-.1,3.59,3.59,0,0,0,.54-.21,3.9,3.9,0,0,0,.38-.22.48.48,0,0,1,.27-.1.27.27,0,0,1,.22.11Zm-.93-3.09a2.11,2.11,0,0,0-.12-.73,1.44,1.44,0,0,0-.33-.58,1.36,1.36,0,0,0-.53-.38,2,2,0,0,0-2,.35,2.17,2.17,0,0,0-.6,1.34Z"/><path d="M248.58,42.6a1.59,1.59,0,0,1-1.2-.44,1.73,1.73,0,0,1-.42-1.25v-4h-.79a.28.28,0,0,1-.18-.06.28.28,0,0,1-.07-.2v-.46L247,36l.27-2a.26.26,0,0,1,.09-.16.24.24,0,0,1,.18-.06h.58V36H250v.84h-1.91v3.95a.87.87,0,0,0,.2.62.73.73,0,0,0,.52.2,1,1,0,0,0,.32,0,1.23,1.23,0,0,0,.23-.11l.16-.1a.19.19,0,0,1,.12,0,.2.2,0,0,1,.17.11l.33.55a2.08,2.08,0,0,1-.72.44A2.35,2.35,0,0,1,248.58,42.6Z"/><path d="M256.9,35.91l-3.67,8.53a.8.8,0,0,1-.15.21.4.4,0,0,1-.27.07H252l1.2-2.61-2.72-6.2h1a.36.36,0,0,1,.24.07.38.38,0,0,1,.12.17l1.76,4.15a4.75,4.75,0,0,1,.18.57c.06-.2.12-.4.19-.58l1.71-4.14a.37.37,0,0,1,.13-.17.35.35,0,0,1,.21-.07Z"/><path d="M259,36.93a3.59,3.59,0,0,1,1-.83,2.54,2.54,0,0,1,1.25-.31,2.47,2.47,0,0,1,1,.22,2.21,2.21,0,0,1,.79.64,3.16,3.16,0,0,1,.5,1.06,5.3,5.3,0,0,1,.17,1.45,4.45,4.45,0,0,1-.19,1.35A3.3,3.3,0,0,1,263,41.6a2.61,2.61,0,0,1-.9.72,2.57,2.57,0,0,1-1.19.27,2.35,2.35,0,0,1-1-.21,2.49,2.49,0,0,1-.76-.57v2.91h-1.17V35.91h.7a.28.28,0,0,1,.3.24Zm.06,4a1.82,1.82,0,0,0,.69.6,2,2,0,0,0,.85.18A1.66,1.66,0,0,0,262,41a3.06,3.06,0,0,0,.5-1.87,4.49,4.49,0,0,0-.12-1.11,2.15,2.15,0,0,0-.32-.75,1.28,1.28,0,0,0-.53-.43,1.61,1.61,0,0,0-.71-.14,1.87,1.87,0,0,0-1,.26,2.81,2.81,0,0,0-.78.73Z"/><path d="M270.55,41.57A1.84,1.84,0,0,1,270,42a3,3,0,0,1-.64.32,4.1,4.1,0,0,1-.71.18,4.39,4.39,0,0,1-.72.07,3.29,3.29,0,0,1-1.26-.24,2.68,2.68,0,0,1-1-.67,3.09,3.09,0,0,1-.65-1.1,4.39,4.39,0,0,1-.24-1.51,3.88,3.88,0,0,1,.21-1.29,3,3,0,0,1,.61-1,2.69,2.69,0,0,1,1-.69,3.13,3.13,0,0,1,1.29-.25A3,3,0,0,1,269,36a2.51,2.51,0,0,1,.87.58,2.54,2.54,0,0,1,.58.92,3.49,3.49,0,0,1,.21,1.25.72.72,0,0,1-.06.36.26.26,0,0,1-.22.1H266a3.82,3.82,0,0,0,.17,1.08,2.19,2.19,0,0,0,.42.77,1.72,1.72,0,0,0,.65.46,2.34,2.34,0,0,0,.85.15,2.39,2.39,0,0,0,.75-.1,3.59,3.59,0,0,0,.54-.21,3.9,3.9,0,0,0,.38-.22A.48.48,0,0,1,270,41a.27.27,0,0,1,.22.11Zm-.93-3.09a2.11,2.11,0,0,0-.12-.73,1.44,1.44,0,0,0-.33-.58,1.36,1.36,0,0,0-.53-.38,2,2,0,0,0-2,.35,2.17,2.17,0,0,0-.6,1.34Z"/><path d="M367.78,33.18a5.43,5.43,0,0,1,1.54.2,2.88,2.88,0,0,1,1.08.59,2.25,2.25,0,0,1,.64.91,3.19,3.19,0,0,1,.21,1.19,3,3,0,0,1-.22,1.18,2.7,2.7,0,0,1-.67.93,3,3,0,0,1-1.09.61,4.5,4.5,0,0,1-1.49.22h-1.49v3.48H365V33.18Zm0,4.83a3,3,0,0,0,1-.14,2.07,2.07,0,0,0,.7-.4,1.69,1.69,0,0,0,.43-.62,2.21,2.21,0,0,0,.14-.78,1.79,1.79,0,0,0-.55-1.4,2.43,2.43,0,0,0-1.67-.5h-1.49V38Z"/><path d="M372.19,36.84a3.84,3.84,0,0,1,1.17-.79,3.75,3.75,0,0,1,1.4-.26,2.48,2.48,0,0,1,1,.18,2.13,2.13,0,0,1,.73.51,2.25,2.25,0,0,1,.44.79,3.24,3.24,0,0,1,.15,1v4.21h-.52a.5.5,0,0,1-.26-.05.42.42,0,0,1-.14-.22L376,41.6a4.71,4.71,0,0,1-.51.42,2.51,2.51,0,0,1-.52.32,3.29,3.29,0,0,1-.58.19,2.84,2.84,0,0,1-.68.07,2.36,2.36,0,0,1-.72-.11,1.6,1.6,0,0,1-.59-.32,1.56,1.56,0,0,1-.4-.54,1.87,1.87,0,0,1-.15-.78,1.48,1.48,0,0,1,.22-.75,1.87,1.87,0,0,1,.69-.64A4.57,4.57,0,0,1,374,39a9,9,0,0,1,1.9-.2v-.52a1.76,1.76,0,0,0-.33-1.16,1.22,1.22,0,0,0-1-.39,1.88,1.88,0,0,0-.72.11,2.33,2.33,0,0,0-.5.24l-.37.24a.51.51,0,0,1-.3.1.34.34,0,0,1-.2-.06.5.5,0,0,1-.14-.15Zm3.74,2.69a9.67,9.67,0,0,0-1.37.13,3.44,3.44,0,0,0-.91.26,1.38,1.38,0,0,0-.52.38.89.89,0,0,0-.15.5,1.06,1.06,0,0,0,.08.45.89.89,0,0,0,.57.48,1.54,1.54,0,0,0,.43.06,2.38,2.38,0,0,0,.56-.07,2.48,2.48,0,0,0,.48-.17,4,4,0,0,0,.43-.28c.13-.11.27-.24.4-.37Z"/><path d="M383.4,37.08a.55.55,0,0,1-.1.11.24.24,0,0,1-.15,0,.43.43,0,0,1-.21-.08,2.65,2.65,0,0,0-.71-.36,2.17,2.17,0,0,0-.62-.08,2,2,0,0,0-.85.17,1.71,1.71,0,0,0-.63.5,2.22,2.22,0,0,0-.37.79,3.63,3.63,0,0,0-.13,1,3.78,3.78,0,0,0,.14,1.06,2.37,2.37,0,0,0,.38.78,1.67,1.67,0,0,0,.61.48,1.88,1.88,0,0,0,.8.17,1.94,1.94,0,0,0,.69-.1,1.89,1.89,0,0,0,.45-.23,2.94,2.94,0,0,0,.3-.22.36.36,0,0,1,.24-.1.27.27,0,0,1,.22.11l.32.42a2.32,2.32,0,0,1-.48.46,3.32,3.32,0,0,1-.59.31,2.94,2.94,0,0,1-.66.19,4,4,0,0,1-.7.06,2.91,2.91,0,0,1-1.15-.23,2.6,2.6,0,0,1-.92-.66,3.14,3.14,0,0,1-.61-1.06,4.31,4.31,0,0,1-.22-1.44,4.56,4.56,0,0,1,.2-1.36,3.24,3.24,0,0,1,.6-1.08,2.75,2.75,0,0,1,1-.7,3.21,3.21,0,0,1,1.32-.25,3.14,3.14,0,0,1,1.23.22,3.1,3.1,0,0,1,.94.63Z"/><path d="M386.19,32.92v5.64h.3a.67.67,0,0,0,.22,0,.4.4,0,0,0,.18-.15L389,36.14a1,1,0,0,1,.19-.17.54.54,0,0,1,.27-.06h1.05l-2.43,2.58a1.52,1.52,0,0,1-.37.35,1.2,1.2,0,0,1,.21.17l.18.23,2.57,3.25h-1a.68.68,0,0,1-.26,0,.52.52,0,0,1-.18-.18L387,39.57a.53.53,0,0,0-.19-.18.71.71,0,0,0-.29,0h-.33v3.14H385V32.92Z"/><path d="M396.6,41.57a1.84,1.84,0,0,1-.51.45,3,3,0,0,1-.64.32,4.1,4.1,0,0,1-.71.18,4.39,4.39,0,0,1-.72.07,3.29,3.29,0,0,1-1.26-.24,2.68,2.68,0,0,1-1-.67,3.09,3.09,0,0,1-.65-1.1,4.39,4.39,0,0,1-.24-1.51,3.88,3.88,0,0,1,.21-1.29,3,3,0,0,1,.61-1,2.69,2.69,0,0,1,1-.69,3.13,3.13,0,0,1,1.29-.25,3,3,0,0,1,1.09.19,2.51,2.51,0,0,1,.87.58,2.54,2.54,0,0,1,.58.92,3.49,3.49,0,0,1,.21,1.25.72.72,0,0,1-.06.36.26.26,0,0,1-.22.1H392a3.82,3.82,0,0,0,.17,1.08,2.19,2.19,0,0,0,.42.77,1.68,1.68,0,0,0,.66.46,2.24,2.24,0,0,0,.84.15,2.39,2.39,0,0,0,.75-.1,3.59,3.59,0,0,0,.54-.21,3.9,3.9,0,0,0,.38-.22.48.48,0,0,1,.27-.1.27.27,0,0,1,.22.11Zm-.93-3.09a2.11,2.11,0,0,0-.12-.73,1.44,1.44,0,0,0-.33-.58,1.36,1.36,0,0,0-.53-.38,2,2,0,0,0-2,.35,2.17,2.17,0,0,0-.6,1.34Z"/><path d="M400.1,42.6a1.59,1.59,0,0,1-1.2-.44,1.73,1.73,0,0,1-.42-1.25v-4h-.79a.28.28,0,0,1-.18-.06.28.28,0,0,1-.07-.2v-.46l1.08-.13.27-2a.3.3,0,0,1,.08-.16.28.28,0,0,1,.18-.06h.59V36h1.9v.84h-1.9v3.95a.87.87,0,0,0,.2.62.72.72,0,0,0,.52.2,1,1,0,0,0,.32,0l.23-.11.16-.1a.19.19,0,0,1,.12,0,.2.2,0,0,1,.17.11l.33.55a2.18,2.18,0,0,1-.72.44A2.35,2.35,0,0,1,400.1,42.6Z"/><path d="M411.62,41.43v1.06h-5.28V33.18h1.26v8.25Z"/><path d="M417.61,41.57a1.84,1.84,0,0,1-.51.45,3.19,3.19,0,0,1-.64.32,4.35,4.35,0,0,1-.71.18,4.39,4.39,0,0,1-.72.07,3.25,3.25,0,0,1-1.26-.24,2.68,2.68,0,0,1-1-.67,3.26,3.26,0,0,1-.66-1.1,4.65,4.65,0,0,1-.23-1.51,3.88,3.88,0,0,1,.21-1.29,2.88,2.88,0,0,1,.61-1,2.61,2.61,0,0,1,1-.69,3.11,3.11,0,0,1,1.28-.25,3,3,0,0,1,1.1.19,2.51,2.51,0,0,1,.87.58,2.54,2.54,0,0,1,.58.92,3.72,3.72,0,0,1,.2,1.25.91.91,0,0,1,0,.36.26.26,0,0,1-.22.1H413a4.19,4.19,0,0,0,.18,1.08,2.19,2.19,0,0,0,.42.77,1.65,1.65,0,0,0,.65.46,2.3,2.3,0,0,0,.85.15,2.39,2.39,0,0,0,.75-.1,3.59,3.59,0,0,0,.54-.21,3.9,3.9,0,0,0,.38-.22.48.48,0,0,1,.26-.1.25.25,0,0,1,.22.11Zm-.94-3.09a2.11,2.11,0,0,0-.11-.73,1.72,1.72,0,0,0-.33-.58,1.44,1.44,0,0,0-.53-.38,2,2,0,0,0-2,.35,2.24,2.24,0,0,0-.61,1.34Z"/><path d="M420.22,36.87a4.73,4.73,0,0,1,.46-.44,3.48,3.48,0,0,1,.51-.34,2.78,2.78,0,0,1,.57-.21,2.7,2.7,0,0,1,.65-.07,2.61,2.61,0,0,1,1,.17,1.82,1.82,0,0,1,.68.51,2.07,2.07,0,0,1,.42.79,3.31,3.31,0,0,1,.15,1v4.19h-1.17V38.3a1.76,1.76,0,0,0-.34-1.16,1.28,1.28,0,0,0-1-.41,1.86,1.86,0,0,0-1,.25,3,3,0,0,0-.83.67v4.84h-1.16V35.91h.7a.28.28,0,0,1,.3.24Z"/><path d="M431.94,36.17v.43q0,.21-.27.27l-.75.1a2,2,0,0,1,.22,1,2.05,2.05,0,0,1-.18.87,2.13,2.13,0,0,1-.51.68,2.43,2.43,0,0,1-.78.42,3.21,3.21,0,0,1-1,.15,3.05,3.05,0,0,1-.87-.11,1.13,1.13,0,0,0-.32.28.53.53,0,0,0-.11.29.39.39,0,0,0,.19.36,1.33,1.33,0,0,0,.51.17,4.6,4.6,0,0,0,.71.07l.82,0a7.35,7.35,0,0,1,.82.1,3,3,0,0,1,.71.23,1.36,1.36,0,0,1,.5.45,1.29,1.29,0,0,1,.19.74,1.72,1.72,0,0,1-.21.82,2.14,2.14,0,0,1-.61.71,3,3,0,0,1-1,.49,4.27,4.27,0,0,1-1.29.19,4.76,4.76,0,0,1-1.27-.15,2.81,2.81,0,0,1-.89-.38,1.6,1.6,0,0,1-.54-.56,1.31,1.31,0,0,1-.18-.66,1.15,1.15,0,0,1,.31-.82,2,2,0,0,1,.84-.54,1.21,1.21,0,0,1-.47-.35.94.94,0,0,1-.17-.59,1,1,0,0,1,.05-.29,1.53,1.53,0,0,1,.16-.31,1.75,1.75,0,0,1,.26-.29,2,2,0,0,1,.37-.24,2,2,0,0,1-.76-.72,2,2,0,0,1-.28-1,2.14,2.14,0,0,1,.19-.88,2,2,0,0,1,.52-.67,2.38,2.38,0,0,1,.79-.42,3.18,3.18,0,0,1,1-.15,3.38,3.38,0,0,1,.8.09,2.94,2.94,0,0,1,.68.28Zm-1.17,6.68a.56.56,0,0,0-.14-.39.81.81,0,0,0-.37-.23,2,2,0,0,0-.53-.12c-.21,0-.42,0-.65-.06l-.69,0c-.24,0-.46,0-.68-.06a1.75,1.75,0,0,0-.59.42.88.88,0,0,0-.23.61.77.77,0,0,0,.11.41.93.93,0,0,0,.35.33,1.92,1.92,0,0,0,.59.22,3.38,3.38,0,0,0,.83.08,4.28,4.28,0,0,0,.84-.08,2.3,2.3,0,0,0,.63-.24,1.27,1.27,0,0,0,.39-.37A.92.92,0,0,0,430.77,42.85Zm-2.09-3.57a2,2,0,0,0,.62-.1,1.68,1.68,0,0,0,.45-.27,1.17,1.17,0,0,0,.27-.42,1.57,1.57,0,0,0,.09-.54,1.27,1.27,0,0,0-.37-1,1.45,1.45,0,0,0-1.06-.36,1.47,1.47,0,0,0-1.07.36,1.27,1.27,0,0,0-.37,1,1.57,1.57,0,0,0,.1.54,1.17,1.17,0,0,0,.27.42,1.54,1.54,0,0,0,.45.27A1.92,1.92,0,0,0,428.68,39.28Z"/><path d="M435.17,42.6a1.59,1.59,0,0,1-1.2-.44,1.73,1.73,0,0,1-.42-1.25v-4h-.79a.28.28,0,0,1-.18-.06.24.24,0,0,1-.07-.2v-.46l1.08-.13.26-2a.42.42,0,0,1,.09-.16.28.28,0,0,1,.18-.06h.58V36h1.91v.84H434.7v3.95a.83.83,0,0,0,.21.62.7.7,0,0,0,.52.2,1,1,0,0,0,.31,0,1,1,0,0,0,.23-.11l.17-.1a.16.16,0,0,1,.12,0,.19.19,0,0,1,.16.11l.34.55a2.18,2.18,0,0,1-.72.44A2.35,2.35,0,0,1,435.17,42.6Z"/><path d="M439,36.79a3.42,3.42,0,0,1,.94-.72,2.47,2.47,0,0,1,1.18-.26,2.52,2.52,0,0,1,1,.17,1.78,1.78,0,0,1,.69.51,2.38,2.38,0,0,1,.42.79,3.64,3.64,0,0,1,.14,1v4.19h-1.16V38.3a1.76,1.76,0,0,0-.34-1.16,1.3,1.3,0,0,0-1-.41,1.91,1.91,0,0,0-1,.25,3,3,0,0,0-.82.67v4.84h-1.16V32.92H439Z"/><path d="M126.07,74.11h-1.26V64.8h1.26Z"/><path d="M133.43,64.54v9.57h-.69a.29.29,0,0,1-.31-.24l-.11-.8a3.38,3.38,0,0,1-1,.82,2.45,2.45,0,0,1-1.25.32,2.42,2.42,0,0,1-1-.22,2.21,2.21,0,0,1-.79-.64,3.1,3.1,0,0,1-.5-1,5.4,5.4,0,0,1-.18-1.46,4.54,4.54,0,0,1,.2-1.35,3.22,3.22,0,0,1,.56-1.09,2.49,2.49,0,0,1,.89-.72,2.57,2.57,0,0,1,1.19-.27,2.35,2.35,0,0,1,1,.21,2.24,2.24,0,0,1,.77.57V64.54Zm-1.16,4.56a1.87,1.87,0,0,0-.7-.61,1.93,1.93,0,0,0-.85-.17,1.68,1.68,0,0,0-1.41.65,3.08,3.08,0,0,0-.49,1.87,5.08,5.08,0,0,0,.11,1.11,2.15,2.15,0,0,0,.32.75,1.28,1.28,0,0,0,.53.43,1.8,1.8,0,0,0,.71.14,1.93,1.93,0,0,0,1-.26,3,3,0,0,0,.78-.73Z"/><path d="M140.6,73.19a1.84,1.84,0,0,1-.51.45,3,3,0,0,1-.64.32,4.1,4.1,0,0,1-.71.18,4.39,4.39,0,0,1-.72.07,3.29,3.29,0,0,1-1.26-.24,2.68,2.68,0,0,1-1-.67,3.09,3.09,0,0,1-.65-1.1,4.39,4.39,0,0,1-.24-1.51,3.88,3.88,0,0,1,.21-1.29,3,3,0,0,1,.61-1,2.69,2.69,0,0,1,1-.69,3.13,3.13,0,0,1,1.29-.25,3,3,0,0,1,1.09.19,2.51,2.51,0,0,1,.87.58,2.54,2.54,0,0,1,.58.92,3.49,3.49,0,0,1,.21,1.25.72.72,0,0,1-.06.36.23.23,0,0,1-.22.1H136a3.82,3.82,0,0,0,.17,1.08,2.1,2.1,0,0,0,.42.77,1.68,1.68,0,0,0,.66.46,2.24,2.24,0,0,0,.84.16,2.37,2.37,0,0,0,.75-.11,3.59,3.59,0,0,0,.54-.21,3,3,0,0,0,.38-.22.5.5,0,0,1,.27-.1.27.27,0,0,1,.22.11Zm-.93-3.09a2.15,2.15,0,0,0-.12-.73,1.44,1.44,0,0,0-.33-.58,1.47,1.47,0,0,0-.53-.38,2,2,0,0,0-2,.35,2.2,2.2,0,0,0-.6,1.34Z"/><path d="M143.22,68.49a3.73,3.73,0,0,1,.45-.44,3.48,3.48,0,0,1,.51-.34,2.78,2.78,0,0,1,.57-.21,2.73,2.73,0,0,1,.66-.07,2.55,2.55,0,0,1,1,.17,1.94,1.94,0,0,1,.69.51,2.38,2.38,0,0,1,.42.79,3.64,3.64,0,0,1,.14,1v4.19h-1.16V69.92a1.82,1.82,0,0,0-.34-1.16,1.3,1.3,0,0,0-1-.41,1.91,1.91,0,0,0-1,.25,2.85,2.85,0,0,0-.82.67v4.84h-1.17V67.53h.7a.29.29,0,0,1,.31.24Z"/><path d="M155.4,74.11h-1.16V68.5h-3.39v4a.83.83,0,0,0,.2.62.72.72,0,0,0,.52.2.91.91,0,0,0,.31,0,1,1,0,0,0,.23-.11l.17-.1a.19.19,0,0,1,.12-.05.18.18,0,0,1,.16.11l.34.55a2.18,2.18,0,0,1-.72.44,2.35,2.35,0,0,1-.87.16,1.59,1.59,0,0,1-1.2-.44,1.73,1.73,0,0,1-.42-1.25v-4h-.79a.28.28,0,0,1-.18-.06.24.24,0,0,1-.07-.19v-.47l1.08-.14.27-2a.3.3,0,0,1,.08-.16.28.28,0,0,1,.18-.06h.59v2.27h4.55Zm.28-8.69a.83.83,0,0,1-.25.57,1,1,0,0,1-.26.18.87.87,0,0,1-.32.06.78.78,0,0,1-.31-.06.88.88,0,0,1-.44-.44.81.81,0,0,1-.06-.31.83.83,0,0,1,.06-.32,1.06,1.06,0,0,1,.18-.27.68.68,0,0,1,.26-.18.78.78,0,0,1,.31-.06.87.87,0,0,1,.32.06.68.68,0,0,1,.26.18.71.71,0,0,1,.18.27A.68.68,0,0,1,155.68,65.42Z"/><path d="M157.74,74.11V68.52l-.73-.09a.49.49,0,0,1-.23-.1.25.25,0,0,1-.08-.2v-.47h1V67.3a3,3,0,0,1,.19-1.11,2.21,2.21,0,0,1,.56-.87,2.75,2.75,0,0,1,.94-.57,4,4,0,0,1,1.3-.2,2.92,2.92,0,0,1,.51,0,2.55,2.55,0,0,1,.45.09l-.05.61a.11.11,0,0,1,0,.09.16.16,0,0,1-.11,0,.54.54,0,0,1-.18,0h-.24a2.44,2.44,0,0,0-1.68.48,1.85,1.85,0,0,0-.52,1.44v.33h4v6.45h-1.16V68.5h-2.79v5.61Z"/><path d="M169.32,68.7l-.1.11a.24.24,0,0,1-.15,0,.43.43,0,0,1-.21-.08,2.45,2.45,0,0,0-.29-.18,2,2,0,0,0-.42-.18,2.17,2.17,0,0,0-.62-.08,2.13,2.13,0,0,0-.86.17,1.76,1.76,0,0,0-.62.5,2.31,2.31,0,0,0-.37.79,3.63,3.63,0,0,0-.13,1,3.78,3.78,0,0,0,.14,1.06,2.37,2.37,0,0,0,.38.78,1.67,1.67,0,0,0,.61.48,1.83,1.83,0,0,0,.79.17,2,2,0,0,0,.7-.1,1.89,1.89,0,0,0,.45-.23,2.94,2.94,0,0,0,.3-.22.36.36,0,0,1,.24-.1.27.27,0,0,1,.22.11l.32.42a2.32,2.32,0,0,1-.48.46,3.32,3.32,0,0,1-.59.31,2.94,2.94,0,0,1-.66.19,4.14,4.14,0,0,1-.7.06,2.88,2.88,0,0,1-1.15-.23,2.6,2.6,0,0,1-.92-.66,3,3,0,0,1-.61-1.06,4.27,4.27,0,0,1-.22-1.44,4.56,4.56,0,0,1,.2-1.36,3.34,3.34,0,0,1,.6-1.08,2.66,2.66,0,0,1,1-.7,3.58,3.58,0,0,1,2.55,0,3.1,3.1,0,0,1,.94.63Z"/><path d="M170.78,68.46a3.84,3.84,0,0,1,1.17-.79,3.71,3.71,0,0,1,1.4-.26,2.48,2.48,0,0,1,1,.18,2.07,2.07,0,0,1,1.17,1.3,3.24,3.24,0,0,1,.15,1v4.21h-.52a.48.48,0,0,1-.26,0,.37.37,0,0,1-.14-.22l-.13-.62a4.71,4.71,0,0,1-.51.42,2.8,2.8,0,0,1-.52.32,3.29,3.29,0,0,1-.58.19,2.93,2.93,0,0,1-.69.07,2.46,2.46,0,0,1-.72-.11,1.77,1.77,0,0,1-.59-.32,1.45,1.45,0,0,1-.39-.54,1.87,1.87,0,0,1-.15-.78,1.39,1.39,0,0,1,.22-.75,1.87,1.87,0,0,1,.69-.64,4.45,4.45,0,0,1,1.26-.46,8.9,8.9,0,0,1,1.89-.2V69.9a1.76,1.76,0,0,0-.33-1.16,1.19,1.19,0,0,0-1-.39,1.86,1.86,0,0,0-.71.11,2.69,2.69,0,0,0-.51.24l-.36.24a.53.53,0,0,1-.3.11.32.32,0,0,1-.2-.07.54.54,0,0,1-.15-.15Zm3.73,2.69a9.67,9.67,0,0,0-1.36.13,3.44,3.44,0,0,0-.91.26,1.38,1.38,0,0,0-.52.38.9.9,0,0,0-.16.5,1.06,1.06,0,0,0,.09.45.76.76,0,0,0,.23.3.86.86,0,0,0,.34.18,1.54,1.54,0,0,0,.43.06,2,2,0,0,0,.56-.07,2.48,2.48,0,0,0,.48-.17,3.83,3.83,0,0,0,.42-.28,4.61,4.61,0,0,0,.4-.37Z"/><path d="M183.43,74.11h-1.16V68.5h-3.39v4a.87.87,0,0,0,.2.62.73.73,0,0,0,.52.2,1,1,0,0,0,.32,0,1.23,1.23,0,0,0,.23-.11l.17-.1a.16.16,0,0,1,.12-.05.19.19,0,0,1,.16.11l.34.55a2.13,2.13,0,0,1-.73.44,2.35,2.35,0,0,1-.87.16,1.59,1.59,0,0,1-1.2-.44,1.73,1.73,0,0,1-.42-1.25v-4h-.79a.24.24,0,0,1-.17-.06.24.24,0,0,1-.08-.19v-.47l1.08-.14.27-2a.26.26,0,0,1,.09-.16.24.24,0,0,1,.18-.06h.58v2.27h4.55Zm.29-8.69a.82.82,0,0,1-.07.31,1,1,0,0,1-.18.26,1.27,1.27,0,0,1-.27.18.81.81,0,0,1-.31.06.83.83,0,0,1-.32-.06,1.2,1.2,0,0,1-.26-.18.78.78,0,0,1-.17-.26.67.67,0,0,1-.07-.31.68.68,0,0,1,.07-.32.83.83,0,0,1,.17-.27.76.76,0,0,1,.26-.18.83.83,0,0,1,.32-.06.81.81,0,0,1,.31.06.8.8,0,0,1,.27.18,1.06,1.06,0,0,1,.18.27A.83.83,0,0,1,183.72,65.42Z"/><path d="M188.11,67.43a3.38,3.38,0,0,1,1.3.24,2.7,2.7,0,0,1,1,.68,2.79,2.79,0,0,1,.63,1.07,4.56,4.56,0,0,1,0,2.8,2.86,2.86,0,0,1-.63,1.07,2.83,2.83,0,0,1-1,.68,3.67,3.67,0,0,1-2.61,0,2.91,2.91,0,0,1-1-.68,3,3,0,0,1-.62-1.07,4.56,4.56,0,0,1,0-2.8,2.9,2.9,0,0,1,.62-1.07,2.78,2.78,0,0,1,1-.68A3.36,3.36,0,0,1,188.11,67.43Zm0,5.87a1.69,1.69,0,0,0,1.45-.65,3,3,0,0,0,.48-1.82,3.07,3.07,0,0,0-.48-1.84,1.66,1.66,0,0,0-1.45-.65,2.14,2.14,0,0,0-.87.16,1.81,1.81,0,0,0-.61.49,2.3,2.3,0,0,0-.36.79,4.21,4.21,0,0,0-.12,1,3,3,0,0,0,.48,1.82A1.75,1.75,0,0,0,188.11,73.3Z"/><path d="M193.79,68.49a4.73,4.73,0,0,1,.46-.44,3.48,3.48,0,0,1,.51-.34,2.78,2.78,0,0,1,.57-.21,2.7,2.7,0,0,1,.65-.07,2.61,2.61,0,0,1,1,.17,1.82,1.82,0,0,1,.68.51,2.07,2.07,0,0,1,.42.79,3.31,3.31,0,0,1,.15,1v4.19H197V69.92a1.76,1.76,0,0,0-.34-1.16,1.28,1.28,0,0,0-1-.41,1.86,1.86,0,0,0-1,.25,2.88,2.88,0,0,0-.83.67v4.84H192.7V67.53h.7a.28.28,0,0,1,.3.24Z"/><path d="M349.11,69.46a5.32,5.32,0,0,1-.33,1.91,4.17,4.17,0,0,1-2.39,2.41,5.1,5.1,0,0,1-1.87.33H341V64.8h3.48a5.1,5.1,0,0,1,1.87.33,4.13,4.13,0,0,1,2.39,2.43A5.23,5.23,0,0,1,349.11,69.46Zm-1.29,0a4.55,4.55,0,0,0-.24-1.53,3.1,3.1,0,0,0-.66-1.15,2.72,2.72,0,0,0-1-.71,3.51,3.51,0,0,0-1.36-.25H342.3v7.27h2.22a3.7,3.7,0,0,0,1.36-.24,2.74,2.74,0,0,0,1-.72,2.91,2.91,0,0,0,.66-1.14A4.55,4.55,0,0,0,347.82,69.46Z"/><path d="M352.19,65.83v3.25H356v1h-3.83v4h-1.26V64.8h5.73v1Z"/><path d="M382.11,64.8v9.31H381V67.27c0-.09,0-.19,0-.29l0-.32-3.2,5.82a.48.48,0,0,1-.46.3h-.18a.48.48,0,0,1-.45-.3l-3.27-5.85a5,5,0,0,1,0,.64v6.84h-1.1V64.8h.93a.88.88,0,0,1,.26,0,.37.37,0,0,1,.17.18L377,70.75l.15.32c.05.12.1.23.14.35a3.65,3.65,0,0,1,.14-.35q.07-.18.15-.33L380.74,65c.06-.09.11-.16.18-.18a.88.88,0,0,1,.26,0Z"/><path d="M385.75,65.83v3.25h3.83v1h-3.83v4h-1.26V64.8h5.74v1Z"/><path d="M426.35,65.83v3.25h3.83v1h-3.83v4h-1.26V64.8h5.74v1Z"/><path d="M432.7,68.85a3.13,3.13,0,0,1,.77-1.06,1.7,1.7,0,0,1,1.11-.38,1.75,1.75,0,0,1,.4,0,1.16,1.16,0,0,1,.34.14l-.08.87a.19.19,0,0,1-.2.16,1,1,0,0,1-.26,0,1.64,1.64,0,0,0-.4,0,1.55,1.55,0,0,0-.55.09,1.25,1.25,0,0,0-.44.27,1.91,1.91,0,0,0-.34.44,3.32,3.32,0,0,0-.28.6v4.16h-1.16V67.53h.66a.37.37,0,0,1,.26.07.45.45,0,0,1,.1.25Z"/><path d="M436.07,68.46a3.84,3.84,0,0,1,1.17-.79,3.71,3.71,0,0,1,1.4-.26,2.52,2.52,0,0,1,1,.18,2.13,2.13,0,0,1,.72.51,2,2,0,0,1,.44.79,3.24,3.24,0,0,1,.15,1v4.21h-.51a.48.48,0,0,1-.26,0,.37.37,0,0,1-.14-.22l-.13-.62a5.93,5.93,0,0,1-.51.42,2.8,2.8,0,0,1-.52.32,3.58,3.58,0,0,1-.58.19,3,3,0,0,1-.69.07,2.46,2.46,0,0,1-.72-.11,1.77,1.77,0,0,1-.59-.32,1.45,1.45,0,0,1-.39-.54,1.87,1.87,0,0,1-.15-.78,1.47,1.47,0,0,1,.21-.75,2,2,0,0,1,.7-.64,4.49,4.49,0,0,1,1.25-.46,9.07,9.07,0,0,1,1.9-.2V69.9a1.76,1.76,0,0,0-.33-1.16,1.19,1.19,0,0,0-1-.39,2,2,0,0,0-.72.11,2.9,2.9,0,0,0-.5.24l-.36.24a.53.53,0,0,1-.3.11.32.32,0,0,1-.2-.07.54.54,0,0,1-.15-.15Zm3.73,2.69a9.67,9.67,0,0,0-1.36.13,3.44,3.44,0,0,0-.91.26,1.38,1.38,0,0,0-.52.38.83.83,0,0,0-.16.5,1.06,1.06,0,0,0,.09.45.76.76,0,0,0,.23.3.8.8,0,0,0,.34.18,1.49,1.49,0,0,0,.43.06,2,2,0,0,0,.56-.07,2.38,2.38,0,0,0,.47-.17,3.18,3.18,0,0,0,.43-.28,4.61,4.61,0,0,0,.4-.37Z"/><path d="M448.25,67.79v.43q0,.21-.27.27l-.75.1a2,2,0,0,1,.22,1,2.05,2.05,0,0,1-.18.87,2.29,2.29,0,0,1-.51.68,2.25,2.25,0,0,1-.78.42,3.21,3.21,0,0,1-1,.15,3.05,3.05,0,0,1-.87-.11,1.13,1.13,0,0,0-.32.28.53.53,0,0,0-.11.3.39.39,0,0,0,.19.35,1.34,1.34,0,0,0,.5.17,4.88,4.88,0,0,0,.72.07l.82,0a7.17,7.17,0,0,1,.81.1,2.9,2.9,0,0,1,.72.23,1.44,1.44,0,0,1,.5.45,1.29,1.29,0,0,1,.19.74,1.7,1.7,0,0,1-.21.82,2.14,2.14,0,0,1-.61.71,3.15,3.15,0,0,1-1,.49,4.34,4.34,0,0,1-1.3.19,4.73,4.73,0,0,1-1.26-.15,2.71,2.71,0,0,1-.89-.38,1.6,1.6,0,0,1-.54-.56,1.3,1.3,0,0,1-.18-.65,1.16,1.16,0,0,1,.31-.83,2,2,0,0,1,.83-.54,1.25,1.25,0,0,1-.46-.35.94.94,0,0,1-.17-.59,1,1,0,0,1,.05-.29,1.53,1.53,0,0,1,.16-.31,1.75,1.75,0,0,1,.26-.29,2,2,0,0,1,.37-.24,2,2,0,0,1-.76-.72,1.92,1.92,0,0,1-.28-1,2,2,0,0,1,.19-.88,1.84,1.84,0,0,1,.51-.66,2.42,2.42,0,0,1,.79-.43,3.24,3.24,0,0,1,1-.15,3.38,3.38,0,0,1,.8.09,2.7,2.7,0,0,1,.67.28Zm-1.17,6.68a.56.56,0,0,0-.14-.39.81.81,0,0,0-.37-.23,2,2,0,0,0-.53-.12c-.21,0-.42,0-.65-.06l-.69,0c-.24,0-.46,0-.68-.06a1.75,1.75,0,0,0-.59.42.89.89,0,0,0-.24.61.78.78,0,0,0,.12.41.86.86,0,0,0,.35.33,2,2,0,0,0,.58.22,3.52,3.52,0,0,0,.84.08,4.28,4.28,0,0,0,.84-.08,2.44,2.44,0,0,0,.63-.24,1.27,1.27,0,0,0,.39-.37A.9.9,0,0,0,447.08,74.47ZM445,70.9a2,2,0,0,0,.62-.1,1.68,1.68,0,0,0,.45-.27,1.17,1.17,0,0,0,.27-.42,1.57,1.57,0,0,0,.09-.54,1.27,1.27,0,0,0-.37-1,1.76,1.76,0,0,0-2.13,0,1.27,1.27,0,0,0-.37,1,1.37,1.37,0,0,0,.1.54,1.17,1.17,0,0,0,.27.42,1.42,1.42,0,0,0,.45.27A1.92,1.92,0,0,0,445,70.9Z"/><path d="M449.45,74.11V67.53h.7a.29.29,0,0,1,.31.24l.08.68a3.36,3.36,0,0,1,.82-.74,1.92,1.92,0,0,1,1.05-.28,1.54,1.54,0,0,1,1.08.37,2.07,2.07,0,0,1,.59,1,2.22,2.22,0,0,1,.37-.62,2.24,2.24,0,0,1,.5-.43,2.63,2.63,0,0,1,.6-.25,2.73,2.73,0,0,1,.64-.07,2.49,2.49,0,0,1,.93.16,1.68,1.68,0,0,1,.68.49,2.12,2.12,0,0,1,.44.78,3.43,3.43,0,0,1,.15,1.06v4.19h-1.17V69.92a1.76,1.76,0,0,0-.34-1.17,1.18,1.18,0,0,0-1-.4,1.4,1.4,0,0,0-.54.1,1.37,1.37,0,0,0-.45.3,1.18,1.18,0,0,0-.31.49,1.76,1.76,0,0,0-.12.68v4.19h-1.16V69.92a1.85,1.85,0,0,0-.32-1.18,1.12,1.12,0,0,0-.93-.39,1.48,1.48,0,0,0-.79.23,2.47,2.47,0,0,0-.67.63v4.9Z"/><path d="M465.49,73.19a1.84,1.84,0,0,1-.51.45,3.19,3.19,0,0,1-.64.32,4.35,4.35,0,0,1-.71.18,4.39,4.39,0,0,1-.72.07,3.25,3.25,0,0,1-1.26-.24,2.68,2.68,0,0,1-1-.67,3.26,3.26,0,0,1-.66-1.1,4.65,4.65,0,0,1-.23-1.51A3.88,3.88,0,0,1,460,69.4a2.88,2.88,0,0,1,.61-1,2.61,2.61,0,0,1,1-.69,3.13,3.13,0,0,1,1.29-.25,3,3,0,0,1,1.09.19,2.51,2.51,0,0,1,.87.58,2.54,2.54,0,0,1,.58.92,3.49,3.49,0,0,1,.2,1.25.91.91,0,0,1,0,.36.24.24,0,0,1-.22.1h-4.41a3.81,3.81,0,0,0,.18,1.08,2.1,2.1,0,0,0,.42.77,1.65,1.65,0,0,0,.65.46,2.3,2.3,0,0,0,.85.16,2.37,2.37,0,0,0,.75-.11,3.59,3.59,0,0,0,.54-.21,3.9,3.9,0,0,0,.38-.22.48.48,0,0,1,.26-.1.28.28,0,0,1,.23.11Zm-.94-3.09a2.15,2.15,0,0,0-.11-.73,1.72,1.72,0,0,0-.33-.58,1.56,1.56,0,0,0-.53-.38,2,2,0,0,0-2,.35A2.26,2.26,0,0,0,461,70.1Z"/><path d="M468.1,68.49a4.73,4.73,0,0,1,.46-.44,3.48,3.48,0,0,1,.51-.34,2.78,2.78,0,0,1,.57-.21,2.7,2.7,0,0,1,.65-.07,2.61,2.61,0,0,1,1,.17,1.82,1.82,0,0,1,.68.51,2.07,2.07,0,0,1,.42.79,3.31,3.31,0,0,1,.15,1v4.19h-1.17V69.92a1.76,1.76,0,0,0-.34-1.16,1.28,1.28,0,0,0-1-.41,1.86,1.86,0,0,0-1,.25,3,3,0,0,0-.83.67v4.84H467V67.53h.7a.28.28,0,0,1,.3.24Z"/><path d="M476.2,74.22a1.59,1.59,0,0,1-1.2-.44,1.73,1.73,0,0,1-.42-1.25v-4h-.8a.25.25,0,0,1-.17-.06.24.24,0,0,1-.07-.19v-.47l1.08-.13.26-2a.32.32,0,0,1,.09-.16.26.26,0,0,1,.18-.06h.58v2.27h1.91v.84h-1.91v4a.83.83,0,0,0,.21.62.7.7,0,0,0,.52.2,1,1,0,0,0,.31,0,1,1,0,0,0,.23-.11l.17-.1a.16.16,0,0,1,.12-.05.19.19,0,0,1,.16.11l.34.55a2.18,2.18,0,0,1-.72.44A2.43,2.43,0,0,1,476.2,74.22Z"/><path d="M491,69.46a5.37,5.37,0,0,1-.33,1.92,4.33,4.33,0,0,1-.94,1.51,4.06,4.06,0,0,1-1.45,1,4.72,4.72,0,0,1-1.87.35,4.77,4.77,0,0,1-1.88-.35,4.25,4.25,0,0,1-1.45-1,4.46,4.46,0,0,1-.93-1.51,5.75,5.75,0,0,1,0-3.84,4.46,4.46,0,0,1,.93-1.51,4.27,4.27,0,0,1,1.45-1,4.77,4.77,0,0,1,1.88-.35,4.72,4.72,0,0,1,1.87.35,4.09,4.09,0,0,1,1.45,1,4.33,4.33,0,0,1,.94,1.51A5.37,5.37,0,0,1,491,69.46Zm-1.29,0a4.65,4.65,0,0,0-.24-1.54,3,3,0,0,0-.66-1.15,2.76,2.76,0,0,0-1-.73,3.82,3.82,0,0,0-2.72,0,2.88,2.88,0,0,0-1,.73,3.16,3.16,0,0,0-.66,1.15,5.06,5.06,0,0,0,0,3.08,3.33,3.33,0,0,0,.66,1.15,3,3,0,0,0,1,.72,3.82,3.82,0,0,0,2.72,0,2.86,2.86,0,0,0,1-.72,3.18,3.18,0,0,0,.66-1.15A4.61,4.61,0,0,0,489.75,69.46Z"/><path d="M493,74.11V68.52l-.73-.09a.54.54,0,0,1-.23-.1.25.25,0,0,1-.08-.2v-.47h1v-.54a2.8,2.8,0,0,1,.16-1,1.84,1.84,0,0,1,.45-.74,1.78,1.78,0,0,1,.71-.46,2.54,2.54,0,0,1,.94-.16,2.37,2.37,0,0,1,.81.13l0,.59a.15.15,0,0,1-.17.16l-.42,0a1.93,1.93,0,0,0-.55.07,1.12,1.12,0,0,0-.42.25,1.32,1.32,0,0,0-.27.47,2.41,2.41,0,0,0-.09.71v.5h3V67a2.8,2.8,0,0,1,.16-1,2.1,2.1,0,0,1,.45-.74,1.82,1.82,0,0,1,.72-.46,2.49,2.49,0,0,1,.93-.16,2.64,2.64,0,0,1,.81.13l0,.58a.18.18,0,0,1-.17.17h-.43a1.8,1.8,0,0,0-.54.08,1.12,1.12,0,0,0-.42.25,1.14,1.14,0,0,0-.27.47,2.33,2.33,0,0,0-.09.7v.68h1.89v.84H498.2v5.61H497V68.5h-2.93v5.61Z"/><path d="M505,68.62a.26.26,0,0,1-.24.14.55.55,0,0,1-.22-.07l-.3-.16a2.61,2.61,0,0,0-.43-.16,2,2,0,0,0-.58-.08,1.74,1.74,0,0,0-.53.08,1.25,1.25,0,0,0-.4.2,1,1,0,0,0-.25.3.82.82,0,0,0-.09.38.6.6,0,0,0,.15.42,1.16,1.16,0,0,0,.38.29,3.5,3.5,0,0,0,.55.22l.63.2a6.62,6.62,0,0,1,.62.24,2,2,0,0,1,.55.32,1.53,1.53,0,0,1,.39.48,1.59,1.59,0,0,1,.14.68,2.13,2.13,0,0,1-.16.84,1.88,1.88,0,0,1-.48.67,2.29,2.29,0,0,1-.78.45,3.44,3.44,0,0,1-1.07.16,3.26,3.26,0,0,1-1.24-.23,3.16,3.16,0,0,1-.95-.57L501,73a.38.38,0,0,1,.12-.13.36.36,0,0,1,.19,0,.42.42,0,0,1,.24.09,3.71,3.71,0,0,0,.32.2,1.89,1.89,0,0,0,.45.21,2.1,2.1,0,0,0,.66.09,1.74,1.74,0,0,0,.59-.09,1.37,1.37,0,0,0,.43-.24,1,1,0,0,0,.25-.34,1.16,1.16,0,0,0,.08-.42.68.68,0,0,0-.15-.45,1.32,1.32,0,0,0-.38-.31,5.72,5.72,0,0,0-.55-.22l-.63-.2a4.88,4.88,0,0,1-.64-.23,2.15,2.15,0,0,1-.54-.34,1.44,1.44,0,0,1-.39-.49,1.59,1.59,0,0,1-.15-.72,1.69,1.69,0,0,1,.16-.73,1.76,1.76,0,0,1,.45-.61,2.51,2.51,0,0,1,.74-.42,3.44,3.44,0,0,1,2.16,0,3,3,0,0,1,.89.56Z"/><path d="M512.14,73.19a1.84,1.84,0,0,1-.51.45A3.19,3.19,0,0,1,511,74a4.1,4.1,0,0,1-.71.18,4.39,4.39,0,0,1-.72.07A3.29,3.29,0,0,1,508.3,74a2.68,2.68,0,0,1-1-.67,3.26,3.26,0,0,1-.66-1.1,4.65,4.65,0,0,1-.23-1.51,3.88,3.88,0,0,1,.21-1.29,3,3,0,0,1,.61-1,2.61,2.61,0,0,1,1-.69,3.13,3.13,0,0,1,1.29-.25,3,3,0,0,1,1.09.19,2.51,2.51,0,0,1,.87.58,2.54,2.54,0,0,1,.58.92,3.49,3.49,0,0,1,.2,1.25.75.75,0,0,1,0,.36.24.24,0,0,1-.22.1h-4.4a3.82,3.82,0,0,0,.17,1.08,2.1,2.1,0,0,0,.42.77,1.72,1.72,0,0,0,.65.46,2.3,2.3,0,0,0,.85.16,2.37,2.37,0,0,0,.75-.11A3.59,3.59,0,0,0,511,73a3.9,3.9,0,0,0,.38-.22.48.48,0,0,1,.27-.1.28.28,0,0,1,.22.11Zm-.94-3.09a2.15,2.15,0,0,0-.11-.73,1.54,1.54,0,0,0-.86-1,2,2,0,0,0-2,.35,2.26,2.26,0,0,0-.61,1.34Z"/><path d="M515.64,74.22a1.59,1.59,0,0,1-1.2-.44,1.73,1.73,0,0,1-.42-1.25v-4h-.79a.28.28,0,0,1-.18-.06.24.24,0,0,1-.07-.19v-.47l1.08-.13.26-2a.42.42,0,0,1,.09-.16.28.28,0,0,1,.18-.06h.59v2.27h1.9v.84h-1.9v4a.83.83,0,0,0,.2.62.72.72,0,0,0,.52.2,1,1,0,0,0,.31,0,1,1,0,0,0,.23-.11l.17-.1a.16.16,0,0,1,.12-.05.19.19,0,0,1,.16.11l.34.55a2.18,2.18,0,0,1-.72.44A2.35,2.35,0,0,1,515.64,74.22Z"/><path d="M73.32,96.88h-3v8.25H69.05V96.88H66V95.82h7.3Z"/><path d="M75.85,96.48a.71.71,0,0,1-.07.32.87.87,0,0,1-.18.26,1,1,0,0,1-.26.18.92.92,0,0,1-.33.06.81.81,0,0,1-.31-.06,1.2,1.2,0,0,1-.26-.18,1.06,1.06,0,0,1-.17-.26.77.77,0,0,1,0-.64,1,1,0,0,1,.17-.27,1.2,1.2,0,0,1,.26-.18.81.81,0,0,1,.31-.06.92.92,0,0,1,.33.06,1,1,0,0,1,.26.18.8.8,0,0,1,.18.27A.71.71,0,0,1,75.85,96.48Zm-.24,2.07v6.58H74.45V98.55Z"/><path d="M77.5,105.13V98.55h.7a.28.28,0,0,1,.3.24l.09.68a3.19,3.19,0,0,1,.82-.74,1.92,1.92,0,0,1,1-.28,1.56,1.56,0,0,1,1.08.37,2.07,2.07,0,0,1,.59,1,2.22,2.22,0,0,1,.37-.62,2.24,2.24,0,0,1,.5-.43,2.63,2.63,0,0,1,.6-.25,2.73,2.73,0,0,1,.64-.07,2.43,2.43,0,0,1,.92.16,1.87,1.87,0,0,1,.69.48,2.08,2.08,0,0,1,.43.79,3.43,3.43,0,0,1,.15,1.06v4.19H85.27v-4.19a1.74,1.74,0,0,0-.34-1.17,1.18,1.18,0,0,0-1-.4,1.49,1.49,0,0,0-.55.1,1.34,1.34,0,0,0-.45.29,1.52,1.52,0,0,0-.31.49,2.08,2.08,0,0,0-.11.69v4.19H81.38v-4.19a1.85,1.85,0,0,0-.32-1.18,1.12,1.12,0,0,0-.93-.39,1.46,1.46,0,0,0-.79.23,2.34,2.34,0,0,0-.67.63v4.9Z"/><path d="M93.54,104.21a2.46,2.46,0,0,1-.51.45,3,3,0,0,1-.65.32,4,4,0,0,1-.7.18,4.37,4.37,0,0,1-.72.06A3.21,3.21,0,0,1,89.7,105a2.72,2.72,0,0,1-1-.67,3.26,3.26,0,0,1-.66-1.1,4.65,4.65,0,0,1-.23-1.51,3.88,3.88,0,0,1,.21-1.29,3,3,0,0,1,.61-1,2.62,2.62,0,0,1,1-.68,3.11,3.11,0,0,1,1.28-.25,3,3,0,0,1,1.1.19,2.85,2.85,0,0,1,.87.57,2.56,2.56,0,0,1,.57.93,3.45,3.45,0,0,1,.21,1.25.72.72,0,0,1-.06.36.24.24,0,0,1-.22.09H89a4.23,4.23,0,0,0,.17,1.09,2.38,2.38,0,0,0,.43.77,1.65,1.65,0,0,0,.65.46,2.26,2.26,0,0,0,.85.15,2.39,2.39,0,0,0,.75-.1,3.59,3.59,0,0,0,.54-.21,3.9,3.9,0,0,0,.38-.22.48.48,0,0,1,.26-.1.23.23,0,0,1,.22.11Zm-.94-3.09a2.38,2.38,0,0,0-.11-.73,1.72,1.72,0,0,0-.33-.58,1.44,1.44,0,0,0-.53-.38,2,2,0,0,0-2,.35,2.29,2.29,0,0,0-.6,1.34Z"/><path d="M104.57,96.88h-3v8.25H100.3V96.88h-3V95.82h7.29Z"/><path d="M106.86,98.45a3.35,3.35,0,0,1,1.3.24,2.66,2.66,0,0,1,1,.68,3.06,3.06,0,0,1,.63,1.07,4.37,4.37,0,0,1,.22,1.4,4.33,4.33,0,0,1-.22,1.4,3.16,3.16,0,0,1-.63,1.07,2.78,2.78,0,0,1-1,.68,3.35,3.35,0,0,1-1.3.23,3.43,3.43,0,0,1-1.31-.23,2.77,2.77,0,0,1-1.61-1.75,4.56,4.56,0,0,1,0-2.8,2.9,2.9,0,0,1,.62-1.07,2.83,2.83,0,0,1,1-.68A3.43,3.43,0,0,1,106.86,98.45Zm0,5.87a1.71,1.71,0,0,0,1.46-.65,3.73,3.73,0,0,0,0-3.66,1.68,1.68,0,0,0-1.46-.65,2.1,2.1,0,0,0-.86.16,1.72,1.72,0,0,0-.61.49,2.21,2.21,0,0,0-.36.79,4.07,4.07,0,0,0-.12,1,3,3,0,0,0,.48,1.83A1.72,1.72,0,0,0,106.86,104.32Z"/><path d="M120.34,104.07v1.06h-5.28V95.82h1.25v8.25Z"/><path d="M122.93,96.48a.71.71,0,0,1-.07.32.87.87,0,0,1-.18.26.91.91,0,0,1-.27.18.87.87,0,0,1-.32.06.78.78,0,0,1-.31-.06,1,1,0,0,1-.26-.18,1.06,1.06,0,0,1-.17-.26.77.77,0,0,1,0-.64,1,1,0,0,1,.17-.27,1,1,0,0,1,.26-.18.78.78,0,0,1,.31-.06.87.87,0,0,1,.32.06.91.91,0,0,1,.27.18.8.8,0,0,1,.18.27A.71.71,0,0,1,122.93,96.48Zm-.25,2.07v6.58h-1.15V98.55Z"/><path d="M130.22,98.55l-2.68,6.58h-1l-2.68-6.58h.94a.35.35,0,0,1,.23.07.33.33,0,0,1,.12.17l1.68,4.24c0,.16.09.31.13.47s.08.3.11.45c0-.15.07-.3.11-.45a4.26,4.26,0,0,1,.15-.47L129,98.79a.37.37,0,0,1,.34-.24Z"/><path d="M136.45,104.21a2.22,2.22,0,0,1-.51.45,3.19,3.19,0,0,1-.64.32,4.41,4.41,0,0,1-1.43.24,3.25,3.25,0,0,1-1.26-.23,2.8,2.8,0,0,1-1-.67,3.26,3.26,0,0,1-.66-1.1,4.65,4.65,0,0,1-.23-1.51,3.88,3.88,0,0,1,.21-1.29,3,3,0,0,1,.61-1,2.7,2.7,0,0,1,1-.68,3.13,3.13,0,0,1,1.29-.25,3,3,0,0,1,1.09.19,2.63,2.63,0,0,1,.87.57,2.58,2.58,0,0,1,.58.93,3.68,3.68,0,0,1,.2,1.25.91.91,0,0,1-.05.36.25.25,0,0,1-.22.09h-4.41a3.82,3.82,0,0,0,.18,1.09,2.19,2.19,0,0,0,.42.77,1.65,1.65,0,0,0,.65.46,2.3,2.3,0,0,0,.85.15,2.39,2.39,0,0,0,.75-.1,3.59,3.59,0,0,0,.54-.21,3.9,3.9,0,0,0,.38-.22.48.48,0,0,1,.26-.1.26.26,0,0,1,.23.11Zm-.94-3.09a2.11,2.11,0,0,0-.11-.73,1.72,1.72,0,0,0-.33-.58,1.44,1.44,0,0,0-.53-.38,2,2,0,0,0-2,.35,2.24,2.24,0,0,0-.61,1.34Z"/><path d="M216.45,96.88h-3v8.25h-1.26V96.88h-3V95.82h7.29Z"/><path d="M217.23,99.87a3.11,3.11,0,0,1,.76-1.06,1.73,1.73,0,0,1,1.12-.38,1.83,1.83,0,0,1,.4,0,1.28,1.28,0,0,1,.34.14l-.09.87a.18.18,0,0,1-.19.16l-.27,0a1.64,1.64,0,0,0-.4,0,1.59,1.59,0,0,0-.55.09,1.34,1.34,0,0,0-.44.27,1.91,1.91,0,0,0-.34.44,4.17,4.17,0,0,0-.28.6v4.16h-1.16V98.55h.66a.35.35,0,0,1,.26.07.45.45,0,0,1,.1.25Z"/><path d="M220.59,99.48a3.84,3.84,0,0,1,1.17-.79,3.75,3.75,0,0,1,1.4-.26,2.48,2.48,0,0,1,1,.18,2,2,0,0,1,.72.51,2.12,2.12,0,0,1,.45.79,3.2,3.2,0,0,1,.15,1v4.21h-.52a.48.48,0,0,1-.26,0,.37.37,0,0,1-.14-.22l-.13-.62a4.71,4.71,0,0,1-.51.42,2.31,2.31,0,0,1-.52.31,2.64,2.64,0,0,1-.58.2,3.49,3.49,0,0,1-.69.07,2.46,2.46,0,0,1-.72-.11,1.77,1.77,0,0,1-.59-.32,1.67,1.67,0,0,1-.39-.54,1.87,1.87,0,0,1-.15-.78,1.39,1.39,0,0,1,.22-.75,1.8,1.8,0,0,1,.69-.64,4.45,4.45,0,0,1,1.26-.46,9.63,9.63,0,0,1,1.9-.21v-.51a1.76,1.76,0,0,0-.34-1.16,1.19,1.19,0,0,0-1-.39,1.88,1.88,0,0,0-.72.11,2.33,2.33,0,0,0-.5.24,3,3,0,0,0-.37.24.51.51,0,0,1-.3.1.32.32,0,0,1-.2-.06.54.54,0,0,1-.15-.15Zm3.74,2.69a9.67,9.67,0,0,0-1.37.13,3.44,3.44,0,0,0-.91.26,1.38,1.38,0,0,0-.52.38.88.88,0,0,0-.16.5,1.06,1.06,0,0,0,.09.45.86.86,0,0,0,.23.3,1,1,0,0,0,.34.18,1.54,1.54,0,0,0,.43,0,2.47,2.47,0,0,0,.56-.06,2,2,0,0,0,.48-.18,2.8,2.8,0,0,0,.43-.27c.13-.11.26-.24.4-.38Z"/><path d="M228.31,99.5a3.12,3.12,0,0,1,.46-.43,3.48,3.48,0,0,1,.51-.34,2.58,2.58,0,0,1,.57-.21,2.7,2.7,0,0,1,.65-.07,2.34,2.34,0,0,1,.95.17,1.78,1.78,0,0,1,.69.51,2.21,2.21,0,0,1,.42.79,3.31,3.31,0,0,1,.14,1v4.19h-1.16v-4.19a1.76,1.76,0,0,0-.34-1.16,1.3,1.3,0,0,0-1-.41,1.91,1.91,0,0,0-1,.25,3.13,3.13,0,0,0-.82.66v4.85h-1.16V98.55h.69a.29.29,0,0,1,.31.24Z"/><path d="M238.31,99.63a.27.27,0,0,1-.24.15.51.51,0,0,1-.22-.07l-.31-.16a2.81,2.81,0,0,0-.42-.17,2.51,2.51,0,0,0-.59-.07,2,2,0,0,0-.52.07,1.17,1.17,0,0,0-.4.21,1,1,0,0,0-.26.3.8.8,0,0,0-.08.37.62.62,0,0,0,.14.43,1.32,1.32,0,0,0,.39.29,4.65,4.65,0,0,0,.54.22l.63.2c.22.07.42.15.63.24a2.08,2.08,0,0,1,.54.32,1.53,1.53,0,0,1,.39.48,1.42,1.42,0,0,1,.15.68,2.32,2.32,0,0,1-.16.84,1.79,1.79,0,0,1-.49.67,2.29,2.29,0,0,1-.78.45,3.42,3.42,0,0,1-1.06.16,3.34,3.34,0,0,1-2.2-.8l.27-.44a.4.4,0,0,1,.13-.13.35.35,0,0,1,.18-.05.45.45,0,0,1,.25.09l.31.2a2.34,2.34,0,0,0,.45.2,1.86,1.86,0,0,0,.67.1,1.78,1.78,0,0,0,.59-.09,1.22,1.22,0,0,0,.42-.24.91.91,0,0,0,.25-.34,1.16,1.16,0,0,0,.08-.42.68.68,0,0,0-.15-.45,1.2,1.2,0,0,0-.38-.31,3.5,3.5,0,0,0-.55-.22l-.63-.2a5.85,5.85,0,0,1-.63-.23,2,2,0,0,1-.55-.34,1.5,1.5,0,0,1-.39-.5,1.53,1.53,0,0,1-.14-.71,1.8,1.8,0,0,1,.15-.73,1.93,1.93,0,0,1,.46-.61,2.26,2.26,0,0,1,.73-.42,3.44,3.44,0,0,1,2.16.05,2.85,2.85,0,0,1,.9.56Z"/><path d="M241.2,99.57a3.48,3.48,0,0,1,1-.83,2.54,2.54,0,0,1,1.25-.31,2.32,2.32,0,0,1,1,.22,2.21,2.21,0,0,1,.79.64,3.36,3.36,0,0,1,.5,1.06,5.71,5.71,0,0,1,.17,1.45,4.5,4.5,0,0,1-.19,1.35,3.23,3.23,0,0,1-.57,1.09,2.49,2.49,0,0,1-.89.72,2.61,2.61,0,0,1-1.2.26,2.34,2.34,0,0,1-1-.2,2.53,2.53,0,0,1-.77-.57v2.91H240.1V98.55h.7a.28.28,0,0,1,.3.24Zm.06,4a1.81,1.81,0,0,0,1.54.78,1.66,1.66,0,0,0,1.42-.66,3.06,3.06,0,0,0,.49-1.87,4.53,4.53,0,0,0-.11-1.11,1.92,1.92,0,0,0-.33-.75,1.36,1.36,0,0,0-.52-.44,1.8,1.8,0,0,0-.71-.13,1.87,1.87,0,0,0-1,.26,2.84,2.84,0,0,0-.79.73Z"/><path d="M250.16,98.45a3.35,3.35,0,0,1,1.3.24,2.66,2.66,0,0,1,1,.68,3.06,3.06,0,0,1,.63,1.07,4.77,4.77,0,0,1,0,2.8,3.16,3.16,0,0,1-.63,1.07,2.78,2.78,0,0,1-1,.68,3.35,3.35,0,0,1-1.3.23,3.43,3.43,0,0,1-1.31-.23,2.78,2.78,0,0,1-1-.68,3.16,3.16,0,0,1-.63-1.07,4.77,4.77,0,0,1,0-2.8,3.06,3.06,0,0,1,.63-1.07,2.66,2.66,0,0,1,1-.68A3.43,3.43,0,0,1,250.16,98.45Zm0,5.87a1.71,1.71,0,0,0,1.46-.65,3.73,3.73,0,0,0,0-3.66,1.68,1.68,0,0,0-1.46-.65,2.06,2.06,0,0,0-.86.16,1.72,1.72,0,0,0-.61.49,2.21,2.21,0,0,0-.36.79,4,4,0,0,0-.13,1,3,3,0,0,0,.49,1.83A1.72,1.72,0,0,0,250.16,104.32Z"/><path d="M255.86,99.87a3,3,0,0,1,.76-1.06,1.72,1.72,0,0,1,1.11-.38,1.68,1.68,0,0,1,.4,0,1.22,1.22,0,0,1,.35.14l-.09.87a.19.19,0,0,1-.19.16,2,2,0,0,1-.27,0,1.64,1.64,0,0,0-.4,0,1.59,1.59,0,0,0-.55.09,1.25,1.25,0,0,0-.44.27,1.91,1.91,0,0,0-.34.44,4.17,4.17,0,0,0-.28.6v4.16h-1.16V98.55h.66a.35.35,0,0,1,.26.07.45.45,0,0,1,.1.25Z"/><path d="M261.51,105.24a1.59,1.59,0,0,1-1.2-.44,1.73,1.73,0,0,1-.42-1.25v-4h-.79a.28.28,0,0,1-.18-.06.28.28,0,0,1-.07-.2V98.8l1.08-.13.27-2a.3.3,0,0,1,.08-.16.28.28,0,0,1,.18-.06h.59v2.27H263v.84h-1.9v4a.87.87,0,0,0,.2.62.72.72,0,0,0,.52.2,1,1,0,0,0,.32-.05l.23-.11.16-.1a.19.19,0,0,1,.12,0,.2.2,0,0,1,.17.11l.33.55a2.18,2.18,0,0,1-.72.44A2.58,2.58,0,0,1,261.51,105.24Z"/><path d="M365.21,95.82v9.31H364V100.9h-5v4.23h-1.26V95.82h1.26V100h5V95.82Z"/><path d="M372.46,104.21a2.22,2.22,0,0,1-.51.45,3.19,3.19,0,0,1-.64.32,4.41,4.41,0,0,1-1.43.24,3.25,3.25,0,0,1-1.26-.23,2.8,2.8,0,0,1-1-.67,3.26,3.26,0,0,1-.66-1.1,4.65,4.65,0,0,1-.23-1.51,3.88,3.88,0,0,1,.21-1.29,3,3,0,0,1,.61-1,2.7,2.7,0,0,1,1-.68,3.13,3.13,0,0,1,1.29-.25,3,3,0,0,1,1.09.19,2.63,2.63,0,0,1,.87.57,2.58,2.58,0,0,1,.58.93,3.68,3.68,0,0,1,.2,1.25.91.91,0,0,1-.05.36.26.26,0,0,1-.23.09h-4.4a3.82,3.82,0,0,0,.18,1.09,2.19,2.19,0,0,0,.42.77,1.65,1.65,0,0,0,.65.46,2.3,2.3,0,0,0,.85.15,2.39,2.39,0,0,0,.75-.1,3.59,3.59,0,0,0,.54-.21,3.9,3.9,0,0,0,.38-.22.48.48,0,0,1,.26-.1.26.26,0,0,1,.23.11Zm-.94-3.09a2.11,2.11,0,0,0-.11-.73,1.72,1.72,0,0,0-.33-.58,1.44,1.44,0,0,0-.53-.38,2,2,0,0,0-2,.35,2.24,2.24,0,0,0-.61,1.34Z"/><path d="M373.81,99.48a4,4,0,0,1,1.18-.79,3.71,3.71,0,0,1,1.4-.26,2.55,2.55,0,0,1,1,.18,2.19,2.19,0,0,1,.72.51,2.25,2.25,0,0,1,.44.79,3.2,3.2,0,0,1,.15,1v4.21h-.51a.48.48,0,0,1-.26,0,.43.43,0,0,1-.15-.22l-.13-.62a5.87,5.87,0,0,1-.5.42,2.55,2.55,0,0,1-.52.31,2.84,2.84,0,0,1-.58.2,3.66,3.66,0,0,1-.69.07,2.36,2.36,0,0,1-.72-.11,1.68,1.68,0,0,1-.59-.32,1.56,1.56,0,0,1-.4-.54,2.05,2.05,0,0,1-.14-.78,1.47,1.47,0,0,1,.21-.75,1.91,1.91,0,0,1,.7-.64,4.49,4.49,0,0,1,1.25-.46,9.72,9.72,0,0,1,1.9-.21v-.51a1.76,1.76,0,0,0-.33-1.16,1.21,1.21,0,0,0-1-.39,1.88,1.88,0,0,0-.72.11,2.59,2.59,0,0,0-.5.24,2.81,2.81,0,0,0-.36.24.54.54,0,0,1-.31.1.36.36,0,0,1-.2-.06.67.67,0,0,1-.14-.15Zm3.74,2.69a9.52,9.52,0,0,0-1.36.13,3.52,3.52,0,0,0-.92.26,1.33,1.33,0,0,0-.51.38.81.81,0,0,0-.16.5,1.25,1.25,0,0,0,.08.45,1,1,0,0,0,.23.3,1.06,1.06,0,0,0,.35.18,1.42,1.42,0,0,0,.42,0,2.4,2.4,0,0,0,.56-.06,2,2,0,0,0,.48-.18,2.8,2.8,0,0,0,.43-.27,3.55,3.55,0,0,0,.4-.38Z"/><path d="M385.89,95.56v9.57h-.69a.29.29,0,0,1-.31-.24l-.11-.8a3.55,3.55,0,0,1-1,.82,2.42,2.42,0,0,1-1.25.31,2.45,2.45,0,0,1-1-.21,2.21,2.21,0,0,1-.79-.64,3.07,3.07,0,0,1-.5-1.06,5.27,5.27,0,0,1-.18-1.45,4.54,4.54,0,0,1,.2-1.35,3.4,3.4,0,0,1,.56-1.09,2.49,2.49,0,0,1,.89-.72,2.62,2.62,0,0,1,1.2-.27,2.34,2.34,0,0,1,1,.21,2.24,2.24,0,0,1,.77.57V95.56Zm-1.16,4.56a1.8,1.8,0,0,0-.7-.61,1.91,1.91,0,0,0-.84-.17,1.63,1.63,0,0,0-1.41.65,3.06,3.06,0,0,0-.5,1.87,5.08,5.08,0,0,0,.11,1.11,2.16,2.16,0,0,0,.33.75,1.2,1.2,0,0,0,.52.43,1.8,1.8,0,0,0,.71.14,1.91,1.91,0,0,0,1-.26,2.84,2.84,0,0,0,.78-.74Z"/><path d="M393.07,104.21a2.51,2.51,0,0,1-.52.45,3,3,0,0,1-.64.32,4.23,4.23,0,0,1-.7.18,4.59,4.59,0,0,1-.73.06,3.2,3.2,0,0,1-1.25-.23,2.75,2.75,0,0,1-1-.67,3.24,3.24,0,0,1-.65-1.1,4.4,4.4,0,0,1-.23-1.51,3.88,3.88,0,0,1,.21-1.29,3.15,3.15,0,0,1,.6-1,2.79,2.79,0,0,1,1-.68,3.13,3.13,0,0,1,1.29-.25,3.07,3.07,0,0,1,1.1.19,2.85,2.85,0,0,1,.87.57,2.7,2.7,0,0,1,.57.93,3.45,3.45,0,0,1,.21,1.25.72.72,0,0,1-.06.36.24.24,0,0,1-.22.09h-4.4a3.84,3.84,0,0,0,.17,1.09,2.2,2.2,0,0,0,.43.77,1.65,1.65,0,0,0,.65.46,2.24,2.24,0,0,0,.84.15,2.39,2.39,0,0,0,.75-.1,4.24,4.24,0,0,0,.55-.21l.38-.22a.48.48,0,0,1,.26-.1.24.24,0,0,1,.22.11Zm-.94-3.09a2.38,2.38,0,0,0-.11-.73,1.59,1.59,0,0,0-.34-.58,1.36,1.36,0,0,0-.53-.38,1.71,1.71,0,0,0-.7-.13,1.78,1.78,0,0,0-1.32.48,2.29,2.29,0,0,0-.6,1.34Z"/><path d="M395.69,99.87a3,3,0,0,1,.76-1.06,1.72,1.72,0,0,1,1.11-.38,1.68,1.68,0,0,1,.4,0,1.22,1.22,0,0,1,.35.14l-.09.87a.19.19,0,0,1-.19.16,2,2,0,0,1-.27,0,1.64,1.64,0,0,0-.4,0,1.55,1.55,0,0,0-.55.09,1.25,1.25,0,0,0-.44.27,1.91,1.91,0,0,0-.34.44,3.32,3.32,0,0,0-.28.6v4.16h-1.16V98.55h.66a.35.35,0,0,1,.26.07.45.45,0,0,1,.1.25Z"/><path d="M409.19,103.21a.27.27,0,0,1,.18.08l.5.54a4,4,0,0,1-1.39,1,4.84,4.84,0,0,1-2,.37,4.61,4.61,0,0,1-1.82-.35,4.09,4.09,0,0,1-1.4-1,4.46,4.46,0,0,1-.9-1.51,5.66,5.66,0,0,1-.32-1.93,5.22,5.22,0,0,1,.34-1.93,4.37,4.37,0,0,1,.93-1.51,4.28,4.28,0,0,1,1.44-1,4.8,4.8,0,0,1,1.85-.35,4.6,4.6,0,0,1,1.76.32,4.44,4.44,0,0,1,1.33.87l-.41.58a.32.32,0,0,1-.1.1.29.29,0,0,1-.17,0,.53.53,0,0,1-.28-.13,4.64,4.64,0,0,0-.45-.28,3.38,3.38,0,0,0-.68-.29,3.63,3.63,0,0,0-1-.12,3.34,3.34,0,0,0-1.32.25,3,3,0,0,0-1,.72,3.47,3.47,0,0,0-.67,1.16,4.61,4.61,0,0,0-.24,1.54,4.38,4.38,0,0,0,.25,1.55,3.66,3.66,0,0,0,.68,1.16,3.05,3.05,0,0,0,1,.72,3.39,3.39,0,0,0,1.28.24,4.43,4.43,0,0,0,.75-.05A2.72,2.72,0,0,0,408,104a2.9,2.9,0,0,0,.53-.26,5.31,5.31,0,0,0,.48-.38A.34.34,0,0,1,409.19,103.21Z"/><path d="M412.22,99.43a3.57,3.57,0,0,1,.94-.72,2.47,2.47,0,0,1,1.18-.26,2.34,2.34,0,0,1,1,.17,1.78,1.78,0,0,1,.69.51,2.07,2.07,0,0,1,.42.79,3.31,3.31,0,0,1,.14,1v4.19h-1.16v-4.19a1.76,1.76,0,0,0-.34-1.16,1.28,1.28,0,0,0-1-.41,1.91,1.91,0,0,0-1,.25,3.13,3.13,0,0,0-.82.66v4.85h-1.16V95.56h1.16Z"/><path d="M423.65,104.21a2.22,2.22,0,0,1-.51.45,3,3,0,0,1-.64.32,4.23,4.23,0,0,1-.7.18,4.59,4.59,0,0,1-.73.06,3.2,3.2,0,0,1-1.25-.23,2.75,2.75,0,0,1-1-.67,3.09,3.09,0,0,1-.65-1.1,4.39,4.39,0,0,1-.24-1.51,3.88,3.88,0,0,1,.22-1.29,3.15,3.15,0,0,1,.6-1,2.79,2.79,0,0,1,1-.68,3.13,3.13,0,0,1,1.29-.25,3,3,0,0,1,1.09.19,2.78,2.78,0,0,1,.88.57,2.7,2.7,0,0,1,.57.93,3.45,3.45,0,0,1,.21,1.25.72.72,0,0,1-.06.36.24.24,0,0,1-.22.09h-4.4a3.84,3.84,0,0,0,.17,1.09,2.06,2.06,0,0,0,.43.77,1.58,1.58,0,0,0,.65.46,2.24,2.24,0,0,0,.84.15,2.39,2.39,0,0,0,.75-.1,4.24,4.24,0,0,0,.55-.21l.38-.22a.45.45,0,0,1,.26-.1.24.24,0,0,1,.22.11Zm-.93-3.09a2.38,2.38,0,0,0-.11-.73,1.59,1.59,0,0,0-.34-.58,1.36,1.36,0,0,0-.53-.38,1.73,1.73,0,0,0-.71-.13,1.78,1.78,0,0,0-1.31.48,2.29,2.29,0,0,0-.6,1.34Z"/><path d="M429.76,99.72a.57.57,0,0,1-.11.11.2.2,0,0,1-.14,0,.4.4,0,0,1-.21-.08,2.45,2.45,0,0,0-.29-.18,2,2,0,0,0-.42-.18,2.22,2.22,0,0,0-.62-.08,2.13,2.13,0,0,0-.86.17,1.76,1.76,0,0,0-.62.5,2.27,2.27,0,0,0-.38.78,4.18,4.18,0,0,0-.12,1,3.8,3.8,0,0,0,.13,1.06,2.38,2.38,0,0,0,.39.78,1.67,1.67,0,0,0,.61.48,1.83,1.83,0,0,0,.79.17,2.26,2.26,0,0,0,.7-.1,1.89,1.89,0,0,0,.45-.23,2.94,2.94,0,0,0,.3-.22.36.36,0,0,1,.24-.1.24.24,0,0,1,.22.11l.32.42a2.14,2.14,0,0,1-.49.46,3.2,3.2,0,0,1-1.24.5,4.17,4.17,0,0,1-.71,0,2.86,2.86,0,0,1-1.14-.22,2.52,2.52,0,0,1-.92-.66,2.94,2.94,0,0,1-.61-1.07,4.21,4.21,0,0,1-.22-1.43,4.26,4.26,0,0,1,.2-1.36,3.24,3.24,0,0,1,.6-1.08,2.66,2.66,0,0,1,1-.7,3.21,3.21,0,0,1,1.32-.25,3.09,3.09,0,0,1,1.22.22,2.88,2.88,0,0,1,.94.63Z"/><path d="M432.55,95.56v5.63h.3a.66.66,0,0,0,.21,0,.59.59,0,0,0,.19-.15l2.08-2.23a.75.75,0,0,1,.19-.17.54.54,0,0,1,.27-.06h1l-2.43,2.58a1.33,1.33,0,0,1-.38.34l.22.18.18.23,2.57,3.25h-1a.68.68,0,0,1-.26,0,.64.64,0,0,1-.19-.18l-2.16-2.7a.62.62,0,0,0-.19-.18.75.75,0,0,0-.29,0h-.33v3.14h-1.17V95.56Z"/><path d="M441.82,99.63a.25.25,0,0,1-.24.15.55.55,0,0,1-.22-.07l-.3-.16a2.57,2.57,0,0,0-.43-.17,2.42,2.42,0,0,0-.58-.07,2.13,2.13,0,0,0-.53.07,1.17,1.17,0,0,0-.4.21,1,1,0,0,0-.25.3.81.81,0,0,0-.09.37.63.63,0,0,0,.15.43,1.16,1.16,0,0,0,.38.29,4.19,4.19,0,0,0,.55.22l.63.2a6.62,6.62,0,0,1,.62.24,2,2,0,0,1,.55.32,1.53,1.53,0,0,1,.39.48,1.55,1.55,0,0,1,.14.68,2.13,2.13,0,0,1-.16.84,1.88,1.88,0,0,1-.48.67,2.29,2.29,0,0,1-.78.45,3.44,3.44,0,0,1-1.07.16,3.35,3.35,0,0,1-1.25-.23,3.23,3.23,0,0,1-.94-.57l.27-.44a.3.3,0,0,1,.12-.13.35.35,0,0,1,.18-.05.45.45,0,0,1,.25.09,3.71,3.71,0,0,0,.32.2,1.89,1.89,0,0,0,.45.2,1.83,1.83,0,0,0,.66.1,1.74,1.74,0,0,0,.59-.09,1.37,1.37,0,0,0,.43-.24,1,1,0,0,0,.25-.34,1.16,1.16,0,0,0,.08-.42.68.68,0,0,0-.15-.45,1.37,1.37,0,0,0-.39-.31,3.15,3.15,0,0,0-.55-.22l-.63-.2c-.21-.07-.42-.14-.63-.23a2.2,2.2,0,0,1-.55-.34,1.36,1.36,0,0,1-.38-.5,1.52,1.52,0,0,1-.15-.71,1.66,1.66,0,0,1,.16-.73,1.76,1.76,0,0,1,.45-.61,2.31,2.31,0,0,1,.74-.42,3,3,0,0,1,1-.15,3.13,3.13,0,0,1,1.17.2,2.8,2.8,0,0,1,.89.56Z"/><path d="M449,98.55v6.58h-.69a.29.29,0,0,1-.31-.24l-.09-.71a3.66,3.66,0,0,1-1,.77,2.6,2.6,0,0,1-1.23.29,2.4,2.4,0,0,1-.95-.18,2,2,0,0,1-1.11-1.29,3.64,3.64,0,0,1-.14-1v-4.2h1.16v4.2a1.76,1.76,0,0,0,.34,1.16,1.28,1.28,0,0,0,1,.4,2,2,0,0,0,1-.24,3,3,0,0,0,.82-.67V98.55Z"/><path d="M450.86,105.13V98.55h.7a.28.28,0,0,1,.3.24l.09.68a3.19,3.19,0,0,1,.82-.74,1.92,1.92,0,0,1,1.05-.28,1.56,1.56,0,0,1,1.08.37,2.07,2.07,0,0,1,.59,1,2.22,2.22,0,0,1,.37-.62,2.24,2.24,0,0,1,.5-.43,2.63,2.63,0,0,1,.6-.25,2.73,2.73,0,0,1,.64-.07,2.43,2.43,0,0,1,.92.16,1.87,1.87,0,0,1,.69.48,2.25,2.25,0,0,1,.44.79,3.78,3.78,0,0,1,.14,1.06v4.19h-1.16v-4.19a1.74,1.74,0,0,0-.34-1.17,1.18,1.18,0,0,0-1-.4,1.4,1.4,0,0,0-.54.1,1.29,1.29,0,0,0-.46.29,1.52,1.52,0,0,0-.31.49,2.08,2.08,0,0,0-.11.69v4.19h-1.16v-4.19a1.85,1.85,0,0,0-.32-1.18,1.12,1.12,0,0,0-.93-.39,1.46,1.46,0,0,0-.79.23,2.34,2.34,0,0,0-.67.63v4.9Z"/><path d="M251.9,128.27a.39.39,0,0,1-.13.15.28.28,0,0,1-.16.05.47.47,0,0,1-.26-.11,3.59,3.59,0,0,0-.38-.25,2.62,2.62,0,0,0-.53-.24,2.46,2.46,0,0,0-.77-.11,2.35,2.35,0,0,0-.74.11,1.56,1.56,0,0,0-.54.31,1.15,1.15,0,0,0-.33.46,1.48,1.48,0,0,0-.11.57,1,1,0,0,0,.19.64,1.57,1.57,0,0,0,.51.44,3.55,3.55,0,0,0,.71.32l.82.27c.28.1.55.21.82.33a2.92,2.92,0,0,1,.72.45,2,2,0,0,1,.5.67,2.18,2.18,0,0,1,.19,1,3.13,3.13,0,0,1-.2,1.15,2.69,2.69,0,0,1-.61.93,2.85,2.85,0,0,1-1,.63,3.67,3.67,0,0,1-1.33.22,4,4,0,0,1-1.65-.32,3.94,3.94,0,0,1-1.26-.89l.36-.6a.37.37,0,0,1,.13-.12.3.3,0,0,1,.16-.05.32.32,0,0,1,.19.07l.25.17.31.23a3,3,0,0,0,.4.23,3,3,0,0,0,.51.17,2.56,2.56,0,0,0,.64.07,2.2,2.2,0,0,0,.8-.13,1.6,1.6,0,0,0,.6-.34,1.58,1.58,0,0,0,.37-.54,1.73,1.73,0,0,0,.13-.69,1.16,1.16,0,0,0-.19-.7,1.67,1.67,0,0,0-.5-.45,4,4,0,0,0-.72-.31l-.82-.26a8.11,8.11,0,0,1-.82-.31,2.38,2.38,0,0,1-.71-.45,2.15,2.15,0,0,1-.51-.7,2.65,2.65,0,0,1-.19-1,2.6,2.6,0,0,1,.19-1,2.55,2.55,0,0,1,.56-.82,2.71,2.71,0,0,1,.91-.57,3.11,3.11,0,0,1,1.23-.22,4,4,0,0,1,1.42.25,3.33,3.33,0,0,1,1.13.71Z"/><path d="M256.65,129.44a3.35,3.35,0,0,1,1.3.24,2.68,2.68,0,0,1,1,.69,3.11,3.11,0,0,1,.63,1.06,4.44,4.44,0,0,1,.22,1.41,4.37,4.37,0,0,1-.22,1.4,3,3,0,0,1-.63,1.06,2.55,2.55,0,0,1-1,.68,3.35,3.35,0,0,1-1.3.24,3.43,3.43,0,0,1-1.31-.24,2.55,2.55,0,0,1-1-.68,3,3,0,0,1-.63-1.06,4.38,4.38,0,0,1-.21-1.4,4.44,4.44,0,0,1,.21-1.41,3.11,3.11,0,0,1,.63-1.06,2.68,2.68,0,0,1,1-.69A3.43,3.43,0,0,1,256.65,129.44Zm0,5.88a1.71,1.71,0,0,0,1.46-.65,3.73,3.73,0,0,0,0-3.66,1.69,1.69,0,0,0-1.46-.66,2.09,2.09,0,0,0-.86.17,1.62,1.62,0,0,0-.61.49,2.16,2.16,0,0,0-.36.78,4.21,4.21,0,0,0-.12,1.05,3.06,3.06,0,0,0,.48,1.83A1.72,1.72,0,0,0,256.65,135.32Z"/><path d="M266.66,129.55v6.58H266a.29.29,0,0,1-.31-.24l-.09-.71a3.87,3.87,0,0,1-1,.77,2.55,2.55,0,0,1-1.22.28,2.61,2.61,0,0,1-1-.17,1.94,1.94,0,0,1-.69-.51,2.33,2.33,0,0,1-.42-.78,3.64,3.64,0,0,1-.14-1v-4.2h1.16v4.2a1.73,1.73,0,0,0,.34,1.15,1.3,1.3,0,0,0,1,.41,2,2,0,0,0,1-.24,3.22,3.22,0,0,0,.83-.67v-4.85Z"/><path d="M269.59,130.87a3,3,0,0,1,.77-1.06,1.68,1.68,0,0,1,1.11-.38,1.75,1.75,0,0,1,.4,0,1,1,0,0,1,.34.15l-.08.86a.19.19,0,0,1-.2.16l-.26,0a1.64,1.64,0,0,0-.4,0,1.55,1.55,0,0,0-.55.09,1.25,1.25,0,0,0-.44.27,1.71,1.71,0,0,0-.34.44,3.32,3.32,0,0,0-.28.6v4.16h-1.17v-6.58h.67a.37.37,0,0,1,.26.07.45.45,0,0,1,.1.24Z"/><path d="M277.54,130.72l-.1.11a.29.29,0,0,1-.14,0,.37.37,0,0,1-.22-.09,3.22,3.22,0,0,0-.29-.17,1.65,1.65,0,0,0-.42-.18,1.84,1.84,0,0,0-.61-.08,1.94,1.94,0,0,0-.86.17,1.58,1.58,0,0,0-.62.49,2.15,2.15,0,0,0-.38.79,4.11,4.11,0,0,0-.13,1,3.83,3.83,0,0,0,.14,1.06,2.2,2.2,0,0,0,.39.78,1.56,1.56,0,0,0,.6.48,1.87,1.87,0,0,0,.8.16,1.94,1.94,0,0,0,.69-.1,1.71,1.71,0,0,0,.45-.22l.3-.22a.37.37,0,0,1,.24-.11.24.24,0,0,1,.22.12l.33.42a2.3,2.3,0,0,1-.49.45,3,3,0,0,1-.59.32,3.57,3.57,0,0,1-.66.18,4,4,0,0,1-.7.06,2.78,2.78,0,0,1-1.15-.23,2.6,2.6,0,0,1-.92-.66,3,3,0,0,1-.61-1.06,4.63,4.63,0,0,1,0-2.79,3,3,0,0,1,.59-1.08,2.71,2.71,0,0,1,1-.7,3.27,3.27,0,0,1,1.32-.26,3.1,3.1,0,0,1,1.23.23,3,3,0,0,1,.94.63Z"/><path d="M284.39,135.21a2.22,2.22,0,0,1-.51.45,2.91,2.91,0,0,1-.64.31,3.38,3.38,0,0,1-.71.19,4.37,4.37,0,0,1-.72.06,3.39,3.39,0,0,1-1.25-.23,2.66,2.66,0,0,1-1-.68,2.92,2.92,0,0,1-.65-1.1,4.33,4.33,0,0,1-.24-1.5,3.64,3.64,0,0,1,.22-1.29,3.05,3.05,0,0,1,.6-1,3,3,0,0,1,1-.69,3.3,3.3,0,0,1,1.29-.25,3,3,0,0,1,1.09.2,2.35,2.35,0,0,1,.87.57,2.58,2.58,0,0,1,.58.93,3.45,3.45,0,0,1,.21,1.25.72.72,0,0,1-.06.36.24.24,0,0,1-.22.09h-4.4a3.84,3.84,0,0,0,.17,1.09,2.14,2.14,0,0,0,.43.77,1.68,1.68,0,0,0,.65.46,2.24,2.24,0,0,0,.84.15,2.39,2.39,0,0,0,.75-.1,3.54,3.54,0,0,0,.54-.22,3.07,3.07,0,0,0,.38-.21.53.53,0,0,1,.27-.11.25.25,0,0,1,.22.12Zm-.93-3.09a2.21,2.21,0,0,0-.12-.74,1.59,1.59,0,0,0-.33-.58,1.45,1.45,0,0,0-.53-.37,1.73,1.73,0,0,0-.71-.14,1.78,1.78,0,0,0-1.31.49,2.29,2.29,0,0,0-.6,1.34Z"/><path d="M290.78,136.13h-1.26v-9.31h1.26Z"/><path d="M295.91,126.82a5,5,0,0,1,1.53.2,3.06,3.06,0,0,1,1.09.58,2.55,2.55,0,0,1,.64.91,3.23,3.23,0,0,1,.21,1.19,3,3,0,0,1-.23,1.19,2.46,2.46,0,0,1-.67.93,3.14,3.14,0,0,1-1.08.61,4.82,4.82,0,0,1-1.49.22h-1.5v3.48h-1.25v-9.31Zm0,4.83a2.79,2.79,0,0,0,.95-.15,2,2,0,0,0,.69-.4,1.65,1.65,0,0,0,.43-.61,2.22,2.22,0,0,0,.14-.79,1.77,1.77,0,0,0-.55-1.39,2.4,2.4,0,0,0-1.66-.5h-1.5v3.84Z"/><path d="M311.07,136.13h-1a.47.47,0,0,1-.28-.08.48.48,0,0,1-.15-.22l-.87-2.25h-4.18l-.88,2.25a.41.41,0,0,1-.14.21.45.45,0,0,1-.28.09h-1l3.72-9.31h1.28Zm-2.63-3.46L307,128.88c0-.11-.09-.24-.13-.39s-.1-.31-.14-.48a7.75,7.75,0,0,1-.28.88L305,132.67Z"/><path d="M317.33,126.56v9.57h-.69a.29.29,0,0,1-.31-.24l-.1-.8a3.75,3.75,0,0,1-1,.82,2.4,2.4,0,0,1-1.24.31,2.32,2.32,0,0,1-1-.22,2,2,0,0,1-.79-.64,3,3,0,0,1-.5-1.05,5.3,5.3,0,0,1-.17-1.45,4.5,4.5,0,0,1,.19-1.35,3.3,3.3,0,0,1,.56-1.09,2.63,2.63,0,0,1,.89-.73,2.75,2.75,0,0,1,1.2-.26,2.49,2.49,0,0,1,1,.2,2.53,2.53,0,0,1,.77.57v-3.64Zm-1.16,4.55a1.88,1.88,0,0,0-.7-.61,2.07,2.07,0,0,0-.84-.17,1.65,1.65,0,0,0-1.41.66,3.06,3.06,0,0,0-.5,1.87,4.91,4.91,0,0,0,.11,1.1,2.13,2.13,0,0,0,.33.76,1.34,1.34,0,0,0,.52.43,1.8,1.8,0,0,0,.71.14,1.91,1.91,0,0,0,1-.26,3,3,0,0,0,.78-.74Z"/><path d="M324.61,126.56v9.57h-.69a.29.29,0,0,1-.31-.24l-.1-.8a3.75,3.75,0,0,1-1,.82,2.4,2.4,0,0,1-1.24.31,2.32,2.32,0,0,1-1-.22,2,2,0,0,1-.79-.64,3.2,3.2,0,0,1-.5-1.05,5.3,5.3,0,0,1-.17-1.45,4.5,4.5,0,0,1,.19-1.35,3.3,3.3,0,0,1,.56-1.09,2.63,2.63,0,0,1,.89-.73,2.75,2.75,0,0,1,1.2-.26,2.46,2.46,0,0,1,1,.2,2.53,2.53,0,0,1,.77.57v-3.64Zm-1.16,4.55a1.88,1.88,0,0,0-.7-.61,2.07,2.07,0,0,0-.84-.17,1.65,1.65,0,0,0-1.41.66,3.06,3.06,0,0,0-.5,1.87,4.91,4.91,0,0,0,.11,1.1,2.13,2.13,0,0,0,.33.76,1.34,1.34,0,0,0,.52.43,1.8,1.8,0,0,0,.71.14,1.91,1.91,0,0,0,1-.26,3,3,0,0,0,.78-.74Z"/><path d="M327.54,130.87a2.91,2.91,0,0,1,.77-1.06,1.68,1.68,0,0,1,1.11-.38,1.75,1.75,0,0,1,.4,0,1,1,0,0,1,.34.15l-.08.86a.19.19,0,0,1-.2.16l-.27,0a1.56,1.56,0,0,0-.39,0,1.6,1.6,0,0,0-.56.09,1.21,1.21,0,0,0-.43.27,1.74,1.74,0,0,0-.35.44,4.17,4.17,0,0,0-.27.6v4.16h-1.17v-6.58h.67a.37.37,0,0,1,.26.07.45.45,0,0,1,.09.24Z"/><path d="M336.25,135.21a2.22,2.22,0,0,1-.51.45,3.15,3.15,0,0,1-.64.31,3.38,3.38,0,0,1-.71.19,4.37,4.37,0,0,1-.72.06,3.48,3.48,0,0,1-1.26-.23,2.7,2.7,0,0,1-1-.68,2.92,2.92,0,0,1-.65-1.1,4.33,4.33,0,0,1-.24-1.5,3.88,3.88,0,0,1,.21-1.29,3.07,3.07,0,0,1,.61-1,2.85,2.85,0,0,1,1-.69,3.3,3.3,0,0,1,1.29-.25,3,3,0,0,1,1.09.2,2.35,2.35,0,0,1,.87.57,2.58,2.58,0,0,1,.58.93,3.45,3.45,0,0,1,.21,1.25.72.72,0,0,1-.06.36.25.25,0,0,1-.22.09h-4.4a3.84,3.84,0,0,0,.17,1.09,2.28,2.28,0,0,0,.42.77,1.84,1.84,0,0,0,.65.46,2.3,2.3,0,0,0,.85.15,2.39,2.39,0,0,0,.75-.1,3.54,3.54,0,0,0,.54-.22,4,4,0,0,0,.38-.21.5.5,0,0,1,.27-.11.26.26,0,0,1,.22.12Zm-.93-3.09a2.21,2.21,0,0,0-.12-.74,1.59,1.59,0,0,0-.33-.58,1.45,1.45,0,0,0-.53-.37,1.76,1.76,0,0,0-.71-.14,1.78,1.78,0,0,0-1.31.49,2.24,2.24,0,0,0-.61,1.34Z"/><path d="M341.61,130.63a.24.24,0,0,1-.24.14.4.4,0,0,1-.22-.07l-.31-.16c-.12,0-.26-.11-.42-.16a2.08,2.08,0,0,0-.59-.07,1.68,1.68,0,0,0-.52.07,1.17,1.17,0,0,0-.4.21.83.83,0,0,0-.26.3.77.77,0,0,0-.08.37.59.59,0,0,0,.14.42,1.35,1.35,0,0,0,.39.3,4.65,4.65,0,0,0,.54.22l.63.2c.22.07.42.15.63.23a2.44,2.44,0,0,1,.54.33,1.4,1.4,0,0,1,.39.48,1.42,1.42,0,0,1,.15.68,2.32,2.32,0,0,1-.16.84,1.87,1.87,0,0,1-.49.67,2.27,2.27,0,0,1-.78.44,3.11,3.11,0,0,1-1.06.16,3.26,3.26,0,0,1-2.2-.79l.28-.45a.37.37,0,0,1,.12-.13.34.34,0,0,1,.18,0,.45.45,0,0,1,.25.09l.31.2a3.18,3.18,0,0,0,.45.2,2.13,2.13,0,0,0,.67.09,1.78,1.78,0,0,0,.59-.09,1.06,1.06,0,0,0,.42-.23.94.94,0,0,0,.25-.35,1,1,0,0,0,.08-.41.69.69,0,0,0-.14-.45,1.22,1.22,0,0,0-.39-.31,3.15,3.15,0,0,0-.55-.22l-.63-.2q-.31-.1-.63-.24a2.29,2.29,0,0,1-.55-.33,1.61,1.61,0,0,1-.39-.5,1.74,1.74,0,0,1-.14-.72,1.79,1.79,0,0,1,.15-.72,1.82,1.82,0,0,1,.46-.61,2.09,2.09,0,0,1,.73-.42,2.8,2.8,0,0,1,1-.16,3,3,0,0,1,1.16.21,2.59,2.59,0,0,1,.9.56Z"/><path d="M347.24,130.63a.26.26,0,0,1-.24.14.4.4,0,0,1-.22-.07l-.31-.16c-.12,0-.26-.11-.42-.16a2.08,2.08,0,0,0-.59-.07,1.68,1.68,0,0,0-.52.07,1.17,1.17,0,0,0-.4.21.83.83,0,0,0-.26.3.78.78,0,0,0-.09.37.6.6,0,0,0,.15.42,1.35,1.35,0,0,0,.39.3,4.65,4.65,0,0,0,.54.22l.63.2.63.23a2.44,2.44,0,0,1,.54.33,1.53,1.53,0,0,1,.39.48,1.42,1.42,0,0,1,.15.68,2.14,2.14,0,0,1-.17.84,1.73,1.73,0,0,1-.48.67,2.27,2.27,0,0,1-.78.44,3.11,3.11,0,0,1-1.06.16,3.26,3.26,0,0,1-2.2-.79l.27-.45a.53.53,0,0,1,.13-.13.32.32,0,0,1,.18,0,.45.45,0,0,1,.25.09l.31.2a3.18,3.18,0,0,0,.45.2,2.13,2.13,0,0,0,.67.09,1.78,1.78,0,0,0,.59-.09,1.06,1.06,0,0,0,.42-.23.94.94,0,0,0,.25-.35,1.15,1.15,0,0,0,.08-.41.69.69,0,0,0-.14-.45,1.22,1.22,0,0,0-.39-.31,3.15,3.15,0,0,0-.55-.22l-.63-.2a5.87,5.87,0,0,1-.63-.24,2.29,2.29,0,0,1-.55-.33,1.61,1.61,0,0,1-.39-.5,1.74,1.74,0,0,1-.14-.72,1.79,1.79,0,0,1,.15-.72,1.82,1.82,0,0,1,.46-.61,2.09,2.09,0,0,1,.73-.42,2.8,2.8,0,0,1,1-.16,3,3,0,0,1,1.16.21,2.68,2.68,0,0,1,.9.56Z"/><path d="M240.18,162.3a5.23,5.23,0,0,1-.33,1.9,4.15,4.15,0,0,1-2.39,2.42,5.1,5.1,0,0,1-1.87.33h-3.48v-9.31h3.48a5.1,5.1,0,0,1,1.87.33,4,4,0,0,1,1.45.95,4.17,4.17,0,0,1,.94,1.47A5.28,5.28,0,0,1,240.18,162.3Zm-1.29,0a4.57,4.57,0,0,0-.24-1.54,3.06,3.06,0,0,0-.66-1.14,2.94,2.94,0,0,0-1-.72,3.7,3.7,0,0,0-1.36-.24h-2.22v7.27h2.22a3.51,3.51,0,0,0,1.36-.25,2.8,2.8,0,0,0,1-.71,3.06,3.06,0,0,0,.66-1.14A4.55,4.55,0,0,0,238.89,162.3Z"/><path d="M247,166a2.22,2.22,0,0,1-.51.45,3.48,3.48,0,0,1-.64.32,4.1,4.1,0,0,1-.71.18,4.37,4.37,0,0,1-.72.06,3.39,3.39,0,0,1-1.25-.23,2.66,2.66,0,0,1-1-.68,2.92,2.92,0,0,1-.65-1.1,4.33,4.33,0,0,1-.24-1.5,3.64,3.64,0,0,1,.22-1.29,3.05,3.05,0,0,1,.6-1,3,3,0,0,1,1-.69,3.3,3.3,0,0,1,1.29-.25,3,3,0,0,1,1.09.2,2.35,2.35,0,0,1,.87.57,2.58,2.58,0,0,1,.58.93,3.45,3.45,0,0,1,.21,1.25.72.72,0,0,1-.06.36.24.24,0,0,1-.22.09h-4.4a3.84,3.84,0,0,0,.17,1.09,2.14,2.14,0,0,0,.43.77,1.68,1.68,0,0,0,.65.46,2.24,2.24,0,0,0,.84.15,2.39,2.39,0,0,0,.75-.1,3.54,3.54,0,0,0,.54-.22,3.07,3.07,0,0,0,.38-.21.5.5,0,0,1,.27-.1.24.24,0,0,1,.22.11Zm-.93-3.09a2.21,2.21,0,0,0-.12-.74,1.59,1.59,0,0,0-.33-.58,1.45,1.45,0,0,0-.53-.37,1.73,1.73,0,0,0-.71-.14,1.78,1.78,0,0,0-1.31.49,2.29,2.29,0,0,0-.6,1.34Z"/><path d="M252.33,161.45a.24.24,0,0,1-.24.14.4.4,0,0,1-.22-.07l-.3-.16-.43-.16a2,2,0,0,0-.59-.07,1.68,1.68,0,0,0-.52.07,1.17,1.17,0,0,0-.4.21.83.83,0,0,0-.26.3.91.91,0,0,0-.08.37.64.64,0,0,0,.14.42,1.35,1.35,0,0,0,.39.3,4.19,4.19,0,0,0,.55.22l.62.2c.22.07.43.15.63.23a2.51,2.51,0,0,1,.55.33,1.37,1.37,0,0,1,.38.48,1.42,1.42,0,0,1,.15.68,2.13,2.13,0,0,1-.16.84,1.88,1.88,0,0,1-.48.67,2.47,2.47,0,0,1-.78.44,3.21,3.21,0,0,1-1.07.16,3.26,3.26,0,0,1-2.2-.79l.28-.45a.37.37,0,0,1,.12-.13.34.34,0,0,1,.18,0,.45.45,0,0,1,.25.09l.31.2a2.88,2.88,0,0,0,.46.2,2,2,0,0,0,.66.09,1.78,1.78,0,0,0,.59-.09,1.06,1.06,0,0,0,.42-.23.84.84,0,0,0,.25-.35.94.94,0,0,0,.08-.41.66.66,0,0,0-.14-.45,1.22,1.22,0,0,0-.39-.31,3.15,3.15,0,0,0-.55-.22l-.63-.2q-.32-.11-.63-.24a2.51,2.51,0,0,1-.55-.33,1.61,1.61,0,0,1-.39-.5,1.71,1.71,0,0,1-.14-.72,1.79,1.79,0,0,1,.15-.72,1.82,1.82,0,0,1,.46-.61,2.09,2.09,0,0,1,.73-.42,2.84,2.84,0,0,1,1-.16,3.13,3.13,0,0,1,1.17.21,2.64,2.64,0,0,1,.89.56Z"/><path d="M260.23,167h-1.15v-5.61h-3.4v3.95a.81.81,0,0,0,.21.61.67.67,0,0,0,.52.21,1,1,0,0,0,.31-.05A1.67,1.67,0,0,0,257,166l.17-.11a.17.17,0,0,1,.28.06l.34.56a2.36,2.36,0,0,1-.72.44,2.65,2.65,0,0,1-.87.15,1.59,1.59,0,0,1-1.2-.43,1.73,1.73,0,0,1-.42-1.25v-4h-.8a.26.26,0,0,1-.17-.07.22.22,0,0,1-.07-.19v-.46l1.08-.14.26-2a.28.28,0,0,1,.09-.16.28.28,0,0,1,.18-.06h.58v2.27h4.55Zm.29-8.7a.68.68,0,0,1-.07.32.76.76,0,0,1-.18.26.9.9,0,0,1-.26.17.77.77,0,0,1-.64,0,.85.85,0,0,1-.25-.17.76.76,0,0,1-.18-.26.83.83,0,0,1-.06-.32.87.87,0,0,1,.06-.32.68.68,0,0,1,.18-.26.72.72,0,0,1,.25-.18.77.77,0,0,1,.64,0,.76.76,0,0,1,.26.18.68.68,0,0,1,.18.26A.71.71,0,0,1,260.52,158.25Z"/><path d="M263.22,161.32a4.6,4.6,0,0,1,.46-.43,2.83,2.83,0,0,1,.51-.34,2.78,2.78,0,0,1,.57-.21,2.69,2.69,0,0,1,.65-.08,2.42,2.42,0,0,1,1,.18,1.94,1.94,0,0,1,.69.51,2.38,2.38,0,0,1,.42.79,3.64,3.64,0,0,1,.14,1V167h-1.17v-4.19a1.75,1.75,0,0,0-.34-1.16,1.23,1.23,0,0,0-1-.41,2,2,0,0,0-1,.24,3.22,3.22,0,0,0-.82.67V167h-1.17v-6.58h.7a.28.28,0,0,1,.3.24Z"/><path d="M269.22,161.3a3.67,3.67,0,0,1,1.17-.79,3.71,3.71,0,0,1,1.4-.26,2.48,2.48,0,0,1,1,.18,1.89,1.89,0,0,1,.72.51,2.16,2.16,0,0,1,.45.78,3.31,3.31,0,0,1,.15,1V167h-.52a.6.6,0,0,1-.26,0,.37.37,0,0,1-.14-.22l-.13-.63a4.85,4.85,0,0,1-.51.43,2.75,2.75,0,0,1-.52.31,2.64,2.64,0,0,1-.58.2,3.62,3.62,0,0,1-.69.06,2.46,2.46,0,0,1-.72-.1,1.77,1.77,0,0,1-.59-.32,1.71,1.71,0,0,1-.39-.55,1.82,1.82,0,0,1-.15-.77,1.39,1.39,0,0,1,.22-.75,1.8,1.8,0,0,1,.69-.64,4.45,4.45,0,0,1,1.26-.46,9.52,9.52,0,0,1,1.89-.21v-.51a1.76,1.76,0,0,0-.33-1.16,1.19,1.19,0,0,0-1-.39,2.09,2.09,0,0,0-.71.1,2.33,2.33,0,0,0-.5.24l-.37.24a.53.53,0,0,1-.3.11.32.32,0,0,1-.2-.06.54.54,0,0,1-.15-.15ZM273,164a9.81,9.81,0,0,0-1.36.12,3.82,3.82,0,0,0-.91.27,1.28,1.28,0,0,0-.52.38.87.87,0,0,0-.16.49,1,1,0,0,0,.09.45.72.72,0,0,0,.23.31,1,1,0,0,0,.34.18,2,2,0,0,0,.43.05,2.47,2.47,0,0,0,.56-.06,2,2,0,0,0,.48-.18,2.36,2.36,0,0,0,.42-.28,3.44,3.44,0,0,0,.4-.37Z"/><path d="M281.87,167h-1.16v-5.61h-3.39v3.95a.84.84,0,0,0,.2.61.7.7,0,0,0,.52.21,1,1,0,0,0,.32-.05l.23-.11.17-.11a.17.17,0,0,1,.28.06l.34.56a2.29,2.29,0,0,1-.73.44,2.57,2.57,0,0,1-.87.15,1.59,1.59,0,0,1-1.2-.43,1.73,1.73,0,0,1-.42-1.25v-4h-.79a.24.24,0,0,1-.17-.07.23.23,0,0,1-.08-.19v-.46l1.08-.14.27-2a.24.24,0,0,1,.09-.16.24.24,0,0,1,.18-.06h.58v2.27h4.55Zm.29-8.7a.68.68,0,0,1-.07.32,1.2,1.2,0,0,1-.18.26,1,1,0,0,1-.27.17.67.67,0,0,1-.31.07A.68.68,0,0,1,281,159a.76.76,0,0,1-.43-.43.68.68,0,0,1-.07-.32.71.71,0,0,1,.07-.32.78.78,0,0,1,.17-.26.76.76,0,0,1,.26-.18.68.68,0,0,1,.32-.07.67.67,0,0,1,.31.07.8.8,0,0,1,.27.18,1,1,0,0,1,.18.26A.71.71,0,0,1,282.16,158.25Z"/><path d="M286.55,160.26a3.38,3.38,0,0,1,1.3.24,2.73,2.73,0,0,1,1,.69,2.82,2.82,0,0,1,.63,1.06,4.17,4.17,0,0,1,.22,1.41,4.11,4.11,0,0,1-.22,1.4,2.86,2.86,0,0,1-.63,1.07,2.68,2.68,0,0,1-1,.67,3.67,3.67,0,0,1-2.61,0,2.75,2.75,0,0,1-1-.67,3,3,0,0,1-.62-1.07,4.11,4.11,0,0,1-.22-1.4,4.17,4.17,0,0,1,.22-1.41,2.94,2.94,0,0,1,.62-1.06,2.8,2.8,0,0,1,1-.69A3.36,3.36,0,0,1,286.55,160.26Zm0,5.88a1.69,1.69,0,0,0,1.45-.65,3.73,3.73,0,0,0,0-3.66,1.67,1.67,0,0,0-1.45-.66,2.06,2.06,0,0,0-.86.17,1.65,1.65,0,0,0-.62.49,2.16,2.16,0,0,0-.36.78,4.21,4.21,0,0,0-.12,1,3.06,3.06,0,0,0,.48,1.83A1.75,1.75,0,0,0,286.55,166.14Z"/><path d="M292.23,161.32a4.6,4.6,0,0,1,.46-.43,2.83,2.83,0,0,1,.51-.34,2.78,2.78,0,0,1,.57-.21,2.69,2.69,0,0,1,.65-.08,2.42,2.42,0,0,1,1,.18,1.82,1.82,0,0,1,.68.51,2.07,2.07,0,0,1,.42.79,3.31,3.31,0,0,1,.15,1V167h-1.17v-4.19a1.75,1.75,0,0,0-.34-1.16,1.25,1.25,0,0,0-1-.41,2,2,0,0,0-1,.24,3.44,3.44,0,0,0-.83.67V167h-1.16v-6.58h.7a.28.28,0,0,1,.3.24Z"/><path d="M303.26,167H302v-9.31h1.26Z"/><path d="M308.39,157.64a5.31,5.31,0,0,1,1.53.2,3.06,3.06,0,0,1,1.09.58,2.55,2.55,0,0,1,.64.91,3.27,3.27,0,0,1,.21,1.19,3,3,0,0,1-.23,1.19,2.46,2.46,0,0,1-.67.93,3.14,3.14,0,0,1-1.08.61,4.82,4.82,0,0,1-1.49.22h-1.5V167h-1.25v-9.31Zm0,4.83a2.79,2.79,0,0,0,.95-.15,1.87,1.87,0,0,0,.69-.4,1.65,1.65,0,0,0,.43-.61,2.22,2.22,0,0,0,.14-.79,1.77,1.77,0,0,0-.55-1.39,2.4,2.4,0,0,0-1.66-.5h-1.5v3.84Z"/><path d="M323.55,167h-1a.46.46,0,0,1-.27-.08.48.48,0,0,1-.15-.22l-.87-2.25H317.1l-.88,2.25a.38.38,0,0,1-.15.21.4.4,0,0,1-.27.09h-1l3.72-9.31h1.27Zm-2.63-3.46-1.46-3.79c0-.11-.09-.24-.14-.39s-.09-.31-.13-.48a7.75,7.75,0,0,1-.28.88l-1.46,3.78Z"/><path d="M329.81,157.38V167h-.69a.29.29,0,0,1-.31-.24l-.11-.8a3.55,3.55,0,0,1-1,.82,2.42,2.42,0,0,1-1.25.31,2.31,2.31,0,0,1-1-.22,2,2,0,0,1-.79-.64,3,3,0,0,1-.5-1.05,5.27,5.27,0,0,1-.18-1.45,4.49,4.49,0,0,1,.2-1.35,3.4,3.4,0,0,1,.56-1.09,2.63,2.63,0,0,1,.89-.73,2.75,2.75,0,0,1,1.2-.26,2.49,2.49,0,0,1,1,.2,2.53,2.53,0,0,1,.77.57v-3.64Zm-1.16,4.55a1.76,1.76,0,0,0-.7-.6,1.92,1.92,0,0,0-.84-.18,1.66,1.66,0,0,0-1.42.66,3.13,3.13,0,0,0-.49,1.87,4.91,4.91,0,0,0,.11,1.1,2.13,2.13,0,0,0,.33.76,1.27,1.27,0,0,0,.52.43,1.8,1.8,0,0,0,.71.14,1.91,1.91,0,0,0,1-.26,3,3,0,0,0,.78-.74Z"/><path d="M337.09,157.38V167h-.69a.29.29,0,0,1-.31-.24l-.11-.8a3.55,3.55,0,0,1-1,.82,2.4,2.4,0,0,1-1.24.31,2.32,2.32,0,0,1-1-.22,2,2,0,0,1-.79-.64,3,3,0,0,1-.5-1.05,5.27,5.27,0,0,1-.18-1.45,4.49,4.49,0,0,1,.2-1.35,3.4,3.4,0,0,1,.56-1.09,2.63,2.63,0,0,1,.89-.73,2.75,2.75,0,0,1,1.2-.26,2.49,2.49,0,0,1,1,.2,2.53,2.53,0,0,1,.77.57v-3.64Zm-1.16,4.55a1.76,1.76,0,0,0-.7-.6,1.92,1.92,0,0,0-.84-.18,1.65,1.65,0,0,0-1.41.66,3.06,3.06,0,0,0-.5,1.87,4.91,4.91,0,0,0,.11,1.1,2.13,2.13,0,0,0,.33.76,1.27,1.27,0,0,0,.52.43,1.8,1.8,0,0,0,.71.14,1.91,1.91,0,0,0,1-.26,3,3,0,0,0,.78-.74Z"/><path d="M340,161.69a2.91,2.91,0,0,1,.77-1.06,1.68,1.68,0,0,1,1.11-.38,1.33,1.33,0,0,1,.4.05.94.94,0,0,1,.34.14l-.08.86a.19.19,0,0,1-.2.16l-.27,0a1.56,1.56,0,0,0-.39,0,1.6,1.6,0,0,0-.56.09,1.21,1.21,0,0,0-.43.27,1.74,1.74,0,0,0-.35.44,4.17,4.17,0,0,0-.27.6V167h-1.17v-6.58h.66a.38.38,0,0,1,.27.07.45.45,0,0,1,.09.24Z"/><path d="M348.73,166a2.22,2.22,0,0,1-.51.45,3.82,3.82,0,0,1-.64.32,4.41,4.41,0,0,1-1.43.24,3.44,3.44,0,0,1-1.26-.23,2.7,2.7,0,0,1-1-.68,3.08,3.08,0,0,1-.66-1.1,4.59,4.59,0,0,1-.23-1.5,3.88,3.88,0,0,1,.21-1.29,3.07,3.07,0,0,1,.61-1,2.85,2.85,0,0,1,1-.69,3.3,3.3,0,0,1,1.29-.25,3,3,0,0,1,1.09.2,2.35,2.35,0,0,1,.87.57,2.58,2.58,0,0,1,.58.93,3.45,3.45,0,0,1,.2,1.25.75.75,0,0,1-.05.36.25.25,0,0,1-.22.09h-4.41a4.2,4.2,0,0,0,.18,1.09,2.28,2.28,0,0,0,.42.77,1.84,1.84,0,0,0,.65.46,2.3,2.3,0,0,0,.85.15,2.39,2.39,0,0,0,.75-.1,3.54,3.54,0,0,0,.54-.22,4,4,0,0,0,.38-.21.48.48,0,0,1,.27-.1.25.25,0,0,1,.22.11Zm-.94-3.09a2.21,2.21,0,0,0-.11-.74,1.75,1.75,0,0,0-.33-.58,1.54,1.54,0,0,0-.53-.37,1.76,1.76,0,0,0-.71-.14,1.78,1.78,0,0,0-1.31.49,2.24,2.24,0,0,0-.61,1.34Z"/><path d="M354.09,161.45a.26.26,0,0,1-.24.14.4.4,0,0,1-.22-.07l-.31-.16c-.12-.05-.26-.11-.42-.16a2.08,2.08,0,0,0-.59-.07,1.68,1.68,0,0,0-.52.07,1.17,1.17,0,0,0-.4.21.83.83,0,0,0-.26.3.77.77,0,0,0-.08.37.59.59,0,0,0,.14.42,1.35,1.35,0,0,0,.39.3,4.65,4.65,0,0,0,.54.22l.63.2c.22.07.42.15.63.23a2.44,2.44,0,0,1,.54.33,1.53,1.53,0,0,1,.39.48,1.42,1.42,0,0,1,.15.68,2.32,2.32,0,0,1-.16.84,1.79,1.79,0,0,1-.49.67,2.27,2.27,0,0,1-.78.44,3.11,3.11,0,0,1-1.06.16,3.26,3.26,0,0,1-2.2-.79l.27-.45a.53.53,0,0,1,.13-.13.34.34,0,0,1,.18,0,.45.45,0,0,1,.25.09l.31.2a3.18,3.18,0,0,0,.45.2,2.13,2.13,0,0,0,.67.09,1.78,1.78,0,0,0,.59-.09,1.06,1.06,0,0,0,.42-.23,1,1,0,0,0,.33-.76.71.71,0,0,0-.14-.45,1.22,1.22,0,0,0-.39-.31,3.15,3.15,0,0,0-.55-.22l-.63-.2a5.87,5.87,0,0,1-.63-.24,2.29,2.29,0,0,1-.55-.33,1.61,1.61,0,0,1-.39-.5,1.71,1.71,0,0,1-.14-.72,1.79,1.79,0,0,1,.15-.72,1.82,1.82,0,0,1,.46-.61,2.09,2.09,0,0,1,.73-.42,2.8,2.8,0,0,1,1-.16,3,3,0,0,1,1.16.21,2.59,2.59,0,0,1,.9.56Z"/><path d="M359.72,161.45a.26.26,0,0,1-.24.14.46.46,0,0,1-.23-.07l-.3-.16c-.12-.05-.26-.11-.42-.16a2.08,2.08,0,0,0-.59-.07,1.79,1.79,0,0,0-.53.07,1.22,1.22,0,0,0-.39.21.75.75,0,0,0-.26.3.78.78,0,0,0-.09.37.6.6,0,0,0,.15.42,1.35,1.35,0,0,0,.39.3,4.65,4.65,0,0,0,.54.22l.63.2.63.23a2.44,2.44,0,0,1,.54.33,1.53,1.53,0,0,1,.39.48,1.42,1.42,0,0,1,.15.68,2.14,2.14,0,0,1-.17.84,1.76,1.76,0,0,1-.48.67,2.27,2.27,0,0,1-.78.44,3.11,3.11,0,0,1-1.06.16,3.26,3.26,0,0,1-2.2-.79l.27-.45a.53.53,0,0,1,.13-.13.3.3,0,0,1,.18,0,.45.45,0,0,1,.25.09l.31.2a2.74,2.74,0,0,0,.45.2,2.13,2.13,0,0,0,.67.09,1.78,1.78,0,0,0,.59-.09,1.06,1.06,0,0,0,.42-.23.94.94,0,0,0,.25-.35,1.11,1.11,0,0,0,.08-.41.71.71,0,0,0-.14-.45,1.22,1.22,0,0,0-.39-.31,3.5,3.5,0,0,0-.55-.22l-.63-.2a5.87,5.87,0,0,1-.63-.24,2.29,2.29,0,0,1-.55-.33,1.61,1.61,0,0,1-.39-.5,1.57,1.57,0,0,1-.14-.72,1.79,1.79,0,0,1,.15-.72,1.82,1.82,0,0,1,.46-.61,2.09,2.09,0,0,1,.73-.42,2.8,2.8,0,0,1,1-.16,3,3,0,0,1,1.16.21,2.68,2.68,0,0,1,.9.56Z"/><path d="M209.14,195.91a5.37,5.37,0,0,1-.33,1.92,4.49,4.49,0,0,1-.94,1.51,4.3,4.3,0,0,1-1.45,1,4.77,4.77,0,0,1-1.88.35,4.72,4.72,0,0,1-1.87-.35,4.3,4.3,0,0,1-1.45-1,4.65,4.65,0,0,1-.94-1.51,5.75,5.75,0,0,1,0-3.84,4.65,4.65,0,0,1,.94-1.51,4.18,4.18,0,0,1,1.45-1,4.72,4.72,0,0,1,1.87-.35,4.77,4.77,0,0,1,1.88.35,4.18,4.18,0,0,1,1.45,1,4.49,4.49,0,0,1,.94,1.51A5.37,5.37,0,0,1,209.14,195.91Zm-1.3,0a4.62,4.62,0,0,0-.23-1.54,3.31,3.31,0,0,0-.66-1.15,2.84,2.84,0,0,0-1-.73,3.56,3.56,0,0,0-1.37-.25,3.51,3.51,0,0,0-1.36.25,2.93,2.93,0,0,0-1,.73,3.17,3.17,0,0,0-.67,1.15,5.27,5.27,0,0,0,0,3.08,3.35,3.35,0,0,0,.67,1.15,3,3,0,0,0,1,.72,3.51,3.51,0,0,0,1.36.25,3.56,3.56,0,0,0,1.37-.25,2.94,2.94,0,0,0,1-.72,3.5,3.5,0,0,0,.66-1.15A4.66,4.66,0,0,0,207.84,195.91Z"/><path d="M211.64,195a3.59,3.59,0,0,1,1-.83,2.57,2.57,0,0,1,1.25-.31,2.29,2.29,0,0,1,1,.22,2.21,2.21,0,0,1,.79.64,3.16,3.16,0,0,1,.5,1.06,5.27,5.27,0,0,1,.18,1.45,4.49,4.49,0,0,1-.2,1.35,3.4,3.4,0,0,1-.56,1.09,2.52,2.52,0,0,1-.9.72,2.57,2.57,0,0,1-1.19.26,2.38,2.38,0,0,1-1-.2,2.49,2.49,0,0,1-.76-.57v2.91h-1.17V194h.7a.29.29,0,0,1,.31.24Zm.06,4a1.92,1.92,0,0,0,.69.6,2,2,0,0,0,.85.18,1.68,1.68,0,0,0,1.42-.66,3.06,3.06,0,0,0,.49-1.87,5.08,5.08,0,0,0-.11-1.11,2.26,2.26,0,0,0-.33-.75,1.32,1.32,0,0,0-.53-.44,1.76,1.76,0,0,0-.71-.13,1.83,1.83,0,0,0-1,.26,3,3,0,0,0-.78.73Z"/><path d="M223.85,200.56h-1.16V195H219.3v4a.83.83,0,0,0,.2.62.72.72,0,0,0,.52.2.91.91,0,0,0,.31-.05,1.33,1.33,0,0,0,.24-.11l.16-.1a.19.19,0,0,1,.12-.05.18.18,0,0,1,.16.11l.34.55a2.18,2.18,0,0,1-.72.44,2.58,2.58,0,0,1-.87.16,1.59,1.59,0,0,1-1.2-.44,1.73,1.73,0,0,1-.42-1.25v-4h-.79a.28.28,0,0,1-.18-.06.26.26,0,0,1-.07-.2v-.46l1.08-.14.27-2a.3.3,0,0,1,.08-.16.28.28,0,0,1,.18-.06h.59v2.27h4.55Zm.28-8.69a.81.81,0,0,1-.06.31,1,1,0,0,1-.19.26.78.78,0,0,1-.26.17.71.71,0,0,1-.32.07.64.64,0,0,1-.31-.07.78.78,0,0,1-.26-.17,1.2,1.2,0,0,1-.18-.26.81.81,0,0,1-.06-.31.83.83,0,0,1,.06-.32.91.91,0,0,1,.18-.27.68.68,0,0,1,.26-.18.78.78,0,0,1,.31-.07.88.88,0,0,1,.32.07.68.68,0,0,1,.26.18.77.77,0,0,1,.19.27A.83.83,0,0,1,224.13,191.87Z"/><path d="M228.52,193.88a3.35,3.35,0,0,1,1.3.24,2.66,2.66,0,0,1,1,.68,3.06,3.06,0,0,1,.63,1.07,4.77,4.77,0,0,1,0,2.8,3.16,3.16,0,0,1-.63,1.07,2.78,2.78,0,0,1-1,.68,3.35,3.35,0,0,1-1.3.23,3.43,3.43,0,0,1-1.31-.23,2.78,2.78,0,0,1-1-.68,3.16,3.16,0,0,1-.63-1.07,4.33,4.33,0,0,1-.22-1.4,4.37,4.37,0,0,1,.22-1.4,3.06,3.06,0,0,1,.63-1.07,2.66,2.66,0,0,1,1-.68A3.43,3.43,0,0,1,228.52,193.88Zm0,5.87a1.71,1.71,0,0,0,1.46-.65,3.73,3.73,0,0,0,0-3.66,1.68,1.68,0,0,0-1.46-.65,2.06,2.06,0,0,0-.86.16,1.64,1.64,0,0,0-.61.49,2.26,2.26,0,0,0-.37.78,4.21,4.21,0,0,0-.12,1.05,3.06,3.06,0,0,0,.49,1.83A1.72,1.72,0,0,0,228.52,199.75Z"/><path d="M234.21,194.93a3.64,3.64,0,0,1,.45-.43,3.48,3.48,0,0,1,.51-.34,2.65,2.65,0,0,1,1.23-.28,2.34,2.34,0,0,1,.95.17,1.78,1.78,0,0,1,.69.51,2.38,2.38,0,0,1,.42.79,3.64,3.64,0,0,1,.14,1v4.19h-1.16v-4.19a1.82,1.82,0,0,0-.34-1.16,1.3,1.3,0,0,0-1-.41,1.91,1.91,0,0,0-1,.25,3.13,3.13,0,0,0-.82.66v4.85h-1.16V194h.69a.29.29,0,0,1,.31.24Z"/><path d="M244.21,195.06a.27.27,0,0,1-.25.15.61.61,0,0,1-.22-.07l-.3-.16a2.81,2.81,0,0,0-.42-.17,2.08,2.08,0,0,0-.59-.07,1.79,1.79,0,0,0-.53.07,1.27,1.27,0,0,0-.4.21,1,1,0,0,0-.25.3.81.81,0,0,0-.09.37.64.64,0,0,0,.15.43,1.32,1.32,0,0,0,.39.29,3.37,3.37,0,0,0,.54.22l.63.2q.31.1.63.24a2.08,2.08,0,0,1,.54.32,1.53,1.53,0,0,1,.39.48,1.42,1.42,0,0,1,.15.68,2.14,2.14,0,0,1-.17.84,1.76,1.76,0,0,1-.48.67,2.12,2.12,0,0,1-.78.44,3.14,3.14,0,0,1-1.06.17,3.34,3.34,0,0,1-2.2-.8l.27-.44a.4.4,0,0,1,.13-.13.3.3,0,0,1,.18-.05.4.4,0,0,1,.24.09l.32.2a2.38,2.38,0,0,0,.45.21,2.13,2.13,0,0,0,.67.09,1.78,1.78,0,0,0,.59-.09,1.32,1.32,0,0,0,.42-.24.91.91,0,0,0,.25-.34,1.16,1.16,0,0,0,.08-.42.68.68,0,0,0-.15-.45A1.2,1.2,0,0,0,243,198a4.84,4.84,0,0,0-.55-.22l-.63-.2c-.22-.07-.43-.15-.63-.23a2,2,0,0,1-.55-.34,1.5,1.5,0,0,1-.39-.5,1.53,1.53,0,0,1-.14-.71,1.72,1.72,0,0,1,.61-1.34,2,2,0,0,1,.73-.42,3.44,3.44,0,0,1,2.16.05,2.85,2.85,0,0,1,.9.56Z"/><path d="M471,191.25a5.43,5.43,0,0,1,1.54.2,2.8,2.8,0,0,1,1.08.59,2.25,2.25,0,0,1,.64.91,3.18,3.18,0,0,1,.21,1.18,3.13,3.13,0,0,1-.22,1.2,2.76,2.76,0,0,1-.67.92,3,3,0,0,1-1.09.61,4.5,4.5,0,0,1-1.49.22h-1.49v3.48h-1.26v-9.31Zm0,4.83a3.13,3.13,0,0,0,1-.14,2.12,2.12,0,0,0,.69-.4,1.69,1.69,0,0,0,.43-.62,2.22,2.22,0,0,0,.14-.79,1.79,1.79,0,0,0-.55-1.39,2.43,2.43,0,0,0-1.67-.5h-1.49v3.84Z"/><path d="M475.39,194.91a3.88,3.88,0,0,1,1.18-.79,3.66,3.66,0,0,1,1.39-.26,2.48,2.48,0,0,1,1,.18,2.28,2.28,0,0,1,.73.51,2.25,2.25,0,0,1,.44.79,3.24,3.24,0,0,1,.15,1v4.21h-.52a.5.5,0,0,1-.26-.05.42.42,0,0,1-.14-.22l-.13-.62a4.71,4.71,0,0,1-.51.42,2.25,2.25,0,0,1-.51.31,2.93,2.93,0,0,1-.59.2,3.47,3.47,0,0,1-.68.07,2.36,2.36,0,0,1-.72-.11,1.6,1.6,0,0,1-.59-.32,1.47,1.47,0,0,1-.4-.54,1.87,1.87,0,0,1-.14-.78,1.47,1.47,0,0,1,.21-.75,1.8,1.8,0,0,1,.69-.64,4.57,4.57,0,0,1,1.26-.46,9,9,0,0,1,1.9-.2v-.52a1.76,1.76,0,0,0-.33-1.16,1.22,1.22,0,0,0-1-.39,1.88,1.88,0,0,0-.72.11,2.59,2.59,0,0,0-.5.24c-.14.08-.26.17-.37.24a.51.51,0,0,1-.3.1.34.34,0,0,1-.2-.06.5.5,0,0,1-.14-.15Zm3.74,2.69a9.37,9.37,0,0,0-1.36.13,3.52,3.52,0,0,0-.92.26,1.26,1.26,0,0,0-.51.38.83.83,0,0,0-.16.5,1.06,1.06,0,0,0,.08.45.86.86,0,0,0,.23.3.83.83,0,0,0,.35.18,1.42,1.42,0,0,0,.42.06,2,2,0,0,0,.56-.07,2,2,0,0,0,.48-.18,2.8,2.8,0,0,0,.43-.27,4.67,4.67,0,0,0,.4-.38Z"/><path d="M487.47,191v9.57h-.69a.29.29,0,0,1-.31-.24l-.11-.8a3.55,3.55,0,0,1-1,.82,2.44,2.44,0,0,1-1.25.31,2.5,2.5,0,0,1-1-.21,2.18,2.18,0,0,1-.78-.64,3,3,0,0,1-.5-1.06,5.27,5.27,0,0,1-.18-1.45,4.54,4.54,0,0,1,.2-1.35,3.22,3.22,0,0,1,.56-1.09,2.49,2.49,0,0,1,.89-.72,2.57,2.57,0,0,1,1.19-.27,2.32,2.32,0,0,1,1.81.78V191Zm-1.16,4.56a1.87,1.87,0,0,0-.7-.61,2,2,0,0,0-.85-.17,1.65,1.65,0,0,0-1.41.65,3.06,3.06,0,0,0-.49,1.87,5.08,5.08,0,0,0,.11,1.11,2.15,2.15,0,0,0,.32.75,1.28,1.28,0,0,0,.53.43,1.76,1.76,0,0,0,.71.14,1.93,1.93,0,0,0,1-.26,2.84,2.84,0,0,0,.78-.74Z"/><path d="M494.75,191v9.57h-.69a.29.29,0,0,1-.31-.24l-.11-.8a3.55,3.55,0,0,1-1,.82,2.44,2.44,0,0,1-1.25.31,2.5,2.5,0,0,1-1-.21,2.18,2.18,0,0,1-.78-.64,3,3,0,0,1-.5-1.06,5.27,5.27,0,0,1-.18-1.45,4.54,4.54,0,0,1,.2-1.35,3.22,3.22,0,0,1,.56-1.09,2.49,2.49,0,0,1,.89-.72,2.57,2.57,0,0,1,1.19-.27,2.32,2.32,0,0,1,1.81.78V191Zm-1.16,4.56a1.87,1.87,0,0,0-.7-.61,1.93,1.93,0,0,0-.85-.17,1.65,1.65,0,0,0-1.41.65,3.06,3.06,0,0,0-.49,1.87,5.08,5.08,0,0,0,.11,1.11,2.15,2.15,0,0,0,.32.75,1.28,1.28,0,0,0,.53.43,1.76,1.76,0,0,0,.71.14,1.93,1.93,0,0,0,1-.26,2.84,2.84,0,0,0,.78-.74Z"/><path d="M498.05,191.91a.68.68,0,0,1-.07.32,1.2,1.2,0,0,1-.18.26,1.27,1.27,0,0,1-.27.18.88.88,0,0,1-.64,0,1.14,1.14,0,0,1-.25-.18.93.93,0,0,1-.18-.26.83.83,0,0,1-.06-.32.87.87,0,0,1,.06-.32,1,1,0,0,1,.18-.27.85.85,0,0,1,.25-.17.77.77,0,0,1,.64,0,1,1,0,0,1,.27.17,1.27,1.27,0,0,1,.18.27A.71.71,0,0,1,498.05,191.91ZM497.8,194v6.58h-1.16V194Z"/><path d="M500.79,194.93a3.72,3.72,0,0,1,.46-.43,3.48,3.48,0,0,1,.51-.34,2.78,2.78,0,0,1,.57-.21,2.7,2.7,0,0,1,.65-.07,2.34,2.34,0,0,1,.95.17,1.78,1.78,0,0,1,.69.51,2.07,2.07,0,0,1,.42.79,3.31,3.31,0,0,1,.15,1v4.19H504v-4.19a1.76,1.76,0,0,0-.34-1.16,1.28,1.28,0,0,0-1-.41,1.85,1.85,0,0,0-.95.25,3,3,0,0,0-.83.66v4.85H499.7V194h.7a.28.28,0,0,1,.3.24Z"/><path d="M512.51,194.24v.43q0,.21-.27.27l-.75.1a2,2,0,0,1,.22,1,2.05,2.05,0,0,1-.18.87,2.29,2.29,0,0,1-.51.68,2.43,2.43,0,0,1-.78.42,3.21,3.21,0,0,1-1,.15,3.05,3.05,0,0,1-.87-.11,1.13,1.13,0,0,0-.32.28.45.45,0,0,0-.11.3.39.39,0,0,0,.19.35,1.34,1.34,0,0,0,.5.17,4.88,4.88,0,0,0,.72.07c.26,0,.53,0,.81,0a7.07,7.07,0,0,1,.82.1,2.37,2.37,0,0,1,.71.23,1.39,1.39,0,0,1,.51.45,1.29,1.29,0,0,1,.19.74,1.72,1.72,0,0,1-.21.82,2.14,2.14,0,0,1-.61.71,3.15,3.15,0,0,1-1,.49,4.34,4.34,0,0,1-1.3.19,4.73,4.73,0,0,1-1.26-.15,2.87,2.87,0,0,1-.9-.38,1.75,1.75,0,0,1-.53-.56,1.31,1.31,0,0,1-.18-.66,1.15,1.15,0,0,1,.31-.82,2,2,0,0,1,.83-.54,1.17,1.17,0,0,1-.46-.35.88.88,0,0,1-.17-.59.77.77,0,0,1,.05-.29,1.15,1.15,0,0,1,.16-.31,1.75,1.75,0,0,1,.26-.29,2.25,2.25,0,0,1,.36-.24A2,2,0,0,1,507,197a1.92,1.92,0,0,1-.28-1,2,2,0,0,1,.19-.88,2,2,0,0,1,.51-.67,2.48,2.48,0,0,1,.79-.42,3.24,3.24,0,0,1,1-.15,3.44,3.44,0,0,1,.8.09,2.87,2.87,0,0,1,.67.28Zm-1.18,6.68a.56.56,0,0,0-.13-.39.87.87,0,0,0-.37-.23,2,2,0,0,0-.54-.12,6.33,6.33,0,0,0-.64-.06l-.69,0c-.24,0-.46,0-.68-.06a1.9,1.9,0,0,0-.6.42.91.91,0,0,0-.23.61.78.78,0,0,0,.12.41.86.86,0,0,0,.35.33,2,2,0,0,0,.58.22,4.13,4.13,0,0,0,.84.08,4.28,4.28,0,0,0,.84-.08,2.36,2.36,0,0,0,.62-.24,1.2,1.2,0,0,0,.4-.37A.91.91,0,0,0,511.33,200.92Zm-2.08-3.57a1.85,1.85,0,0,0,.61-.1,1.42,1.42,0,0,0,.45-.27,1.07,1.07,0,0,0,.28-.42,1.61,1.61,0,0,0,.09-.54,1.27,1.27,0,0,0-.37-1,1.76,1.76,0,0,0-2.13,0,1.27,1.27,0,0,0-.37,1,1.4,1.4,0,0,0,.1.54,1.17,1.17,0,0,0,.27.42,1.42,1.42,0,0,0,.45.27A1.92,1.92,0,0,0,509.25,197.35Z"/><path class="cls-3" d="M544.44,210.82v91.3s-112.61-6.54-196.33,15.58c-87.84,23.2-141.75,48.6-194.32,40.16S49.62,319,49.62,319V210.82Z"/><path d="M270.26,264.39a10.73,10.73,0,0,1-.68,3.89,8.66,8.66,0,0,1-1.91,3,8.44,8.44,0,0,1-3,1.93,10.22,10.22,0,0,1-3.82.68H253.8v-19h7.09a10.43,10.43,0,0,1,3.82.68,8.46,8.46,0,0,1,3,1.94,8.61,8.61,0,0,1,1.91,3A10.71,10.71,0,0,1,270.26,264.39Zm-2.64,0a9.52,9.52,0,0,0-.48-3.13,6.77,6.77,0,0,0-1.35-2.33,5.87,5.87,0,0,0-2.12-1.46,7.48,7.48,0,0,0-2.78-.5h-4.52V271.8h4.52a7.48,7.48,0,0,0,2.78-.5,5.85,5.85,0,0,0,2.12-1.45,6.59,6.59,0,0,0,1.35-2.33A9.48,9.48,0,0,0,267.62,264.39Z"/><path d="M272.71,262.35a7.64,7.64,0,0,1,2.4-1.6,7.49,7.49,0,0,1,2.85-.53,5,5,0,0,1,2,.37,4.2,4.2,0,0,1,1.47,1,4.37,4.37,0,0,1,.9,1.61,6.41,6.41,0,0,1,.31,2.06v8.59h-1.05a1,1,0,0,1-.53-.11.75.75,0,0,1-.29-.44l-.27-1.28a11.08,11.08,0,0,1-1,.87,6.1,6.1,0,0,1-1.06.64,6.4,6.4,0,0,1-1.19.4,6.67,6.67,0,0,1-1.4.13,5,5,0,0,1-1.47-.21,3.5,3.5,0,0,1-1.2-.66,2.94,2.94,0,0,1-.8-1.11,3.81,3.81,0,0,1-.3-1.58,3,3,0,0,1,.43-1.53,4,4,0,0,1,1.42-1.31,9.32,9.32,0,0,1,2.56-.93,20,20,0,0,1,3.87-.42v-1a3.52,3.52,0,0,0-.68-2.36,2.4,2.4,0,0,0-2-.8,4.38,4.38,0,0,0-1.46.21,5.82,5.82,0,0,0-1,.5c-.28.18-.53.34-.74.49a1.11,1.11,0,0,1-.61.22.69.69,0,0,1-.41-.13,1.11,1.11,0,0,1-.3-.31Zm7.62,5.49a18.55,18.55,0,0,0-2.78.26,8.07,8.07,0,0,0-1.86.53,2.58,2.58,0,0,0-1.05.79,1.64,1.64,0,0,0-.33,1,2.16,2.16,0,0,0,.18.92,1.74,1.74,0,0,0,.47.63,1.94,1.94,0,0,0,.7.36,3.45,3.45,0,0,0,.87.11,4.57,4.57,0,0,0,1.14-.13,4,4,0,0,0,1-.36,5.51,5.51,0,0,0,.88-.57,7.11,7.11,0,0,0,.81-.76Z"/><path d="M290.18,274.09a3.25,3.25,0,0,1-2.45-.88,3.55,3.55,0,0,1-.85-2.56v-8.22h-1.62a.56.56,0,0,1-.36-.12.53.53,0,0,1-.14-.39V261l2.2-.27.54-4.15a.63.63,0,0,1,.18-.33.55.55,0,0,1,.37-.12h1.19v4.62h3.88v1.71h-3.88v8.06a1.68,1.68,0,0,0,.41,1.26,1.45,1.45,0,0,0,1.06.41,1.76,1.76,0,0,0,.64-.1,2.28,2.28,0,0,0,.47-.22,2.89,2.89,0,0,0,.34-.22.47.47,0,0,1,.25-.1.42.42,0,0,1,.33.23l.69,1.13a4.52,4.52,0,0,1-1.47.89A5,5,0,0,1,290.18,274.09Z"/><path d="M295.22,262.35a7.71,7.71,0,0,1,2.39-1.6,7.51,7.51,0,0,1,2.86-.53,5.06,5.06,0,0,1,2,.37,4.2,4.2,0,0,1,1.47,1,4.37,4.37,0,0,1,.9,1.61,6.7,6.7,0,0,1,.3,2.06v8.59h-1a1,1,0,0,1-.53-.11.71.71,0,0,1-.29-.44l-.27-1.28a12.56,12.56,0,0,1-1,.87,6.1,6.1,0,0,1-1.06.64,6.66,6.66,0,0,1-1.19.4,6.73,6.73,0,0,1-1.4.13,5,5,0,0,1-1.47-.21,3.5,3.5,0,0,1-1.2-.66,3.07,3.07,0,0,1-.81-1.11,3.81,3.81,0,0,1-.3-1.58A3,3,0,0,1,295,269a3.87,3.87,0,0,1,1.42-1.31,9.2,9.2,0,0,1,2.56-.93,20,20,0,0,1,3.87-.42v-1a3.57,3.57,0,0,0-.68-2.36,2.42,2.42,0,0,0-2-.8,4.4,4.4,0,0,0-1.47.21,6.06,6.06,0,0,0-1,.5c-.29.18-.53.34-.74.49a1.12,1.12,0,0,1-.62.22.71.71,0,0,1-.41-.13,1.23,1.23,0,0,1-.29-.31Zm7.62,5.49a18.42,18.42,0,0,0-2.78.26,8.17,8.17,0,0,0-1.87.53,2.61,2.61,0,0,0-1,.79,1.64,1.64,0,0,0-.33,1,2.32,2.32,0,0,0,.17.92,1.86,1.86,0,0,0,.47.63,2.07,2.07,0,0,0,.71.36,3.37,3.37,0,0,0,.86.11,4.47,4.47,0,0,0,1.14-.13,4.1,4.1,0,0,0,1-.36,5.91,5.91,0,0,0,.87-.57,7.17,7.17,0,0,0,.82-.76Z"/><path d="M258.76,7.8v.66a.28.28,0,0,1-.06.18.27.27,0,0,1-.19.07h-1.16v2.45h-1V8.71H252.2a.33.33,0,0,1-.22-.08.27.27,0,0,1-.12-.18l-.12-.59,4.53-6h1.08v6Zm-2.43,0V4c0-.12,0-.24,0-.37s0-.28,0-.42L253,7.8Z"/><path d="M264.54,5.52a3.61,3.61,0,0,1,.94-.77,2.47,2.47,0,0,1,1.2-.28,2.38,2.38,0,0,1,1.05.22,2.21,2.21,0,0,1,.79.64,3,3,0,0,1,.49,1,4.62,4.62,0,0,1,.18,1.34,5.1,5.1,0,0,1-.2,1.46,3.36,3.36,0,0,1-.56,1.12,2.52,2.52,0,0,1-.9.72,2.66,2.66,0,0,1-1.18.26,2.14,2.14,0,0,1-1.09-.25,2.32,2.32,0,0,1-.78-.69l-.06.6a.27.27,0,0,1-.3.25h-.75V1.58h1.17Zm0,4.05a1.81,1.81,0,0,0,.7.61,2.05,2.05,0,0,0,.83.17,1.65,1.65,0,0,0,1.42-.66,3.2,3.2,0,0,0,.5-1.95A2.93,2.93,0,0,0,267.55,6a1.48,1.48,0,0,0-1.25-.57,1.87,1.87,0,0,0-1,.26,3,3,0,0,0-.77.74Z"/><path d="M276.17,4.57l-3.68,8.53a.7.7,0,0,1-.14.21.41.41,0,0,1-.27.08h-.86l1.2-2.62-2.72-6.2h1a.34.34,0,0,1,.23.08.36.36,0,0,1,.12.16L272.82,9a4.75,4.75,0,0,1,.18.57c.06-.2.13-.39.19-.58l1.71-4.14a.46.46,0,0,1,.14-.17.38.38,0,0,1,.21-.07Z"/><path d="M279.21,11.26a1.59,1.59,0,0,1-1.2-.43,1.74,1.74,0,0,1-.42-1.26v-4h-.79a.28.28,0,0,1-.18-.06.24.24,0,0,1-.07-.19V4.83l1.08-.14.27-2A.27.27,0,0,1,278,2.5a.29.29,0,0,1,.18-.07h.59V4.7h1.9v.84h-1.9v4a.81.81,0,0,0,.2.62.68.68,0,0,0,.52.2.75.75,0,0,0,.31-.05,1,1,0,0,0,.23-.1l.17-.11a.28.28,0,0,1,.12-.05.21.21,0,0,1,.16.11l.34.55a2,2,0,0,1-.72.44A2.35,2.35,0,0,1,279.21,11.26Z"/><path d="M287.16,10.23a2.29,2.29,0,0,1-.52.46A3.44,3.44,0,0,1,286,11a4,4,0,0,1-.7.19,4.37,4.37,0,0,1-.72.06,3.4,3.4,0,0,1-1.26-.23,2.87,2.87,0,0,1-1-.68,3.21,3.21,0,0,1-.65-1.1,4.65,4.65,0,0,1-.23-1.51,3.88,3.88,0,0,1,.21-1.29,3,3,0,0,1,.61-1,2.76,2.76,0,0,1,1-.69,3.11,3.11,0,0,1,1.28-.25,2.83,2.83,0,0,1,1.1.2,2.53,2.53,0,0,1,.87.57,2.76,2.76,0,0,1,.57.92,3.52,3.52,0,0,1,.21,1.25.77.77,0,0,1-.06.37.24.24,0,0,1-.22.09h-4.4A3.76,3.76,0,0,0,282.75,9a2.27,2.27,0,0,0,.43.77,1.78,1.78,0,0,0,.65.47,2.24,2.24,0,0,0,.84.15,2.8,2.8,0,0,0,.76-.1A3.54,3.54,0,0,0,286,10a3.9,3.9,0,0,0,.38-.22.57.57,0,0,1,.26-.1.25.25,0,0,1,.22.11Zm-.94-3.08a2.45,2.45,0,0,0-.11-.74,1.83,1.83,0,0,0-.33-.58,1.66,1.66,0,0,0-.53-.38,2,2,0,0,0-2,.35,2.35,2.35,0,0,0-.6,1.35Z"/><path d="M292.51,5.66a.26.26,0,0,1-.24.14.43.43,0,0,1-.22-.07l-.3-.16a2.61,2.61,0,0,0-.43-.16,2,2,0,0,0-.58-.08,1.74,1.74,0,0,0-.53.08,1.5,1.5,0,0,0-.4.2.93.93,0,0,0-.25.31.75.75,0,0,0-.09.37.6.6,0,0,0,.15.42A1.16,1.16,0,0,0,290,7a2.74,2.74,0,0,0,.55.22l.63.2c.21.08.42.15.62.24a2.29,2.29,0,0,1,.55.33,1.49,1.49,0,0,1,.39.47,1.59,1.59,0,0,1,.14.68,2.06,2.06,0,0,1-.16.84,1.88,1.88,0,0,1-.48.67,2.29,2.29,0,0,1-.78.45,3.17,3.17,0,0,1-1.07.16,3.26,3.26,0,0,1-1.24-.22,3,3,0,0,1-.95-.58l.27-.44a.38.38,0,0,1,.12-.13.36.36,0,0,1,.19-.05.42.42,0,0,1,.24.09,3.58,3.58,0,0,0,.32.21,2.4,2.4,0,0,0,.45.2,2.1,2.1,0,0,0,.66.09,1.74,1.74,0,0,0,.59-.09,1.37,1.37,0,0,0,.43-.24,1,1,0,0,0,.25-.34,1.16,1.16,0,0,0,.08-.42.68.68,0,0,0-.15-.45,1.15,1.15,0,0,0-.38-.3,3,3,0,0,0-.55-.22l-.63-.2c-.22-.07-.43-.15-.64-.24a2.4,2.4,0,0,1-.55-.34,1.44,1.44,0,0,1-.38-.49,1.59,1.59,0,0,1-.15-.72,1.64,1.64,0,0,1,.16-.72A1.71,1.71,0,0,1,289,5a2.51,2.51,0,0,1,.74-.42,3,3,0,0,1,1-.15,3.3,3.3,0,0,1,1.17.2,2.83,2.83,0,0,1,.89.57Z"/><path d="M298.31,7.07a10.52,10.52,0,0,0,.35,2.7,10.74,10.74,0,0,0,1,2.5.34.34,0,0,1,.05.31.35.35,0,0,1-.15.17l-.51.31a13,13,0,0,1-.83-1.48,9.47,9.47,0,0,1-.55-1.48,11,11,0,0,1-.31-1.49,12.85,12.85,0,0,1-.1-1.54,12.85,12.85,0,0,1,.1-1.54A11,11,0,0,1,297.71,4a9.86,9.86,0,0,1,.55-1.48,14,14,0,0,1,.83-1.48l.51.31a.43.43,0,0,1,.15.18c0,.07,0,.17-.05.3a10.85,10.85,0,0,0-1,2.49A10.66,10.66,0,0,0,298.31,7.07Z"/><path d="M301,4.36a3.43,3.43,0,0,1,.36-1.12,2.54,2.54,0,0,1,.66-.82,2.71,2.71,0,0,1,.91-.51,3.7,3.7,0,0,1,1.12-.17,3.46,3.46,0,0,1,1.09.17,2.49,2.49,0,0,1,.86.48,2.17,2.17,0,0,1,.56.75,2.26,2.26,0,0,1,.2,1,2.4,2.4,0,0,1-.11.79,1.86,1.86,0,0,1-.32.61,2.13,2.13,0,0,1-.51.44,2.91,2.91,0,0,1-.67.3,2.49,2.49,0,0,1,1.36.81A2.15,2.15,0,0,1,307,8.49a2.66,2.66,0,0,1-.24,1.15,2.55,2.55,0,0,1-.67.88,3,3,0,0,1-1,.55,3.7,3.7,0,0,1-1.21.19,4,4,0,0,1-1.27-.18,3,3,0,0,1-.89-.51,2.77,2.77,0,0,1-.59-.77,5.63,5.63,0,0,1-.4-1l.5-.21a.63.63,0,0,1,.38,0,.36.36,0,0,1,.27.21l.21.44a1.73,1.73,0,0,0,.35.48,1.82,1.82,0,0,0,.56.4,2,2,0,0,0,.87.16,2,2,0,0,0,.85-.16,1.68,1.68,0,0,0,.61-.41,1.65,1.65,0,0,0,.37-.56,1.77,1.77,0,0,0,.13-.62,2.5,2.5,0,0,0-.1-.69,1.17,1.17,0,0,0-.37-.54,1.91,1.91,0,0,0-.73-.36,4.84,4.84,0,0,0-1.19-.13V6a3.37,3.37,0,0,0,1-.13,2,2,0,0,0,.68-.33,1.37,1.37,0,0,0,.38-.52,1.76,1.76,0,0,0,.12-.66,1.86,1.86,0,0,0-.12-.7,1.41,1.41,0,0,0-.35-.5,1.55,1.55,0,0,0-.52-.29,2.34,2.34,0,0,0-.66-.1,2,2,0,0,0-.65.11,1.6,1.6,0,0,0-.53.29,1.49,1.49,0,0,0-.39.44,1.48,1.48,0,0,0-.22.55.6.6,0,0,1-.21.31.6.6,0,0,1-.37,0Z"/><path d="M314.14,10.06a.41.41,0,0,1,.3.11.36.36,0,0,1,.11.29v.7h-6.21v-.4a.74.74,0,0,1,.05-.25.78.78,0,0,1,.16-.24l3-3c.24-.25.47-.49.67-.72a5,5,0,0,0,.52-.7,3.14,3.14,0,0,0,.34-.72,2.7,2.7,0,0,0,.11-.77,1.73,1.73,0,0,0-.13-.71,1.26,1.26,0,0,0-.35-.51,1.48,1.48,0,0,0-.53-.31,2.34,2.34,0,0,0-.66-.1,1.93,1.93,0,0,0-.65.11,1.6,1.6,0,0,0-.53.29,1.49,1.49,0,0,0-.39.44,1.67,1.67,0,0,0-.22.55.5.5,0,0,1-.21.31.64.64,0,0,1-.38,0l-.6-.11a3.42,3.42,0,0,1,.35-1.12,2.82,2.82,0,0,1,1.58-1.33,3.59,3.59,0,0,1,1.11-.17,3.68,3.68,0,0,1,1.11.17,2.69,2.69,0,0,1,.89.51,2.57,2.57,0,0,1,.59.82,2.68,2.68,0,0,1,.21,1.09,3,3,0,0,1-.15,1,4.24,4.24,0,0,1-.43.85,5.5,5.5,0,0,1-.61.78c-.23.26-.48.52-.74.78L310,10.21l.53-.11a3.12,3.12,0,0,1,.52,0Z"/><path d="M320.68,5.52a3.46,3.46,0,0,1,.94-.77,2.47,2.47,0,0,1,1.2-.28,2.38,2.38,0,0,1,1.05.22,2.1,2.1,0,0,1,.78.64,2.86,2.86,0,0,1,.5,1,4.63,4.63,0,0,1,.17,1.34,5.11,5.11,0,0,1-.19,1.46,3.36,3.36,0,0,1-.56,1.12,2.52,2.52,0,0,1-.9.72,2.66,2.66,0,0,1-1.18.26A2.14,2.14,0,0,1,321.4,11a2.32,2.32,0,0,1-.78-.69l-.06.6a.27.27,0,0,1-.3.25h-.75V1.58h1.17Zm0,4.05a1.81,1.81,0,0,0,.7.61,2.05,2.05,0,0,0,.83.17,1.65,1.65,0,0,0,1.42-.66,3.2,3.2,0,0,0,.5-1.95A2.93,2.93,0,0,0,323.69,6a1.48,1.48,0,0,0-1.25-.57,1.87,1.87,0,0,0-1,.26,3,3,0,0,0-.77.74Z"/><path d="M328.26,2.51a.67.67,0,0,1-.07.31.76.76,0,0,1-.18.26.68.68,0,0,1-.26.18.93.93,0,0,1-.33.07.82.82,0,0,1-.31-.07.76.76,0,0,1-.26-.18.9.9,0,0,1-.17-.26.67.67,0,0,1-.07-.31.75.75,0,0,1,.07-.33.78.78,0,0,1,.17-.26.76.76,0,0,1,.26-.18.82.82,0,0,1,.31-.07.93.93,0,0,1,.33.07.68.68,0,0,1,.26.18.68.68,0,0,1,.18.26A.75.75,0,0,1,328.26,2.51ZM328,4.57v6.59h-1.16V4.57Z"/><path d="M331.94,11.26a1.61,1.61,0,0,1-1.21-.43,1.78,1.78,0,0,1-.41-1.26v-4h-.8a.25.25,0,0,1-.17-.06.24.24,0,0,1-.07-.19V4.83l1.08-.14.26-2a.24.24,0,0,1,.09-.16.25.25,0,0,1,.18-.07h.58V4.7h1.91v.84h-1.91v4a.85.85,0,0,0,.2.62.69.69,0,0,0,.52.2.77.77,0,0,0,.32-.05,1,1,0,0,0,.23-.1l.17-.11a.17.17,0,0,1,.28.06l.34.55a2,2,0,0,1-.72.44A2.43,2.43,0,0,1,331.94,11.26Z"/><path d="M338.41,5.66a.26.26,0,0,1-.24.14.4.4,0,0,1-.22-.07l-.3-.16a3,3,0,0,0-.43-.16,2,2,0,0,0-.59-.08,1.67,1.67,0,0,0-.52.08,1.36,1.36,0,0,0-.4.2,1,1,0,0,0-.26.31.87.87,0,0,0-.08.37.64.64,0,0,0,.14.42,1.32,1.32,0,0,0,.39.29,2.52,2.52,0,0,0,.55.22l.62.2c.22.08.43.15.63.24a2.51,2.51,0,0,1,.55.33,1.34,1.34,0,0,1,.38.47,1.45,1.45,0,0,1,.15.68,2.06,2.06,0,0,1-.16.84,1.88,1.88,0,0,1-.48.67,2.49,2.49,0,0,1-.78.45,3.21,3.21,0,0,1-1.07.16A3.31,3.31,0,0,1,335,11a3.1,3.1,0,0,1-1-.58l.28-.44a.3.3,0,0,1,.12-.13.35.35,0,0,1,.18-.05.45.45,0,0,1,.25.09l.31.21a2.88,2.88,0,0,0,.46.2,2,2,0,0,0,.66.09,1.78,1.78,0,0,0,.59-.09,1.22,1.22,0,0,0,.42-.24.81.81,0,0,0,.25-.34,1,1,0,0,0,.08-.42.67.67,0,0,0-.14-.45,1.19,1.19,0,0,0-.39-.3,2.52,2.52,0,0,0-.55-.22l-.63-.2q-.32-.11-.63-.24a2.2,2.2,0,0,1-.55-.34,1.46,1.46,0,0,1-.39-.49,1.74,1.74,0,0,1-.14-.72,1.79,1.79,0,0,1,.15-.72,1.86,1.86,0,0,1,.46-.62,2.45,2.45,0,0,1,.73-.42,3.09,3.09,0,0,1,1-.15,3.34,3.34,0,0,1,1.17.2,2.83,2.83,0,0,1,.89.57Z"/><path d="M340.88,7.07a10.66,10.66,0,0,0-.35-2.71,10.85,10.85,0,0,0-1-2.49.56.56,0,0,1-.07-.17.27.27,0,0,1,0-.13.21.21,0,0,1,.06-.1l.1-.08.51-.31a14,14,0,0,1,.83,1.48A11.09,11.09,0,0,1,341.48,4a11,11,0,0,1,.31,1.49,12.85,12.85,0,0,1,.1,1.54,12.85,12.85,0,0,1-.1,1.54,11,11,0,0,1-.31,1.49,10.6,10.6,0,0,1-.55,1.48,13,13,0,0,1-.83,1.48l-.51-.31a.39.39,0,0,1-.1-.08.18.18,0,0,1-.06-.09.31.31,0,0,1,0-.14.47.47,0,0,1,.07-.17,10.74,10.74,0,0,0,1-2.5A10.52,10.52,0,0,0,340.88,7.07Z"/><line class="cls-4" x1="240.48" y1="6.57" x2="55.59" y2="6.57"/><polygon class="cls-5" points="58.4 2.87 56.83 6.57 58.4 10.28 49.62 6.57 58.4 2.87"/><line class="cls-4" x1="351.6" y1="6.57" x2="538.03" y2="6.57"/><polygon class="cls-5" points="535.22 10.28 536.8 6.57 535.22 2.87 544 6.57 535.22 10.28"/><path d="M3.76,140.07h19v2.57H14.11v10.25h8.64v2.57h-19v-2.57h8.47V142.64H3.76Z"/><path d="M20.87,125.29a4.66,4.66,0,0,1,.92,1,6.12,6.12,0,0,1,.64,1.31,7.72,7.72,0,0,1,.38,1.43,9.35,9.35,0,0,1,.13,1.48,6.9,6.9,0,0,1-.47,2.56,5.81,5.81,0,0,1-1.38,2,6.43,6.43,0,0,1-2.25,1.33,9.08,9.08,0,0,1-3.07.48,8,8,0,0,1-2.63-.43A6.16,6.16,0,0,1,11,135.29a5.68,5.68,0,0,1-1.41-2,6.45,6.45,0,0,1-.51-2.62,6,6,0,0,1,.41-2.23,5.13,5.13,0,0,1,1.16-1.78,5.31,5.31,0,0,1,1.89-1.17,7,7,0,0,1,2.55-.43,1.54,1.54,0,0,1,.74.12.5.5,0,0,1,.18.45v9a7.93,7.93,0,0,0,2.22-.36,4.31,4.31,0,0,0,1.57-.86,3.63,3.63,0,0,0,.94-1.33,4.5,4.5,0,0,0,.31-1.72,5.21,5.21,0,0,0-.2-1.53,7.5,7.5,0,0,0-.45-1.11c-.16-.31-.31-.57-.44-.78a1,1,0,0,1-.21-.53A.51.51,0,0,1,20,126Zm-6.3,1.91a4.77,4.77,0,0,0-1.5.23,3.35,3.35,0,0,0-1.18.68,3.09,3.09,0,0,0-.77,1.08,4.09,4.09,0,0,0,.72,4.13,4.6,4.6,0,0,0,2.73,1.23Z"/><path d="M11.22,122.54a7.47,7.47,0,0,1-1.6-2.4,7.31,7.31,0,0,1-.53-2.85,5,5,0,0,1,.37-2,3.91,3.91,0,0,1,1-1.47,4.49,4.49,0,0,1,1.6-.91,6.81,6.81,0,0,1,2.07-.3h8.59v1a1.1,1.1,0,0,1-.11.53.78.78,0,0,1-.45.29l-1.27.26a12.62,12.62,0,0,1,.87,1,6.36,6.36,0,0,1,.64,1.06,5.63,5.63,0,0,1,.39,1.18,6.09,6.09,0,0,1,.14,1.4,4.71,4.71,0,0,1-.22,1.47,3.32,3.32,0,0,1-.65,1.2,3.07,3.07,0,0,1-1.11.81,3.81,3.81,0,0,1-1.58.3,3,3,0,0,1-1.53-.44,3.79,3.79,0,0,1-1.31-1.42,9.12,9.12,0,0,1-.93-2.55,18.74,18.74,0,0,1-.42-3.87H14.16a3.57,3.57,0,0,0-2.36.67,2.43,2.43,0,0,0-.81,2,4.36,4.36,0,0,0,.22,1.46,6.07,6.07,0,0,0,.49,1c.18.29.35.54.49.74a1.07,1.07,0,0,1,.22.62.69.69,0,0,1-.12.41,1.22,1.22,0,0,1-.31.29Zm5.49-7.62a18.4,18.4,0,0,0,.26,2.77,7.56,7.56,0,0,0,.53,1.87,2.62,2.62,0,0,0,.78,1,1.68,1.68,0,0,0,1,.32,2.16,2.16,0,0,0,.92-.17,1.74,1.74,0,0,0,.63-.47,1.85,1.85,0,0,0,.35-.7,3,3,0,0,0,.12-.87,4.47,4.47,0,0,0-.13-1.14,4,4,0,0,0-.36-1,5.51,5.51,0,0,0-.57-.88,7.17,7.17,0,0,0-.76-.81Z"/><path d="M3.23,97.91H22.75v1.41a.6.6,0,0,1-.49.63l-1.63.21a7.24,7.24,0,0,1,1.67,2,5,5,0,0,1,.64,2.54,4.75,4.75,0,0,1-.45,2.09,4.3,4.3,0,0,1-1.3,1.61,6.32,6.32,0,0,1-2.15,1,11,11,0,0,1-3,.36,9.39,9.39,0,0,1-2.76-.4,7.06,7.06,0,0,1-2.22-1.14,5.33,5.33,0,0,1-1.48-1.82A5.49,5.49,0,0,1,9.09,104a4.89,4.89,0,0,1,.41-2.12,5.21,5.21,0,0,1,1.16-1.57H3.23Zm9.29,2.36a3.8,3.8,0,0,0-1.24,1.43,4.16,4.16,0,0,0-.35,1.72,3.37,3.37,0,0,0,1.34,2.88,6.24,6.24,0,0,0,3.81,1,9.68,9.68,0,0,0,2.25-.23,4.37,4.37,0,0,0,1.54-.66,2.66,2.66,0,0,0,.88-1.07A3.54,3.54,0,0,0,21,103.9a3.84,3.84,0,0,0-.53-2,5.91,5.91,0,0,0-1.5-1.6Z"/><path d="M20.87,83.28a4.45,4.45,0,0,1,.92,1,6,6,0,0,1,.64,1.3,7.62,7.62,0,0,1,.38,1.44,9.12,9.12,0,0,1,.13,1.47,6.86,6.86,0,0,1-.47,2.56,5.72,5.72,0,0,1-1.38,2,6.28,6.28,0,0,1-2.25,1.33,9.08,9.08,0,0,1-3.07.48,7.76,7.76,0,0,1-2.63-.43A6.16,6.16,0,0,1,11,93.27a5.73,5.73,0,0,1-1.41-2,6.53,6.53,0,0,1-.51-2.63,6,6,0,0,1,.41-2.23,5.13,5.13,0,0,1,1.16-1.78,5.31,5.31,0,0,1,1.89-1.17,7.18,7.18,0,0,1,2.55-.42,1.54,1.54,0,0,1,.74.12.49.49,0,0,1,.18.45v9a8,8,0,0,0,2.22-.35,4.48,4.48,0,0,0,1.57-.87,3.47,3.47,0,0,0,.94-1.33,4.47,4.47,0,0,0,.31-1.72,5.31,5.31,0,0,0-.2-1.53,7.5,7.5,0,0,0-.45-1.11c-.16-.31-.31-.56-.44-.77a1,1,0,0,1-.21-.54.53.53,0,0,1,.23-.45Zm-6.3,1.91a4.5,4.5,0,0,0-1.5.23,3.33,3.33,0,0,0-1.18.67,3.09,3.09,0,0,0-.77,1.08,3.71,3.71,0,0,0-.27,1.45,3.6,3.6,0,0,0,1,2.68,4.6,4.6,0,0,0,2.73,1.23Z"/><path d="M12,77.94a6.16,6.16,0,0,1-2.16-1.57,3.39,3.39,0,0,1-.77-2.26,3.62,3.62,0,0,1,.09-.82,2.3,2.3,0,0,1,.29-.7l1.76.18a.37.37,0,0,1,.33.39,2.31,2.31,0,0,1-.08.55,4,4,0,0,0-.07.81,3.31,3.31,0,0,0,.18,1.13,2.65,2.65,0,0,0,.55.89,3.84,3.84,0,0,0,.9.7,7,7,0,0,0,1.23.56h8.48v2.38H9.32V78.82a.75.75,0,0,1,.15-.53,1,1,0,0,1,.5-.2Z"/><line class="cls-4" x1="36.34" y1="147.09" x2="36.34" y2="201.24"/><polygon class="cls-5" points="32.63 198.43 36.34 200 40.04 198.43 36.34 207.21 32.63 198.43"/><path d="M39.74,133.5a.41.41,0,0,1,.11-.3.38.38,0,0,1,.29-.11h.7v6.21h-.4a.79.79,0,0,1-.25-.05.78.78,0,0,1-.24-.16l-3-3c-.25-.24-.49-.47-.72-.67a4.52,4.52,0,0,0-.7-.52,2.67,2.67,0,0,0-.71-.33,2.43,2.43,0,0,0-.77-.12,1.78,1.78,0,0,0-.72.13,1.36,1.36,0,0,0-.51.35,1.46,1.46,0,0,0-.3.53,2.07,2.07,0,0,0-.1.66,2,2,0,0,0,.1.66,1.94,1.94,0,0,0,.29.53,1.61,1.61,0,0,0,.44.38,1.53,1.53,0,0,0,.56.22.61.61,0,0,1,.3.21.64.64,0,0,1,0,.38l-.1.6a3.48,3.48,0,0,1-1.13-.35,2.84,2.84,0,0,1-.82-.66,3.06,3.06,0,0,1-.51-.92,3.59,3.59,0,0,1-.17-1.11,3.3,3.3,0,0,1,.18-1.1,2.48,2.48,0,0,1,1.32-1.49,2.73,2.73,0,0,1,1.1-.21,3,3,0,0,1,1,.15,4,4,0,0,1,.85.43,6.33,6.33,0,0,1,.78.61c.26.23.52.48.78.74l2.51,2.46a5,5,0,0,1-.12-.53,4.75,4.75,0,0,1,0-.51Z"/><path d="M37.48,125.2h.66a.28.28,0,0,1,.18.06.26.26,0,0,1,.07.2v1.15h2.45v1H38.39v4.13a.38.38,0,0,1-.08.23.32.32,0,0,1-.18.12l-.59.11-6-4.53v-1.08h5.95Zm0,2.43H33.64l-.37,0c-.14,0-.27,0-.41,0L37.48,131Z"/><path d="M35.2,119.42a3.21,3.21,0,0,1-.76-.93,2.62,2.62,0,0,1-.07-2.25,2.13,2.13,0,0,1,.64-.79,2.86,2.86,0,0,1,1-.5,5.54,5.54,0,0,1,2.8,0,3.36,3.36,0,0,1,1.12.56,2.61,2.61,0,0,1,.72.9,2.53,2.53,0,0,1,.26,1.18,2.29,2.29,0,0,1-.24,1.1,2.42,2.42,0,0,1-.7.77l.6.06a.28.28,0,0,1,.25.3v.75H31.27v-1.17Zm4,0a1.86,1.86,0,0,0,.61-.69,2,2,0,0,0,.17-.84,1.66,1.66,0,0,0-.65-1.42,3.23,3.23,0,0,0-2-.5,2.93,2.93,0,0,0-1.78.44,1.49,1.49,0,0,0-.57,1.25,1.87,1.87,0,0,0,.26,1,2.82,2.82,0,0,0,.74.77Z"/><path d="M34.26,107.8l8.52,3.67a.57.57,0,0,1,.21.15.37.37,0,0,1,.08.26v.86l-2.61-1.2-6.2,2.72v-1a.36.36,0,0,1,.07-.24.38.38,0,0,1,.17-.12l4.14-1.76a5.4,5.4,0,0,1,.57-.18c-.2-.06-.39-.12-.57-.19l-4.14-1.71a.4.4,0,0,1-.18-.14.37.37,0,0,1-.06-.21Z"/><path d="M40.94,104.75a1.59,1.59,0,0,1-.43,1.2,1.74,1.74,0,0,1-1.26.42h-4v.8a.25.25,0,0,1-.06.17.22.22,0,0,1-.19.07h-.46l-.14-1.08-2-.26a.28.28,0,0,1-.16-.09.26.26,0,0,1-.06-.18v-.58h2.27v-1.91h.83v1.91h4a.81.81,0,0,0,.61-.21.66.66,0,0,0,.2-.52,1,1,0,0,0,0-.31,1.67,1.67,0,0,0-.11-.23l-.11-.17a.17.17,0,0,1,.06-.28l.56-.34a2.16,2.16,0,0,1,.43.72A2.43,2.43,0,0,1,40.94,104.75Z"/><path d="M39.92,96.8a2.51,2.51,0,0,1,.45.52,2.91,2.91,0,0,1,.31.64,3.46,3.46,0,0,1,.19.7,4.56,4.56,0,0,1,.06.72,3.4,3.4,0,0,1-.23,1.26,2.66,2.66,0,0,1-.68,1,3.06,3.06,0,0,1-1.1.65,4.4,4.4,0,0,1-1.51.23,3.82,3.82,0,0,1-1.28-.21,3.05,3.05,0,0,1-1-.6,3,3,0,0,1-.69-1,3.13,3.13,0,0,1-.25-1.29,3.07,3.07,0,0,1,.2-1.1,2.53,2.53,0,0,1,.57-.87,2.7,2.7,0,0,1,.93-.57,3.45,3.45,0,0,1,1.25-.21.72.72,0,0,1,.36.06.24.24,0,0,1,.09.22v4.4a3.84,3.84,0,0,0,1.09-.17,2.3,2.3,0,0,0,.77-.43,1.75,1.75,0,0,0,.46-.65,2.24,2.24,0,0,0,.15-.84,2.39,2.39,0,0,0-.1-.75A4.19,4.19,0,0,0,39.7,98a3.9,3.9,0,0,0-.22-.38.57.57,0,0,1-.1-.26.25.25,0,0,1,.11-.22Zm-3.09.94a2.5,2.5,0,0,0-.74.11,1.77,1.77,0,0,0-.58.34,1.5,1.5,0,0,0-.37.52,1.8,1.8,0,0,0-.14.71,1.75,1.75,0,0,0,.49,1.32,2.29,2.29,0,0,0,1.34.6Z"/><path d="M35.34,91.45a.24.24,0,0,1,.14.24.43.43,0,0,1-.07.22c0,.08-.1.18-.16.3a2.61,2.61,0,0,0-.16.43,2,2,0,0,0-.07.58,1.74,1.74,0,0,0,.07.53,1.17,1.17,0,0,0,.21.4.81.81,0,0,0,.3.25.78.78,0,0,0,.37.09.6.6,0,0,0,.42-.15,1.18,1.18,0,0,0,.3-.38,3.16,3.16,0,0,0,.21-.55c.07-.2.13-.41.21-.63s.15-.42.23-.62a2.29,2.29,0,0,1,.33-.55,1.53,1.53,0,0,1,.48-.39,1.51,1.51,0,0,1,.67-.14,2.15,2.15,0,0,1,.85.16,2,2,0,0,1,.67.48,2.27,2.27,0,0,1,.44.78,3.21,3.21,0,0,1,.16,1.07,3.35,3.35,0,0,1-.22,1.25,3,3,0,0,1-.58.94l-.44-.27a.37.37,0,0,1-.13-.12.34.34,0,0,1,0-.18.45.45,0,0,1,.09-.25,3.71,3.71,0,0,0,.2-.32,2.4,2.4,0,0,0,.2-.45,2.1,2.1,0,0,0,.09-.66,1.74,1.74,0,0,0-.09-.59,1.06,1.06,0,0,0-.23-.42.84.84,0,0,0-.35-.25,1,1,0,0,0-.41-.09.69.69,0,0,0-.46.15,1.35,1.35,0,0,0-.3.39,3.15,3.15,0,0,0-.22.55c-.06.2-.13.41-.2.63s-.15.42-.24.63a2.51,2.51,0,0,1-.33.55,1.45,1.45,0,0,1-.5.38,1.59,1.59,0,0,1-.72.15,1.64,1.64,0,0,1-.72-.16,1.67,1.67,0,0,1-.61-.45,2.14,2.14,0,0,1-.42-.74,2.78,2.78,0,0,1-.16-1,3.13,3.13,0,0,1,.21-1.17,2.64,2.64,0,0,1,.56-.89Z"/><line class="cls-4" x1="36.34" y1="81.7" x2="36.34" y2="26.94"/><polygon class="cls-5" points="40.04 29.75 36.34 28.18 32.63 29.75 36.34 20.97 40.04 29.75"/></svg>