<?xml version="1.0" encoding="UTF-8" standalone="no"?>
<!DOCTYPE svg PUBLIC "-//W3C//DTD SVG 1.1//EN"
 "http://www.w3.org/Graphics/SVG/1.1/DTD/svg11.dtd">
<!-- Generated by graphviz version 2.36.0 (20140111.2315)
 -->
<!-- Title: hash_table_example Pages: 1 -->
<svg width="704pt" height="273pt"
 viewBox="0.00 0.00 704.00 273.00" xmlns="http://www.w3.org/2000/svg" xmlns:xlink="http://www.w3.org/1999/xlink">
<g id="graph0" class="graph" transform="scale(1 1) rotate(0) translate(4 269)">
<title>hash_table_example</title>
<polygon fill="white" stroke="none" points="-4,4 -4,-269 700,-269 700,4 -4,4"/>
<!-- dict -->
<g id="node1" class="node"><title>dict</title>
<polygon fill="#a8e270" stroke="black" points="0.5,-127 0.5,-265 107.5,-265 107.5,-127 0.5,-127"/>
<text text-anchor="middle" x="54" y="-249.8" font-family="'/usr/share/fonts/truetype/wqy/wqy-microhei.ttc'" font-size="14.00">dict</text>
<polyline fill="none" stroke="black" points="0.5,-242 107.5,-242 "/>
<text text-anchor="middle" x="54" y="-226.8" font-family="'/usr/share/fonts/truetype/wqy/wqy-microhei.ttc'" font-size="14.00">type</text>
<polyline fill="none" stroke="black" points="0.5,-219 107.5,-219 "/>
<text text-anchor="middle" x="54" y="-203.8" font-family="'/usr/share/fonts/truetype/wqy/wqy-microhei.ttc'" font-size="14.00">privdata</text>
<polyline fill="none" stroke="black" points="0.5,-196 107.5,-196 "/>
<text text-anchor="middle" x="54" y="-180.8" font-family="'/usr/share/fonts/truetype/wqy/wqy-microhei.ttc'" font-size="14.00">ht[2]</text>
<polyline fill="none" stroke="black" points="0.5,-173 107.5,-173 "/>
<text text-anchor="middle" x="54" y="-157.8" font-family="'/usr/share/fonts/truetype/wqy/wqy-microhei.ttc'" font-size="14.00">rehashidx: &#45;1</text>
<polyline fill="none" stroke="black" points="0.5,-150 107.5,-150 "/>
<text text-anchor="middle" x="54" y="-134.8" font-family="'/usr/share/fonts/truetype/wqy/wqy-microhei.ttc'" font-size="14.00">iterators: 0</text>
</g>
<!-- ht0 -->
<g id="node2" class="node"><title>ht0</title>
<polygon fill="#95bbe3" stroke="black" points="172,-136.5 172,-251.5 270,-251.5 270,-136.5 172,-136.5"/>
<text text-anchor="middle" x="221" y="-236.3" font-family="'/usr/share/fonts/truetype/wqy/wqy-microhei.ttc'" font-size="14.00">dictht</text>
<polyline fill="none" stroke="black" points="172,-228.5 270,-228.5 "/>
<text text-anchor="middle" x="221" y="-213.3" font-family="'/usr/share/fonts/truetype/wqy/wqy-microhei.ttc'" font-size="14.00">table</text>
<polyline fill="none" stroke="black" points="172,-205.5 270,-205.5 "/>
<text text-anchor="middle" x="221" y="-190.3" font-family="'/usr/share/fonts/truetype/wqy/wqy-microhei.ttc'" font-size="14.00">size: 4</text>
<polyline fill="none" stroke="black" points="172,-182.5 270,-182.5 "/>
<text text-anchor="middle" x="221" y="-167.3" font-family="'/usr/share/fonts/truetype/wqy/wqy-microhei.ttc'" font-size="14.00">sizemask: 3</text>
<polyline fill="none" stroke="black" points="172,-159.5 270,-159.5 "/>
<text text-anchor="middle" x="221" y="-144.3" font-family="'/usr/share/fonts/truetype/wqy/wqy-microhei.ttc'" font-size="14.00">used: 3</text>
</g>
<!-- dict&#45;&gt;ht0 -->
<g id="edge1" class="edge"><title>dict:ht&#45;&gt;ht0:dictht</title>
<path fill="none" stroke="black" stroke-width="2" d="M108,-184C141.957,-184 136.049,-229.203 161.909,-238.384"/>
<polygon fill="black" stroke="black" stroke-width="2" points="161.572,-241.875 172,-240 162.679,-234.963 161.572,-241.875"/>
<text text-anchor="middle" x="140" y="-236.8" font-family="Times,serif" font-size="14.00">ht[0]</text>
</g>
<!-- ht1 -->
<g id="node3" class="node"><title>ht1</title>
<polygon fill="#95bbe3" stroke="black" points="172,-0.5 172,-115.5 270,-115.5 270,-0.5 172,-0.5"/>
<text text-anchor="middle" x="221" y="-100.3" font-family="'/usr/share/fonts/truetype/wqy/wqy-microhei.ttc'" font-size="14.00">dictht</text>
<polyline fill="none" stroke="black" points="172,-92.5 270,-92.5 "/>
<text text-anchor="middle" x="221" y="-77.3" font-family="'/usr/share/fonts/truetype/wqy/wqy-microhei.ttc'" font-size="14.00">table</text>
<polyline fill="none" stroke="black" points="172,-69.5 270,-69.5 "/>
<text text-anchor="middle" x="221" y="-54.3" font-family="'/usr/share/fonts/truetype/wqy/wqy-microhei.ttc'" font-size="14.00">size: 0</text>
<polyline fill="none" stroke="black" points="172,-46.5 270,-46.5 "/>
<text text-anchor="middle" x="221" y="-31.3" font-family="'/usr/share/fonts/truetype/wqy/wqy-microhei.ttc'" font-size="14.00">sizemask: 0</text>
<polyline fill="none" stroke="black" points="172,-23.5 270,-23.5 "/>
<text text-anchor="middle" x="221" y="-8.3" font-family="'/usr/share/fonts/truetype/wqy/wqy-microhei.ttc'" font-size="14.00">used: 0</text>
</g>
<!-- dict&#45;&gt;ht1 -->
<g id="edge2" class="edge"><title>dict:ht&#45;&gt;ht1:dictht</title>
<path fill="none" stroke="black" stroke-width="2" d="M108,-184C127.565,-184 143.955,-124.918 162.626,-108.301"/>
<polygon fill="black" stroke="black" stroke-width="2" points="164.371,-111.352 172,-104 161.451,-104.989 164.371,-111.352"/>
<text text-anchor="middle" x="140" y="-172.8" font-family="Times,serif" font-size="14.00">ht[1]</text>
</g>
<!-- bucket -->
<g id="node4" class="node"><title>bucket</title>
<polygon fill="#f2f2f2" stroke="black" points="308.5,-114 308.5,-244 403.5,-244 403.5,-114 308.5,-114"/>
<text text-anchor="middle" x="356" y="-228.8" font-family="'/usr/share/fonts/truetype/wqy/wqy-microhei.ttc'" font-size="14.00">dictEntry**</text>
<text text-anchor="middle" x="356" y="-213.8" font-family="'/usr/share/fonts/truetype/wqy/wqy-microhei.ttc'" font-size="14.00">(bucket)</text>
<polyline fill="none" stroke="black" points="308.5,-206 403.5,-206 "/>
<text text-anchor="middle" x="356" y="-190.8" font-family="'/usr/share/fonts/truetype/wqy/wqy-microhei.ttc'" font-size="14.00">0</text>
<polyline fill="none" stroke="black" points="308.5,-183 403.5,-183 "/>
<text text-anchor="middle" x="356" y="-167.8" font-family="'/usr/share/fonts/truetype/wqy/wqy-microhei.ttc'" font-size="14.00">1</text>
<polyline fill="none" stroke="black" points="308.5,-160 403.5,-160 "/>
<text text-anchor="middle" x="356" y="-144.8" font-family="'/usr/share/fonts/truetype/wqy/wqy-microhei.ttc'" font-size="14.00">2</text>
<polyline fill="none" stroke="black" points="308.5,-137 403.5,-137 "/>
<text text-anchor="middle" x="356" y="-121.8" font-family="'/usr/share/fonts/truetype/wqy/wqy-microhei.ttc'" font-size="14.00">3</text>
</g>
<!-- ht0&#45;&gt;bucket -->
<g id="edge3" class="edge"><title>ht0:table&#45;&gt;bucket:head</title>
<path fill="none" stroke="black" stroke-width="2" d="M270,-217C283.214,-217 288.352,-221.689 297.78,-223.888"/>
<polygon fill="black" stroke="black" stroke-width="2" points="297.68,-227.397 308,-225 298.437,-220.438 297.68,-227.397"/>
</g>
<!-- tnull1 -->
<g id="node12" class="node"><title>tnull1</title>
<polygon fill="lightgrey" stroke="none" points="383,-96 329,-96 329,-60 383,-60 383,-96"/>
<text text-anchor="middle" x="356" y="-74.3" font-family="'/usr/share/fonts/truetype/wqy/wqy-microhei.ttc'" font-size="14.00">NULL</text>
</g>
<!-- ht1&#45;&gt;tnull1 -->
<g id="edge4" class="edge"><title>ht1:table&#45;&gt;tnull1</title>
<path fill="none" stroke="black" stroke-width="2" d="M270,-81C286.077,-81 303.853,-80.4574 318.975,-79.8337"/>
<polygon fill="black" stroke="black" stroke-width="2" points="319.131,-83.3303 328.967,-79.3946 318.823,-76.3371 319.131,-83.3303"/>
</g>
<!-- pair_1 -->
<g id="node5" class="node"><title>pair_1</title>
<polygon fill="#fadcad" stroke="black" points="442.5,-215 442.5,-261 603.5,-261 603.5,-215 442.5,-215"/>
<text text-anchor="middle" x="523" y="-245.8" font-family="'/usr/share/fonts/truetype/wqy/wqy-microhei.ttc'" font-size="14.00">dictEntry</text>
<polyline fill="none" stroke="black" points="442.5,-238 603.5,-238 "/>
<text text-anchor="middle" x="467.5" y="-222.8" font-family="'/usr/share/fonts/truetype/wqy/wqy-microhei.ttc'" font-size="14.00">key1</text>
<polyline fill="none" stroke="black" points="492.5,-215 492.5,-238 "/>
<text text-anchor="middle" x="524" y="-222.8" font-family="'/usr/share/fonts/truetype/wqy/wqy-microhei.ttc'" font-size="14.00">value1</text>
<polyline fill="none" stroke="black" points="555.5,-215 555.5,-238 "/>
<text text-anchor="middle" x="579.5" y="-222.8" font-family="'/usr/share/fonts/truetype/wqy/wqy-microhei.ttc'" font-size="14.00">next</text>
</g>
<!-- bucket&#45;&gt;pair_1 -->
<g id="edge5" class="edge"><title>bucket:table0&#45;&gt;pair_1:head</title>
<path fill="none" stroke="black" stroke-width="2" d="M404,-195C429.533,-195 417.303,-235.619 432.215,-247.043"/>
<polygon fill="black" stroke="black" stroke-width="2" points="431.415,-250.458 442,-250 433.44,-243.757 431.415,-250.458"/>
</g>
<!-- pair_2 -->
<g id="node6" class="node"><title>pair_2</title>
<polygon fill="#fadcad" stroke="black" points="442.5,-95 442.5,-141 603.5,-141 603.5,-95 442.5,-95"/>
<text text-anchor="middle" x="523" y="-125.8" font-family="'/usr/share/fonts/truetype/wqy/wqy-microhei.ttc'" font-size="14.00">dictEntry</text>
<polyline fill="none" stroke="black" points="442.5,-118 603.5,-118 "/>
<text text-anchor="middle" x="467.5" y="-102.8" font-family="'/usr/share/fonts/truetype/wqy/wqy-microhei.ttc'" font-size="14.00">key2</text>
<polyline fill="none" stroke="black" points="492.5,-95 492.5,-118 "/>
<text text-anchor="middle" x="524" y="-102.8" font-family="'/usr/share/fonts/truetype/wqy/wqy-microhei.ttc'" font-size="14.00">value2</text>
<polyline fill="none" stroke="black" points="555.5,-95 555.5,-118 "/>
<text text-anchor="middle" x="579.5" y="-102.8" font-family="'/usr/share/fonts/truetype/wqy/wqy-microhei.ttc'" font-size="14.00">next</text>
</g>
<!-- bucket&#45;&gt;pair_2 -->
<g id="edge8" class="edge"><title>bucket:table2&#45;&gt;pair_2:head</title>
<path fill="none" stroke="black" stroke-width="2" d="M404,-148C418.6,-148 422.175,-137.014 431.951,-132.207"/>
<polygon fill="black" stroke="black" stroke-width="2" points="432.984,-135.564 442,-130 431.482,-128.727 432.984,-135.564"/>
</g>
<!-- pair_3 -->
<g id="node7" class="node"><title>pair_3</title>
<polygon fill="#fadcad" stroke="black" points="442.5,-30 442.5,-76 603.5,-76 603.5,-30 442.5,-30"/>
<text text-anchor="middle" x="523" y="-60.8" font-family="'/usr/share/fonts/truetype/wqy/wqy-microhei.ttc'" font-size="14.00">dictEntry</text>
<polyline fill="none" stroke="black" points="442.5,-53 603.5,-53 "/>
<text text-anchor="middle" x="467.5" y="-37.8" font-family="'/usr/share/fonts/truetype/wqy/wqy-microhei.ttc'" font-size="14.00">key3</text>
<polyline fill="none" stroke="black" points="492.5,-30 492.5,-53 "/>
<text text-anchor="middle" x="524" y="-37.8" font-family="'/usr/share/fonts/truetype/wqy/wqy-microhei.ttc'" font-size="14.00">value3</text>
<polyline fill="none" stroke="black" points="555.5,-30 555.5,-53 "/>
<text text-anchor="middle" x="579.5" y="-37.8" font-family="'/usr/share/fonts/truetype/wqy/wqy-microhei.ttc'" font-size="14.00">next</text>
</g>
<!-- bucket&#45;&gt;pair_3 -->
<g id="edge10" class="edge"><title>bucket:table3&#45;&gt;pair_3:head</title>
<path fill="none" stroke="black" stroke-width="2" d="M404,-125C431.373,-125 416.11,-79.8792 432.158,-67.8939"/>
<polygon fill="black" stroke="black" stroke-width="2" points="433.393,-71.1789 442,-65 431.419,-64.4631 433.393,-71.1789"/>
</g>
<!-- null1 -->
<g id="node9" class="node"><title>null1</title>
<polygon fill="lightgrey" stroke="none" points="550,-196 496,-196 496,-160 550,-160 550,-196"/>
<text text-anchor="middle" x="523" y="-174.3" font-family="'/usr/share/fonts/truetype/wqy/wqy-microhei.ttc'" font-size="14.00">NULL</text>
</g>
<!-- bucket&#45;&gt;null1 -->
<g id="edge7" class="edge"><title>bucket:table1&#45;&gt;null1</title>
<path fill="none" stroke="black" stroke-width="2" d="M404,-171C431.407,-171 462.331,-172.905 485.645,-174.727"/>
<polygon fill="black" stroke="black" stroke-width="2" points="485.53,-178.23 495.781,-175.552 486.098,-171.253 485.53,-178.23"/>
</g>
<!-- null0 -->
<g id="node8" class="node"><title>null0</title>
<polygon fill="lightgrey" stroke="none" points="696,-244 642,-244 642,-208 696,-208 696,-244"/>
<text text-anchor="middle" x="669" y="-222.3" font-family="'/usr/share/fonts/truetype/wqy/wqy-microhei.ttc'" font-size="14.00">NULL</text>
</g>
<!-- pair_1&#45;&gt;null0 -->
<g id="edge6" class="edge"><title>pair_1:next&#45;&gt;null0</title>
<path fill="none" stroke="black" stroke-width="2" d="M604,-226C612.944,-226 622.592,-226 631.616,-226"/>
<polygon fill="black" stroke="black" stroke-width="2" points="631.844,-229.5 641.844,-226 631.844,-222.5 631.844,-229.5"/>
</g>
<!-- null2 -->
<g id="node10" class="node"><title>null2</title>
<polygon fill="lightgrey" stroke="none" points="696,-124 642,-124 642,-88 696,-88 696,-124"/>
<text text-anchor="middle" x="669" y="-102.3" font-family="'/usr/share/fonts/truetype/wqy/wqy-microhei.ttc'" font-size="14.00">NULL</text>
</g>
<!-- pair_2&#45;&gt;null2 -->
<g id="edge9" class="edge"><title>pair_2:next&#45;&gt;null2</title>
<path fill="none" stroke="black" stroke-width="2" d="M604,-106C612.944,-106 622.592,-106 631.616,-106"/>
<polygon fill="black" stroke="black" stroke-width="2" points="631.844,-109.5 641.844,-106 631.844,-102.5 631.844,-109.5"/>
</g>
<!-- null3 -->
<g id="node11" class="node"><title>null3</title>
<polygon fill="lightgrey" stroke="none" points="696,-59 642,-59 642,-23 696,-23 696,-59"/>
<text text-anchor="middle" x="669" y="-37.3" font-family="'/usr/share/fonts/truetype/wqy/wqy-microhei.ttc'" font-size="14.00">NULL</text>
</g>
<!-- pair_3&#45;&gt;null3 -->
<g id="edge11" class="edge"><title>pair_3:next&#45;&gt;null3</title>
<path fill="none" stroke="black" stroke-width="2" d="M604,-41C612.944,-41 622.592,-41 631.616,-41"/>
<polygon fill="black" stroke="black" stroke-width="2" points="631.844,-44.5001 641.844,-41 631.844,-37.5001 631.844,-44.5001"/>
</g>
</g>
</svg>
